<?xml version="1.0" encoding="UTF-8"?>
<svg version="1.1" xmlns="http://www.w3.org/2000/svg" width="100" height="20">
<path d="M0 0 C42.9 0 85.8 0 130 0 C130 18.15 130 36.3 130 55 C87.1 55 44.2 55 0 55 C0 36.85 0 18.7 0 0 Z " fill="#033047" transform="translate(0,0)"/>
<path d="M0 0 C9.24 0 18.48 0 28 0 C28.06884721 5.35733316 28.12858633 10.71313365 28.16479492 16.07055664 C28.1798876 17.89320067 28.20036395 19.71580836 28.22631836 21.53833008 C28.26268103 24.157155 28.27972124 26.77550007 28.29296875 29.39453125 C28.30845261 30.21025101 28.32393646 31.02597076 28.33988953 31.8664093 C28.34158349 37.55223079 28.34158349 37.55223079 26.69551086 39.71000671 C23.9271504 41.81625474 20.8372218 41.51271323 17.5 41.5 C16.82324219 41.52835938 16.14648438 41.55671875 15.44921875 41.5859375 C13.46875 41.59375 13.46875 41.59375 10 41 C8.01171875 38.70703125 8.01171875 38.70703125 7 36 C7.3125 32.1875 7.3125 32.1875 8 29 C6.68 28.67 5.36 28.34 4 28 C4.05800781 28.67546875 4.11601563 29.3509375 4.17578125 30.046875 C4.54404352 37.32794624 4.54404352 37.32794624 1.875 40.625 C-1.50273835 42.24044008 -3.2971346 42.52898077 -7 42 C-10.375 40.5 -10.375 40.5 -13 39 C-13 39.99 -13 40.98 -13 42 C-15.31 42 -17.62 42 -20 42 C-20 31.77 -20 21.54 -20 11 C-15.38 11 -10.76 11 -6 11 C-4.02 10.67 -2.04 10.34 0 10 C0 6.7 0 3.4 0 0 Z " fill="#062F46" transform="translate(92,0)"/>
<path d="M0 0 C3.3 0 6.6 0 10 0 C10 18.15 10 36.3 10 55 C-6.17 55 -22.34 55 -39 55 C-39 50.05 -39 45.1 -39 40 C-36.52604167 40.35807292 -34.05208333 40.71614583 -31.578125 41.07421875 C-28.95734687 41.18207385 -28.95734687 41.18207385 -26.71875 39.84375 C-24.50586831 37.46993146 -24.41655943 36.01876895 -24.25 32.8125 C-24.19328125 31.91144531 -24.1365625 31.01039062 -24.078125 30.08203125 C-24.05234375 29.39496094 -24.0265625 28.70789063 -24 28 C-22.68 28.33 -21.36 28.66 -20 29 C-20.04125 30.0725 -20.0825 31.145 -20.125 32.25 C-20.09442759 36.55165516 -20.09442759 36.55165516 -18 40 C-15.33517159 40.46709352 -13.04929034 40.69572473 -10.375 40.75 C-9.31539062 40.79447266 -9.31539062 40.79447266 -8.234375 40.83984375 C-6.49019953 40.91055357 -4.74509173 40.95754035 -3 41 C-2.67 40.01 -2.34 39.02 -2 38 C-1.34 38 -0.68 38 0 38 C0 25.46 0 12.92 0 0 Z " fill="#032F47" transform="translate(120,0)"/>
<path d="M0 0 C3.403125 -0.04125 6.80625 -0.0825 10.3125 -0.125 C11.91605347 -0.15231201 11.91605347 -0.15231201 13.55200195 -0.18017578 C14.81983521 -0.18766846 14.81983521 -0.18766846 16.11328125 -0.1953125 C16.97735596 -0.20578613 17.84143066 -0.21625977 18.73168945 -0.22705078 C21 0 21 0 24 2 C23.67 3.65 23.34 5.3 23 7 C21.02 7 19.04 7 17 7 C17.56281623 10.34840035 18.40297818 11.57534488 21.0625 13.625 C23.90528868 16.31672261 24.51528797 18.22152725 24.6875 22.125 C24.45473665 25.71929924 24.20610058 26.74540517 21.875 29.625 C18.49726165 31.24044008 16.7028654 31.52898077 13 31 C9.625 29.5 9.625 29.5 7 28 C7 28.99 7 29.98 7 31 C4.69 31 2.38 31 0 31 C0 20.77 0 10.54 0 0 Z " fill="#053F55" transform="translate(72,11)"/>
<path d="M0 0 C2.31 0 4.62 0 7 0 C7.19335938 0.97839844 7.38671875 1.95679688 7.5859375 2.96484375 C7.84882543 4.28908889 8.11185582 5.61330576 8.375 6.9375 C8.51075439 7.62320068 8.64650879 8.30890137 8.78637695 9.01538086 C9.52400327 12.71485383 10.31125292 16.39360937 11.1875 20.0625 C11.95764418 23.42312914 12.17746802 26.53937352 12 30 C10.02 30 8.04 30 6 30 C6 28.68 6 27.36 6 26 C4.35 26 2.7 26 1 26 C0.67 27.32 0.34 28.64 0 30 C-1.65 30 -3.3 30 -5 30 C-5.23096707 23.60742767 -4.38748362 17.86938648 -3.0625 11.625 C-2.88009766 10.72394531 -2.69769531 9.82289062 -2.50976562 8.89453125 C-1.15055006 2.30110013 -1.15055006 2.30110013 0 0 Z " fill="#2397A2" transform="translate(22,11)"/>
<path d="M0 0 C0.99 0.66 1.98 1.32 3 2 C2.67 3.65 2.34 5.3 2 7 C0.02 7 -1.96 7 -4 7 C-3.73911731 10.52191627 -2.75685408 11.21275268 0 13.625 C0.99 14.40875 1.98 15.1925 3 16 C4.55024464 19.10048928 4.28992015 21.57894218 4 25 C2.20437595 27.75329021 0.94745078 29.52627461 -2 31 C-4.875 31.3125 -4.875 31.3125 -8 31 C-10.375 29 -10.375 29 -12 27 C-11.34 25.68 -10.68 24.36 -10 23 C-7.69 23.33 -5.38 23.66 -3 24 C-3.05563651 22.16531168 -3.05563651 22.16531168 -4 20 C-5.97956942 18.30911778 -7.97945196 16.64169528 -10 15 C-11.23746694 11.28759918 -11.54341681 7.85825935 -11 4 C-8.14168726 -0.57330038 -5.12855236 -0.55947844 0 0 Z " fill="#1FA1AB" transform="translate(47,11)"/>
<path d="M0 0 C0.99 0.66 1.98 1.32 3 2 C2.67 3.65 2.34 5.3 2 7 C0.02 7 -1.96 7 -4 7 C-3.43718377 10.34840035 -2.59702182 11.57534488 0.0625 13.625 C2.90528868 16.31672261 3.51528797 18.22152725 3.6875 22.125 C3.45473665 25.71929924 3.20610058 26.74540517 0.875 29.625 C-2.4426533 31.21170375 -4.36515154 31.46402321 -8 31 C-10.375 30 -10.375 30 -12 29 C-11.625 26.5625 -11.625 26.5625 -11 24 C-8.3333581 22.66667905 -6.83319697 23.32897967 -4 24 C-4.30105065 20.38739215 -4.70868088 19.25490423 -7.5 16.8125 C-8.325 16.214375 -9.15 15.61625 -10 15 C-11.73119043 11.53761913 -11.47070629 7.78582345 -11 4 C-8.18978297 -0.60875593 -5.12353961 -0.55893159 0 0 Z " fill="#1EA4AE" transform="translate(93,11)"/>
<path d="M0 0 C3.6875 0.3125 3.6875 0.3125 6.125 2.0625 C7.6875 4.3125 7.6875 4.3125 7.6875 8.3125 C6.0375 8.6425 4.3875 8.9725 2.6875 9.3125 C2.6875 8.3225 2.6875 7.3325 2.6875 6.3125 C-0.43035113 6.95894661 -0.43035113 6.95894661 -1.3125 9.3125 C-1.40922832 11.28974061 -1.44229903 13.2704006 -1.4375 15.25 C-1.44007812 16.31089844 -1.44265625 17.37179688 -1.4453125 18.46484375 C-1.43819346 21.38823057 -1.43819346 21.38823057 -0.3125 24.3125 C0.3475 24.3125 1.0075 24.3125 1.6875 24.3125 C2.3475 23.3225 3.0075 22.3325 3.6875 21.3125 C5.0075 21.6425 6.3275 21.9725 7.6875 22.3125 C7.20720669 27.71579973 7.20720669 27.71579973 5 30.25 C1.81452876 31.71359489 0.00868677 31.30178968 -3.3125 30.3125 C-6.25893116 28.20790631 -7.18015708 25.69081236 -8.3125 22.3125 C-9.11899564 14.37883359 -9.27085259 7.77338368 -4.3125 1.3125 C-3.3125 0.3125 -3.3125 0.3125 0 0 Z " fill="#249FAC" transform="translate(61.3125,10.6875)"/>
<path d="M0 0 C0.90105469 0.01804687 1.80210938 0.03609375 2.73046875 0.0546875 C3.41753906 0.07789062 4.10460937 0.10109375 4.8125 0.125 C5.4725 1.445 6.1325 2.765 6.8125 4.125 C6.1525 4.785 5.4925 5.445 4.8125 6.125 C5.8025 7.61 5.8025 7.61 6.8125 9.125 C6.4375 11.3125 6.4375 11.3125 5.8125 13.125 C2.89767222 13.93467438 1.35136783 14.34345993 -1.5 13.1875 C-2.056875 12.836875 -2.61375 12.48625 -3.1875 12.125 C-3.1875 14.435 -3.1875 16.745 -3.1875 19.125 C-2.5275 19.125 -1.8675 19.125 -1.1875 19.125 C-1.1875 18.465 -1.1875 17.805 -1.1875 17.125 C0.7925 17.785 2.7725 18.445 4.8125 19.125 C4.4825 17.805 4.1525 16.485 3.8125 15.125 C4.8025 15.455 5.7925 15.785 6.8125 16.125 C6.4825 17.775 6.1525 19.425 5.8125 21.125 C2.10419198 21.40831725 -1.48664867 21.55013461 -5.1875 21.125 C-7.4375 19.0625 -7.4375 19.0625 -8.1875 16.125 C-7.875 12.3125 -7.875 12.3125 -7.1875 9.125 C-8.5075 8.465 -9.8275 7.805 -11.1875 7.125 C-8.24345159 1.79767431 -6.18303156 -0.16059822 0 0 Z " fill="#173A4C" transform="translate(107.1875,19.875)"/>
<path d="M0 0 C1.5843317 0.08768248 3.16753567 0.19587329 4.75 0.3125 C6.07257813 0.39951172 6.07257813 0.39951172 7.421875 0.48828125 C10.34958642 1.06938761 11.71314042 2.13950407 14 4 C16.64934822 4.71433121 16.64934822 4.71433121 19 5 C18.67 3.68 18.34 2.36 18 1 C18.99 1.66 19.98 2.32 21 3 C20.6875 4.875 20.6875 4.875 20 7 C17.03991334 8.97339111 16.26478554 9.23226556 12.9375 9.4375 C10.9884375 9.7159375 10.9884375 9.7159375 9 10 C8.01 11.485 8.01 11.485 7 13 C6.34 13 5.68 13 5 13 C4.34 14.32 3.68 15.64 3 17 C1.84481082 16.09515208 0.70114594 15.1755794 -0.4375 14.25 C-1.07558594 13.73953125 -1.71367188 13.2290625 -2.37109375 12.703125 C-4.18810554 10.80332371 -4.60423197 9.56413092 -5 7 C-1.98968256 6.06576355 -1.13349732 5.95550089 2 7 C2.16687448 4.58354218 2.16687448 4.58354218 2 2 C1.34 1.34 0.68 0.68 0 0 Z " fill="#09384D" transform="translate(93,11)"/>
<path d="M0 0 C1.98 0 3.96 0 6 0 C6 9.9 6 19.8 6 30 C4.02 30 2.04 30 0 30 C0 20.1 0 10.2 0 0 Z " fill="#2594A0" transform="translate(72,11)"/>
<path d="M0 0 C0.99 0 1.98 0 3 0 C3.12381149 5.46256275 3.21443826 10.92430488 3.2746582 16.38793945 C3.29976702 18.24550609 3.33386134 20.10297427 3.37719727 21.96020508 C3.43801124 24.63387358 3.4662452 27.30623365 3.48828125 29.98046875 C3.51408768 30.80773972 3.5398941 31.63501068 3.56648254 32.48735046 C3.56860269 36.86866491 3.39793838 38.49317682 0.59448242 42.0637207 C-2 44 -2 44 -4 44 C-4 44.66 -4 45.32 -4 46 C-4.66 46 -5.32 46 -6 46 C-6 46.66 -6 47.32 -6 48 C-6.66 48 -7.32 48 -8 48 C-8.33 48.99 -8.66 49.98 -9 51 C-11.375 53.25 -11.375 53.25 -14 55 C-14.99 54.67 -15.98 54.34 -17 54 C-15.88200014 52.66079162 -14.75538103 51.32877444 -13.625 50 C-12.68527344 48.88625 -12.68527344 48.88625 -11.7265625 47.75 C-10.87191406 46.88375 -10.87191406 46.88375 -10 46 C-9.34 46 -8.68 46 -8 46 C-8 45.34 -8 44.68 -8 44 C-7.34 44 -6.68 44 -6 44 C-5.67 43.01 -5.34 42.02 -5 41 C-4.34 41 -3.68 41 -3 41 C-2.67 40.01 -2.34 39.02 -2 38 C-1.34 38 -0.68 38 0 38 C0 25.46 0 12.92 0 0 Z " fill="#083D54" transform="translate(120,0)"/>
<path d="M0 0 C1.65 0 3.3 0 5 0 C7.54039398 4.5542077 8.81067366 8.90194961 9.6875 14 C9.81705078 14.68578125 9.94660156 15.3715625 10.08007812 16.078125 C10.80511291 20.09842367 11.13392688 23.91841897 11 28 C9.02 28 7.04 28 5 28 C5 26.02 5 24.04 5 22 C4.01 22 3.02 22 2 22 C2 21.01 2 20.02 2 19 C2.66 19 3.32 19 4 19 C3.67 14.71 3.34 10.42 3 6 C2.34 6 1.68 6 1 6 C0.67 4.02 0.34 2.04 0 0 Z " fill="#1FA3AD" transform="translate(23,13)"/>
<path d="M0 0 C0.99 0 1.98 0 3 0 C3 8.91 3 17.82 3 27 C2.01 27 1.02 27 0 27 C-1.37178883 17.91189901 -1.37178883 9.08810099 0 0 Z " fill="#19A8B1" transform="translate(74,13)"/>
<path d="M0 0 C2.91517292 1.07401108 4.77810176 1.77810176 7 4 C6.625 6.125 6.625 6.125 6 8 C1.25 7.125 1.25 7.125 -1 6 C-1.66 8.64 -2.32 11.28 -3 14 C-4.98 14 -6.96 14 -9 14 C-9 13.67 -9 13.34 -9 13 C-7.35 13 -5.7 13 -4 13 C-4.33 10.03 -4.66 7.06 -5 4 C-4.01 4 -3.02 4 -2 4 C-1.34 2.68 -0.68 1.36 0 0 Z " fill="#074055" transform="translate(38,28)"/>
<path d="M0 0 C1.37478516 0.01740234 1.37478516 0.01740234 2.77734375 0.03515625 C3.69644531 0.04417969 4.61554688 0.05320312 5.5625 0.0625 C6.27277344 0.07410156 6.98304687 0.08570312 7.71484375 0.09765625 C8.37484375 1.41765625 9.03484375 2.73765625 9.71484375 4.09765625 C7.71484375 6.09765625 7.71484375 6.09765625 5.33203125 6.29296875 C4.42710938 6.26976562 3.5221875 6.2465625 2.58984375 6.22265625 C1.22472656 6.19558594 1.22472656 6.19558594 -0.16796875 6.16796875 C-0.86664063 6.14476562 -1.5653125 6.1215625 -2.28515625 6.09765625 C-2.66734392 4.44150968 -2.99910727 2.77308601 -3.28515625 1.09765625 C-2.28515625 0.09765625 -2.28515625 0.09765625 0 0 Z " fill="#9BB0B7" transform="translate(104.28515625,19.90234375)"/>
<path d="M0 0 C0.66 0.33 1.32 0.66 2 1 C1.8595017 3.7920301 1.71284617 6.58349796 1.5625 9.375 C1.50352539 10.56609375 1.50352539 10.56609375 1.44335938 11.78125 C1.11328125 17.7734375 1.11328125 17.7734375 0 20 C-1.65 20 -3.3 20 -5 20 C-4.67 18.35 -4.34 16.7 -4 15 C-3.34 15 -2.68 15 -2 15 C-2.226875 13.824375 -2.45375 12.64875 -2.6875 11.4375 C-3.30075837 6.7883386 -2.1389765 4.10683488 0 0 Z " fill="#18A9B3" transform="translate(22,21)"/>
<path d="M0 0 C0.99 0 1.98 0 3 0 C2.67 4.62 2.34 9.24 2 14 C1.34 14 0.68 14 0 14 C-0.33 14.99 -0.66 15.98 -1 17 C-2.71216126 15.28783874 -2.17191224 13.08192944 -2.1875 10.75 C-2.20167969 9.79609375 -2.21585938 8.8421875 -2.23046875 7.859375 C-1.9897641 4.87300541 -1.249438 2.70629259 0 0 Z " fill="#1AA8B2" transform="translate(56,17)"/>
<path d="M0 0 C1.134375 0.020625 2.26875 0.04125 3.4375 0.0625 C3.4375 0.3925 3.4375 0.7225 3.4375 1.0625 C1.7875 1.0625 0.1375 1.0625 -1.5625 1.0625 C-1.2325 2.0525 -0.9025 3.0425 -0.5625 4.0625 C-0.8925 4.3925 -1.2225 4.7225 -1.5625 5.0625 C-1.2325 5.7225 -0.9025 6.3825 -0.5625 7.0625 C-1.2225 7.7225 -1.8825 8.3825 -2.5625 9.0625 C-2.5625 8.0725 -2.5625 7.0825 -2.5625 6.0625 C-3.5525 6.0625 -4.5425 6.0625 -5.5625 6.0625 C-6.2225 11.3425 -6.8825 16.6225 -7.5625 22.0625 C-7.8925 22.0625 -8.2225 22.0625 -8.5625 22.0625 C-9.30264443 7.23905183 -9.30264443 7.23905183 -4.5625 1.0625 C-3.5625 0.0625 -3.5625 0.0625 0 0 Z " fill="#2397A4" transform="translate(61.5625,10.9375)"/>
<path d="M0 0 C0.33 0 0.66 0 1 0 C1.98248524 4.0527516 2.08159574 7.83861737 2 12 C1.34 12 0.68 12 0 12 C0 12.99 0 13.98 0 15 C0.99 15 1.98 15 3 15 C3 15.66 3 16.32 3 17 C1.35 17 -0.3 17 -2 17 C-2 12.71 -2 8.42 -2 4 C-1.34 4 -0.68 4 0 4 C0 2.68 0 1.36 0 0 Z " fill="#2499A4" transform="translate(25,20)"/>
<path d="M0 0 C1.98 0.99 1.98 0.99 4 2 C3.67 6.29 3.34 10.58 3 15 C2.01 15 1.02 15 0 15 C0 10.05 0 5.1 0 0 Z " fill="#053A54" transform="translate(81,40)"/>
<path d="M0 0 C0 2.64 0 5.28 0 8 C-3.08809695 9.76462683 -4.23312136 10 -8 10 C-8 9.34 -8 8.68 -8 8 C-7.01 8 -6.02 8 -5 8 C-4.87625 6.865625 -4.7525 5.73125 -4.625 4.5625 C-4.41875 3.386875 -4.2125 2.21125 -4 1 C-2 0 -2 0 0 0 Z " fill="#1AA9B2" transform="translate(49,30)"/>
<path d="M0 0 C0.33 0.66 0.66 1.32 1 2 C0.67 2.66 0.34 3.32 0 4 C1.32 4 2.64 4 4 4 C4 3.34 4 2.68 4 2 C5.98 2.66 7.96 3.32 10 4 C9.67 2.68 9.34 1.36 9 0 C9.99 0.33 10.98 0.66 12 1 C11.67 2.65 11.34 4.3 11 6 C7.37 6 3.74 6 0 6 C-0.33 4.35 -0.66 2.7 -1 1 C-0.67 0.67 -0.34 0.34 0 0 Z " fill="#C5DBE2" transform="translate(102,35)"/>
<path d="M0 0 C0.99 0.66 1.98 1.32 3 2 C2.67 2.99 2.34 3.98 2 5 C1.67 4.34 1.34 3.68 1 3 C-2.37436186 2.66619186 -2.37436186 2.66619186 -6 3 C-8.87637713 5.58873942 -9.47765853 8.23914141 -10 12 C-10.33 12 -10.66 12 -11 12 C-11.48192771 4.77108434 -11.48192771 4.77108434 -9.4375 1.5 C-6.11203064 -0.54644269 -3.83693587 -0.41857482 0 0 Z " fill="#2692A0" transform="translate(47,11)"/>
<path d="M0 0 C3.91593446 0.78318689 7.36406635 2.39179858 11 4 C10.67 2.68 10.34 1.36 10 0 C10.99 0.33 11.98 0.66 13 1 C12.67 2.32 12.34 3.64 12 5 C8.61608307 6.06351675 7.4195366 6.21442982 4.1875 4.5625 C3.465625 4.046875 2.74375 3.53125 2 3 C1.34 3.99 0.68 4.98 0 6 C0 4.02 0 2.04 0 0 Z " fill="#C9DDE3" transform="translate(101,28)"/>
<path d="M0 0 C0.99 0.33 1.98 0.66 3 1 C3 1.66 3 2.32 3 3 C4.65 3 6.3 3 8 3 C8.33 4.98 8.66 6.96 9 9 C5.45529741 8.70460812 4.21784705 8.22373481 1.6875 5.625 C0 3 0 3 0 0 Z " fill="#19A9B1" transform="translate(85,22)"/>
<path d="M0 0 C0.7734375 0.433125 0.7734375 0.433125 1.5625 0.875 C4.62356725 2.28780027 7.74944918 3.1248517 11 4 C10.67 2.68 10.34 1.36 10 0 C10.99 0.66 11.98 1.32 13 2 C12.67 3.32 12.34 4.64 12 6 C7.32538149 6.32613618 4.83325617 5.70582788 1 3 C0.67 3.99 0.34 4.98 0 6 C0 4.02 0 2.04 0 0 Z " fill="#CDE0E5" transform="translate(101,12)"/>
<path d="M0 0 C4.34586828 -0.39507893 6.32003497 -0.45331002 10 2 C9.67 3.65 9.34 5.3 9 7 C6.69 7 4.38 7 2 7 C2 6.34 2 5.68 2 5 C3.98 5 5.96 5 8 5 C8 4.01 8 3.02 8 2 C4.7 2.33 1.4 2.66 -2 3 C-1.34 2.01 -0.68 1.02 0 0 Z " fill="#2793A2" transform="translate(86,11)"/>
<path d="M0 0 C1.32 0.33 2.64 0.66 4 1 C3.34 1 2.68 1 2 1 C2.66 1.66 3.32 2.32 4 3 C4.66 3.66 5.32 4.32 6 5 C5.625 8.625 5.625 8.625 5 12 C4.34 12 3.68 12 3 12 C3 11.01 3 10.02 3 9 C2.34 9.99 1.68 10.98 1 12 C-0.3271261 8.0186217 -0.06915913 4.14954773 0 0 Z " fill="#3A5666" transform="translate(99,27)"/>
<path d="M0 0 C0.33 0 0.66 0 1 0 C1.13277344 0.62648438 1.26554687 1.25296875 1.40234375 1.8984375 C1.57894531 2.71570313 1.75554687 3.53296875 1.9375 4.375 C2.11152344 5.18710937 2.28554687 5.99921875 2.46484375 6.8359375 C2.92330693 9.029463 2.92330693 9.029463 4 11 C2.48837209 17.51162791 2.48837209 17.51162791 0 20 C0 13.4 0 6.8 0 0 Z " fill="#06465C" transform="translate(81,17)"/>
<path d="M0 0 C1.66611905 -0.042721 3.33382885 -0.04063832 5 0 C6 1 6 1 6.0625 3.5625 C6.041875 4.366875 6.02125 5.17125 6 6 C5.34 6 4.68 6 4 6 C3.67 6.66 3.34 7.32 3 8 C3 7.34 3 6.68 3 6 C2.34 6 1.68 6 1 6 C0.67 4.02 0.34 2.04 0 0 Z " fill="#1BA8B4" transform="translate(23,13)"/>
<path d="M0 0 C3 2 3 2 3.46875 4.2421875 C3.55272665 11.31722002 3.55272665 11.31722002 0.875 14.625 C-2.35390546 16.16925913 -4.46402825 16.3289276 -8 16 C-4 14 -4 14 -1.91015625 13.20703125 C0.19140526 12.16733783 0.19140526 12.16733783 0.64453125 9.94140625 C0.69996094 9.15636719 0.75539063 8.37132812 0.8125 7.5625 C0.88082031 6.78003906 0.94914062 5.99757813 1.01953125 5.19140625 C1.11080464 2.81948017 1.11080464 2.81948017 0 0 Z " fill="#2B98A5" transform="translate(93,26)"/>
<path d="M0 0 C0.99 0.33 1.98 0.66 3 1 C2.67 2.98 2.34 4.96 2 7 C0.35 7 -1.3 7 -3 7 C-2.67 5.35 -2.34 3.7 -2 2 C-1.34 2 -0.68 2 0 2 C0 1.34 0 0.68 0 0 Z " fill="#1FA4AE" transform="translate(20,34)"/>
<path d="M0 0 C0.66 0 1.32 0 2 0 C2.33 3.63 2.66 7.26 3 11 C1.35 11 -0.3 11 -2 11 C-1.34 7.37 -0.68 3.74 0 0 Z " fill="#043D54" transform="translate(90,0)"/>
<path d="M0 0 C3.3 0.99 6.6 1.98 10 3 C8 5 8 5 4.5 5.25 C1 5 1 5 -1 3 C-0.67 2.01 -0.34 1.02 0 0 Z " fill="#364F5F" transform="translate(102,15)"/>
<path d="M0 0 C1.98 0.66 3.96 1.32 6 2 C6 3.32 6 4.64 6 6 C4.33388095 6.042721 2.66617115 6.04063832 1 6 C0 5 0 5 -0.0625 2.4375 C-0.041875 1.633125 -0.02125 0.82875 0 0 Z " fill="#1DA7AE" transform="translate(57,35)"/>
<path d="M0 0 C1.65 0 3.3 0 5 0 C4.67 0.99 4.34 1.98 4 3 C3.34 3 2.68 3 2 3 C1.67 3.66 1.34 4.32 1 5 C-1.64 5 -4.28 5 -7 5 C-6.67 3.68 -6.34 2.36 -6 1 C-6 1.99 -6 2.98 -6 4 C-4.35 4 -2.7 4 -1 4 C-0.67 2.68 -0.34 1.36 0 0 Z " fill="#0A4D60" transform="translate(23,37)"/>
<path d="M0 0 C0.33 0 0.66 0 1 0 C1.33 3.63 1.66 7.26 2 11 C1.01 11 0.02 11 -1 11 C-1.14285714 3.57142857 -1.14285714 3.57142857 0 0 Z " fill="#045062" transform="translate(25,20)"/>
<path d="M0 0 C0.99 0 1.98 0 3 0 C3.25 2.3125 3.25 2.3125 3 5 C1 6.8125 1 6.8125 -1 8 C-2 6 -2 6 -1.0625 2.875 C-0.5365625 1.451875 -0.5365625 1.451875 0 0 Z " fill="#023D53" transform="translate(69,33)"/>
<path d="M0 0 C0.66 0.33 1.32 0.66 2 1 C2 2.32 2 3.64 2 5 C0.35 5.33 -1.3 5.66 -3 6 C-2.42655063 3.13275314 -2.1385485 2.1385485 0 0 Z " fill="#2899A8" transform="translate(67,14)"/>
<path d="M0 0 C2.33944736 0.28730055 4.6739143 0.61936779 7 1 C7 1.66 7 2.32 7 3 C4.69 3 2.38 3 0 3 C0 3.99 0 4.98 0 6 C-0.66 6 -1.32 6 -2 6 C-1.125 1.125 -1.125 1.125 0 0 Z " fill="#2795A0" transform="translate(83,34)"/>
<path d="M0 0 C2 2 2 2 2.125 5.625 C2.08375 6.73875 2.0425 7.8525 2 9 C1.01 9.33 0.02 9.66 -1 10 C-0.67 6.7 -0.34 3.4 0 0 Z " fill="#2096A1" transform="translate(18,27)"/>
<path d="M0 0 C0.33 0.66 0.66 1.32 1 2 C0.34 2 -0.32 2 -1 2 C-0.67 3.32 -0.34 4.64 0 6 C-1.32 5.67 -2.64 5.34 -4 5 C-4 4.01 -4 3.02 -4 2 C-2.68 1.34 -1.36 0.68 0 0 Z " fill="#19374A" transform="translate(112,33)"/>
<path d="M0 0 C2.31 0.66 4.62 1.32 7 2 C7 2.33 7 2.66 7 3 C4.69 3 2.38 3 0 3 C-0.33 3.99 -0.66 4.98 -1 6 C-1.33 5.34 -1.66 4.68 -2 4 C-1.0625 1.875 -1.0625 1.875 0 0 Z " fill="#2A96A3" transform="translate(37,34)"/>
</svg>
