<?xml version="1.0" encoding="UTF-8"?>
<svg version="1.1" xmlns="http://www.w3.org/2000/svg" width="32" height="20">
<path d="M0 0 C1.62463842 -0.05395478 3.24978541 -0.09277195 4.875 -0.125 C5.77992188 -0.14820312 6.68484375 -0.17140625 7.6171875 -0.1953125 C10 0 10 0 12 2 C12.33 1.34 12.66 0.68 13 0 C13.99 0 14.98 0 16 0 C16.33 0.99 16.66 1.98 17 3 C17.33 2.01 17.66 1.02 18 0 C21.3 0 24.6 0 28 0 C27.67 0.99 27.34 1.98 27 3 C27.33 3.33 27.66 3.66 28 4 C28.625 6.5 28.625 6.5 29 9 C28 10 28 10 24.4375 10.0625 C23.303125 10.041875 22.16875 10.02125 21 10 C21.33 9.01 21.66 8.02 22 7 C22.99 7 23.98 7 25 7 C24.01 6.67 23.02 6.34 22 6 C22 5.34 22 4.68 22 4 C21.34 4 20.68 4 20 4 C19.67 5.98 19.34 7.96 19 10 C18.2575 9.814375 17.515 9.62875 16.75 9.4375 C14.05009037 9.00796892 12.55368923 9.14877026 10 10 C9.67 9.01 9.34 8.02 9 7 C8.67 7.99 8.34 8.98 8 10 C5.36 10 2.72 10 0 10 C-0.33 8.35 -0.66 6.7 -1 5 C0.65 4.34 2.3 3.68 4 3 C2.68 3 1.36 3 0 3 C0 2.01 0 1.02 0 0 Z M2 6 C2 6.66 2 7.32 2 8 C2.99 7.67 3.98 7.34 5 7 C4.01 6.67 3.02 6.34 2 6 Z " fill="#242E3D" transform="translate(2,0)"/>
<path d="M0 0 C-0.33 1.98 -0.66 3.96 -1 6 C-1.99 5.67 -2.98 5.34 -4 5 C-4.721875 5.28875 -5.44375 5.5775 -6.1875 5.875 C-12.96652143 8.58660857 -19.18781701 8.37109132 -26 6 C-28.30881586 4.83848073 -29.97955048 3.65780473 -32 2 C-32 1.34 -32 0.68 -32 0 C-31.42894531 0.2165625 -30.85789062 0.433125 -30.26953125 0.65625 C-23.3036662 3.04834356 -16.34604081 4.05090626 -9 3 C-7.29507717 1.6027614 -7.29507717 1.6027614 -6 0 C-3 -1 -3 -1 0 0 Z " fill="#FF9900" transform="translate(32,12)"/>
</svg>
