<?xml version="1.0" encoding="UTF-8"?>
<svg version="1.1" xmlns="http://www.w3.org/2000/svg" width="200" height="200">
<path d="M0 0 C66 0 132 0 200 0 C200 66 200 132 200 200 C134 200 68 200 0 200 C0 134 0 68 0 0 Z " fill="#FDFEFE" transform="translate(0,0)"/>
<path d="M0 0 C3.2333624 1.70526647 6.10803566 3.77226775 9 6 C10.36318359 6.86625 10.36318359 6.86625 11.75390625 7.75 C14 10 14 10 14.48828125 13.453125 C14.40126953 15.33257812 14.40126953 15.33257812 14.3125 17.25 C14.26738281 18.51328125 14.22226562 19.7765625 14.17578125 21.078125 C14.08876953 22.52445313 14.08876953 22.52445313 14 24 C14.66 24 15.32 24 16 24 C16.03758423 23.09906616 16.03758423 23.09906616 16.07592773 22.17993164 C16.1915528 19.47388563 16.31442936 16.76821717 16.4375 14.0625 C16.47681641 13.11697266 16.51613281 12.17144531 16.55664062 11.19726562 C16.61948242 9.84858398 16.61948242 9.84858398 16.68359375 8.47265625 C16.72025146 7.64000244 16.75690918 6.80734863 16.79467773 5.94946289 C17 4 17 4 18 3 C22.33979951 2.729973 26.68600004 2.72841823 31.03320312 2.70483398 C32.48968319 2.69344521 33.94612604 2.67320794 35.40234375 2.64331055 C45.35624677 2.43898157 53.55727595 3.47886046 63 7 C64.99818004 7.67210192 66.99769375 8.34029239 69 9 C69 9.66 69 10.32 69 11 C69.99 10.67 70.98 10.34 72 10 C72.99 12.97 72.99 12.97 74 16 C74.99 16 75.98 16 77 16 C79.08563324 26.16746206 80.38992239 36.77113216 78 47 C77.34 47 76.68 47 76 47 C75.896875 47.639375 75.79375 48.27875 75.6875 48.9375 C75.460625 49.618125 75.23375 50.29875 75 51 C73.515 51.495 73.515 51.495 72 52 C72 52.66 72 53.32 72 54 C69.8828125 55.7265625 69.8828125 55.7265625 67.125 57.625 C66.22007813 58.25664063 65.31515625 58.88828125 64.3828125 59.5390625 C62 61 62 61 60 61 C60 61.99 60 62.98 60 64 C58 65 58 65 50 65 C49.67 70.61 49.34 76.22 49 82 C25.57074661 83.00521549 2.44898092 82.80243661 -21 82 C-21 67.15 -21 52.3 -21 37 C-15.06 36.505 -15.06 36.505 -9 36 C-10.299375 35.4740625 -10.299375 35.4740625 -11.625 34.9375 C-16.00582891 32.4225797 -19.98070315 28.98551444 -21.66015625 24.06640625 C-22.03237013 21.80317472 -22.13267013 19.66836787 -22.125 17.375 C-22.12757812 16.59898438 -22.13015625 15.82296875 -22.1328125 15.0234375 C-22 13 -22 13 -21 11 C-19.02 11 -17.04 11 -15 11 C-15 14 -15 14 -16.5 15.6875 C-16.995 16.120625 -17.49 16.55375 -18 17 C-15.8125 14.9375 -15.8125 14.9375 -13 13 C-10.1875 13.25 -10.1875 13.25 -8 14 C-8 13.67 -8 13.34 -8 13 C-7.67449498 11.33178677 -7.34153937 9.66500443 -7 8 C-6.01 7.67 -5.02 7.34 -4 7 C-4 6.34 -4 5.68 -4 5 C-4.61875 5.495 -5.2375 5.99 -5.875 6.5 C-8 8 -8 8 -10 8 C-10.1875 5.125 -10.1875 5.125 -10 2 C-6.15543246 -0.56304503 -4.5779655 -0.59070523 0 0 Z " fill="#DDF2F3" transform="translate(39,24)"/>
<path d="M0 0 C0.99 0.33 1.98 0.66 3 1 C3.87890625 3.21484375 3.87890625 3.21484375 4.5625 5.9375 C5.50780455 9.88781528 5.50780455 9.88781528 8 13 C8.33 9.37 8.66 5.74 9 2 C9.99 2 10.98 2 12 2 C12 6.62 12 11.24 12 16 C13.65 16 15.3 16 17 16 C16.505 18.475 16.505 18.475 16 21 C17.32 21 18.64 21 20 21 C20 21.66 20 22.32 20 23 C20.66 23 21.32 23 22 23 C23.20568053 27.67201205 23.09382426 32.21496292 23 37 C23.66 37.33 24.32 37.66 25 38 C25 33.38 25 28.76 25 24 C26.65 24 28.3 24 30 24 C30.28875 25.134375 30.5775 26.26875 30.875 27.4375 C31.24625 28.613125 31.6175 29.78875 32 31 C32.66 31.33 33.32 31.66 34 32 C34.2165625 30.8553125 34.2165625 30.8553125 34.4375 29.6875 C35 27 35 27 36 24 C37.98 24 39.96 24 42 24 C42.67031719 25.9570868 43.33614683 27.91571113 44 29.875 C44.37125 30.96554688 44.7425 32.05609375 45.125 33.1796875 C46 36 46 36 46 38 C44.68 38 43.36 38 42 38 C42 37.34 42 36.68 42 36 C40.02 36 38.04 36 36 36 C36.33 36.99 36.66 37.98 37 39 C36.67 39.99 36.34 40.98 36 42 C36.99 42 37.98 42 39 42 C39 43.32 39 44.64 39 46 C38.01 46.495 38.01 46.495 37 47 C37.66 47.33 38.32 47.66 39 48 C38.67 49.65 38.34 51.3 38 53 C35.625 53.125 35.625 53.125 33 53 C32.34 52.34 31.68 51.68 31 51 C30.505 51.99 30.505 51.99 30 53 C28.02 52.505 28.02 52.505 26 52 C25.5359375 53.2065625 25.5359375 53.2065625 25.0625 54.4375 C24 57 24 57 23 58 C23.66 58.33 24.32 58.66 25 59 C24.67 60.32 24.34 61.64 24 63 C18.46153846 63.36923077 18.46153846 63.36923077 16.125 61.5 C15.75375 61.005 15.3825 60.51 15 60 C14.67 60.99 14.34 61.98 14 63 C12.68 63 11.36 63 10 63 C7.63639086 63.2582094 5.28277304 63.56644089 2.92578125 63.87890625 C1.97251953 63.93884766 1.97251953 63.93884766 1 64 C0 63 0 63 -0.0625 59.4375 C-0.041875 58.303125 -0.02125 57.16875 0 56 C-0.66 56 -1.32 56 -2 56 C-2 58.31 -2 60.62 -2 63 C-3.32 63.33 -4.64 63.66 -6 64 C-6 63.01 -6 62.02 -6 61 C-7.32 61 -8.64 61 -10 61 C-10 61.66 -10 62.32 -10 63 C-13.63 63.33 -17.26 63.66 -21 64 C-20.90234375 61.72135417 -20.8046875 59.44270833 -20.70703125 57.1640625 C-20.80371094 56.44992188 -20.90039062 55.73578125 -21 55 C-21.99 54.34 -22.98 53.68 -24 53 C-24.7081094 50.00539996 -24.77981128 47.08264211 -25 44 C-22.03 44 -19.06 44 -16 44 C-15 48 -15 48 -16 51 C-15.34 51 -14.68 51 -14 51 C-13.34 49.02 -12.68 47.04 -12 45 C-10.515 46.485 -10.515 46.485 -9 48 C-8.67 46.68 -8.34 45.36 -8 44 C-9.98 43.505 -9.98 43.505 -12 43 C-11.67 41.68 -11.34 40.36 -11 39 C-12.65 38.67 -14.3 38.34 -16 38 C-16 31.73 -16 25.46 -16 19 C-18.33075929 19.95865509 -18.33075929 19.95865509 -20 23 C-20 22.34 -20 21.68 -20 21 C-20.66 21 -21.32 21 -22 21 C-21.79375 21.598125 -21.5875 22.19625 -21.375 22.8125 C-21 25 -21 25 -23 28 C-23.66 27.67 -24.32 27.34 -25 27 C-25.66 30.63 -26.32 34.26 -27 38 C-27.66 38 -28.32 38 -29 38 C-29.18175781 36.95199219 -29.18175781 36.95199219 -29.3671875 35.8828125 C-29.61855469 34.51769531 -29.61855469 34.51769531 -29.875 33.125 C-30.03742188 32.22007812 -30.19984375 31.31515625 -30.3671875 30.3828125 C-30.83044703 27.83494012 -30.83044703 27.83494012 -33 26 C-34.98 25.67 -36.96 25.34 -39 25 C-39 29.29 -39 33.58 -39 38 C-39.66 38 -40.32 38 -41 38 C-41 33.71 -41 29.42 -41 25 C-42.65 25.33 -44.3 25.66 -46 26 C-46 26.99 -46 27.98 -46 29 C-47.5 30.6875 -47.5 30.6875 -49 32 C-47.68 33.98 -46.36 35.96 -45 38 C-45.99 38 -46.98 38 -48 38 C-50.1875 35 -50.1875 35 -52 32 C-52.33 33.98 -52.66 35.96 -53 38 C-53.66 38 -54.32 38 -55 38 C-55.33 34.04 -55.66 30.08 -56 26 C-58.64 25.67 -61.28 25.34 -64 25 C-64 25.99 -64 26.98 -64 28 C-62.02 28 -60.04 28 -58 28 C-58.33 28.99 -58.66 29.98 -59 31 C-60.65 31 -62.3 31 -64 31 C-64 32.65 -64 34.3 -64 36 C-62.02 36 -60.04 36 -58 36 C-58 36.66 -58 37.32 -58 38 C-60.97 38 -63.94 38 -67 38 C-67.02690104 35.20826945 -67.04679053 32.41679652 -67.0625 29.625 C-67.07087891 28.8309375 -67.07925781 28.036875 -67.08789062 27.21875 C-67.11328125 21.2265625 -67.11328125 21.2265625 -66 19 C-68.97 18.67 -71.94 18.34 -75 18 C-75 12.72 -75 7.44 -75 2 C-74.34 2 -73.68 2 -73 2 C-72.1276588 4.99480917 -71.89170234 7.63575911 -71.9375 10.75 C-71.94652344 11.54921875 -71.95554687 12.3484375 -71.96484375 13.171875 C-71.98224609 14.07679687 -71.98224609 14.07679687 -72 15 C-71.01 15 -70.02 15 -69 15 C-69 14.34 -69 13.68 -69 13 C-68.01 13 -67.02 13 -66 13 C-66 9.37 -66 5.74 -66 2 C-65.01 2 -64.02 2 -63 2 C-63 6.29 -63 10.58 -63 15 C-61.68 15 -60.36 15 -59 15 C-58.34 10.71 -57.68 6.42 -57 2 C-55.86820313 2.01160156 -54.73640625 2.02320312 -53.5703125 2.03515625 C-52.08854331 2.04453454 -50.60677235 2.0536347 -49.125 2.0625 C-48.37863281 2.07087891 -47.63226563 2.07925781 -46.86328125 2.08789062 C-42.80154422 2.20688084 -42.80154422 2.20688084 -39 1 C-37.25742019 0.98380773 -35.51396573 1.03502367 -33.7734375 1.12109375 C-32.7421875 1.16943359 -31.7109375 1.21777344 -30.6484375 1.26757812 C-29.02808594 1.35168945 -29.02808594 1.35168945 -27.375 1.4375 C-26.28703125 1.48970703 -25.1990625 1.54191406 -24.078125 1.59570312 C-21.38517866 1.72562597 -18.69255435 1.8621921 -16 2 C-15.505 8.435 -15.505 8.435 -15 15 C-13.35 15 -11.7 15 -10 15 C-9.505 8.565 -9.505 8.565 -9 2 C-8.01 2 -7.02 2 -6 2 C-6 4.64 -6 7.28 -6 10 C-3.3986642 8.6993321 -3.35811992 7.69919978 -2.4375 5 C-1.08991826 1.08991826 -1.08991826 1.08991826 0 0 Z " fill="#F6FCFC" transform="translate(137,112)"/>
<path d="M0 0 C3.05001069 -0.28773686 5.96209394 -0.45487363 9 0 C10.875 2.4375 10.875 2.4375 12 5 C12.99 5.33 13.98 5.66 15 6 C15 4.68 15 3.36 15 2 C15.99 2 16.98 2 18 2 C18 6.95 18 11.9 18 17 C17.01 17.33 16.02 17.66 15 18 C15.33 18.99 15.66 19.98 16 21 C16.99 21.33 17.98 21.66 19 22 C19.25 28.625 19.25 28.625 17 32 C17.33 31.67 17.66 31.34 18 31 C18.721875 30.29875 19.44375 29.5975 20.1875 28.875 C23.32055865 25.75110234 26.15875137 22.38801813 29 19 C29.99 19.33 30.98 19.66 32 20 C32 14.72 32 9.44 32 4 C30.02 4 28.04 4 26 4 C26 8.62 26 13.24 26 18 C25.34 18 24.68 18 24 18 C24 13.38 24 8.76 24 4 C22.68 4 21.36 4 20 4 C20 3.34 20 2.68 20 2 C23.38024668 -0.042739 26.01835066 -0.26976872 29.9375 -0.25 C30.95714844 -0.25515625 31.97679687 -0.2603125 33.02734375 -0.265625 C36.05332204 0.00476465 38.25825647 0.72758864 41 2 C41 2.66 41 3.32 41 4 C39.02 4 37.04 4 35 4 C35 5.32 35 6.64 35 8 C36.98 8 38.96 8 41 8 C41 8.66 41 9.32 41 10 C39.02 10 37.04 10 35 10 C35 11.65 35 13.3 35 15 C36.98 15 38.96 15 41 15 C41.495 16.98 41.495 16.98 42 19 C41.34 19 40.68 19 40 19 C40.495 19.99 40.495 19.99 41 21 C42.7015625 21.2165625 42.7015625 21.2165625 44.4375 21.4375 C45.613125 21.623125 46.78875 21.80875 48 22 C50 25 50 25 49.6875 27.5625 C49 30 49 30 48 32 C46.68 32 45.36 32 44 32 C44 39.26 44 46.52 44 54 C44.66 53.67 45.32 53.34 46 53 C46 50.03 46 47.06 46 44 C49.12522772 43.94621979 52.2495371 43.90643425 55.375 43.875 C56.26445313 43.85824219 57.15390625 43.84148437 58.0703125 43.82421875 C59.34648438 43.81455078 59.34648438 43.81455078 60.6484375 43.8046875 C61.82672119 43.78897705 61.82672119 43.78897705 63.02880859 43.77294922 C65 44 65 44 67 46 C67.495 45.01 67.495 45.01 68 44 C71.85452676 43.77974133 74.50889056 44.35142054 78 46 C78.33 46.33 78.66 46.66 79 47 C79.66 46.01 80.32 45.02 81 44 C83.625 43.8125 83.625 43.8125 86 44 C87.10844919 47.32534757 86.84454356 49.62182575 86 53 C85.34 53 84.68 53 84 53 C84.99 54.65 85.98 56.3 87 58 C87.33 57.01 87.66 56.02 88 55 C88.66 55 89.32 55 90 55 C90 57.64 90 60.28 90 63 C89.34 63 88.68 63 88 63 C87.34 62.01 86.68 61.02 86 60 C85.67 60.99 85.34 61.98 85 63 C83.35 63 81.7 63 80 63 C80.02320312 62.24074219 80.04640625 61.48148438 80.0703125 60.69921875 C80.08835937 59.70535156 80.10640625 58.71148437 80.125 57.6875 C80.14820312 56.70136719 80.17140625 55.71523437 80.1953125 54.69921875 C80.20682639 51.77593473 80.20682639 51.77593473 78 49 C77.67 49.99 77.34 50.98 77 52 C75.52093108 52.02689216 74.04172517 52.04634621 72.5625 52.0625 C71.73878906 52.07410156 70.91507812 52.08570313 70.06640625 52.09765625 C68 52 68 52 67 51 C66.67 52.98 66.34 54.96 66 57 C64.35 57.33 62.7 57.66 61 58 C61.33 58.99 61.66 59.98 62 61 C63.65 61 65.3 61 67 61 C67.99 58.03 67.99 58.03 69 55 C71 57 71 57 72 60 C72.33 58.35 72.66 56.7 73 55 C73.66 55 74.32 55 75 55 C75 57.31 75 59.62 75 62 C75.66 62.33 76.32 62.66 77 63 C75.02 63 73.04 63 71 63 C71 62.34 71 61.68 71 61 C70.01 61 69.02 61 68 61 C68 61.66 68 62.32 68 63 C63.38 63.33 58.76 63.66 54 64 C54 62.35 54 60.7 54 59 C53.01 59 52.02 59 51 59 C51 60.32 51 61.64 51 63 C50.34 63 49.68 63 49 63 C48.505 61.02 48.505 61.02 48 59 C47.01 59.33 46.02 59.66 45 60 C45 60.99 45 61.98 45 63 C44.01 63 43.02 63 42 63 C42 62.34 42 61.68 42 61 C38.88214887 61.64644661 38.88214887 61.64644661 38 64 C36.06318839 64.08107583 34.1254066 64.13922475 32.1875 64.1875 C31.10855469 64.22230469 30.02960937 64.25710937 28.91796875 64.29296875 C26 64 26 64 24.11328125 62.48828125 C23.74589844 61.99714844 23.37851562 61.50601563 23 61 C22.34 61.66 21.68 62.32 21 63 C19.06054687 63.25878906 19.06054687 63.25878906 16.71875 63.265625 C15.87699219 63.26820313 15.03523438 63.27078125 14.16796875 63.2734375 C13.28753906 63.26570313 12.40710937 63.25796875 11.5 63.25 C10.61957031 63.25773437 9.73914062 63.26546875 8.83203125 63.2734375 C7.99027344 63.27085937 7.14851563 63.26828125 6.28125 63.265625 C5.50845703 63.26336914 4.73566406 63.26111328 3.93945312 63.25878906 C2 63 2 63 0 61 C-0.14517744 58.0906442 -0.18630796 55.280054 -0.125 52.375 C-0.11597656 51.57320312 -0.10695313 50.77140625 -0.09765625 49.9453125 C-0.07406223 47.96341477 -0.03819065 45.98167019 0 44 C0.91523438 43.97421875 1.83046875 43.9484375 2.7734375 43.921875 C3.96195313 43.86515625 5.15046875 43.8084375 6.375 43.75 C7.55835938 43.70359375 8.74171875 43.6571875 9.9609375 43.609375 C13.11291753 43.34351201 13.11291753 43.34351201 14.4140625 40.953125 C14.60742188 40.30859375 14.80078125 39.6640625 15 39 C15.99 39 16.98 39 18 39 C16.68 37.02 15.36 35.04 14 33 C13.505 35.475 13.505 35.475 13 38 C12.01 38 11.02 38 10 38 C10 33.38 10 28.76 10 24 C9.34 24 8.68 24 8 24 C8 26.31 8 28.62 8 31 C6.125 32.0625 6.125 32.0625 4 33 C3.34 32.67 2.68 32.34 2 32 C2 33.98 2 35.96 2 38 C1.01 38 0.02 38 -1 38 C-1.33 32.39 -1.66 26.78 -2 21 C3 18 3 18 5 17 C4.67 12.38 4.34 7.76 4 3 C3.67 3 3.34 3 3 3 C2.67 7.95 2.34 12.9 2 18 C1.01 17.67 0.02 17.34 -1 17 C-1.02691685 14.54159395 -1.04679802 12.08348118 -1.0625 9.625 C-1.07087891 8.92632812 -1.07925781 8.22765625 -1.08789062 7.5078125 C-1.11328125 2.2265625 -1.11328125 2.2265625 0 0 Z " fill="#EAF5F6" transform="translate(18,112)"/>
<path d="M0 0 C4.32038043 -0.09285594 8.63717251 -0.17215868 12.95776367 -0.21972656 C14.42110042 -0.23959449 15.88436049 -0.26669882 17.34741211 -0.30175781 C27.33274122 -0.53469173 35.52514108 0.45680859 45 4 C46.99812147 4.67227601 48.99762048 5.34051481 51 6 C51 6.66 51 7.32 51 8 C51.99 7.67 52.98 7.34 54 7 C54.66 8.98 55.32 10.96 56 13 C56.99 13 57.98 13 59 13 C60 18 60 18 60 29 C51.09 29 42.18 29 33 29 C32.505 26.03 32.505 26.03 32 23 C31.67 25.31 31.34 27.62 31 30 C20.77 30 10.54 30 0 30 C0 20.1 0 10.2 0 0 Z " fill="#B5CED0" transform="translate(57,27)"/>
<path d="M0 0 C11.55 0 23.1 0 35 0 C35 14.52 35 29.04 35 44 C23.45 44 11.9 44 0 44 C0 29.48 0 14.96 0 0 Z " fill="#1E4C5B" transform="translate(18,62)"/>
<path d="M0 0 C1.98 0 3.96 0 6 0 C6.33 1.32 6.66 2.64 7 4 C10.96 4.33 14.92 4.66 19 5 C18.67 5.99 18.34 6.98 18 8 C19.32 8 20.64 8 22 8 C22 8.66 22 9.32 22 10 C22.66 10 23.32 10 24 10 C25.20568053 14.67201205 25.09382426 19.21496292 25 24 C25.66 24.33 26.32 24.66 27 25 C27 20.38 27 15.76 27 11 C28.65 11 30.3 11 32 11 C32.28875 12.134375 32.5775 13.26875 32.875 14.4375 C33.24625 15.613125 33.6175 16.78875 34 18 C34.66 18.33 35.32 18.66 36 19 C36.144375 18.236875 36.28875 17.47375 36.4375 16.6875 C37 14 37 14 38 11 C39.98 11 41.96 11 44 11 C44.67031719 12.9570868 45.33614683 14.91571113 46 16.875 C46.37125 17.96554688 46.7425 19.05609375 47.125 20.1796875 C48 23 48 23 48 25 C46.68 25 45.36 25 44 25 C44 24.34 44 23.68 44 23 C42.02 23 40.04 23 38 23 C38.495 24.485 38.495 24.485 39 26 C38.505 27.485 38.505 27.485 38 29 C38.99 29 39.98 29 41 29 C41 30.32 41 31.64 41 33 C40.01 33.495 40.01 33.495 39 34 C39.99 34.495 39.99 34.495 41 35 C40.67 36.65 40.34 38.3 40 40 C37.625 40.125 37.625 40.125 35 40 C34.34 39.34 33.68 38.68 33 38 C32.505 38.99 32.505 38.99 32 40 C30.68 39.67 29.36 39.34 28 39 C27.690625 39.804375 27.38125 40.60875 27.0625 41.4375 C26 44 26 44 25 45 C25.66 45.33 26.32 45.66 27 46 C26.67 47.32 26.34 48.64 26 50 C20.46153846 50.36923077 20.46153846 50.36923077 18.125 48.5 C17.75375 48.005 17.3825 47.51 17 47 C16.67 47.99 16.34 48.98 16 50 C14.68 50 13.36 50 12 50 C10.41471795 50.14697979 8.8311763 50.31397926 7.25 50.5 C5.14625 50.7475 5.14625 50.7475 3 51 C3 47.37 3 43.74 3 40 C3.99 40 4.98 40 6 40 C6 39.34 6 38.68 6 38 C5.01 38 4.02 38 3 38 C3 37.34 3 36.68 3 36 C3.99 36 4.98 36 6 36 C6 35.34 6 34.68 6 34 C5.01 33.67 4.02 33.34 3 33 C3.99 33 4.98 33 6 33 C6 32.34 6 31.68 6 31 C4.35 31 2.7 31 1 31 C0.67 31.66 0.34 32.32 0 33 C-1.98 32.01 -3.96 31.02 -6 30 C-6 28.68 -6 27.36 -6 26 C-4.68 26 -3.36 26 -2 26 C-2 23.03 -2 20.06 -2 17 C0.33524782 19.25740623 2.18705073 21.2805761 4 24 C5.32 24.33 6.64 24.66 8 25 C8 20.38 8 15.76 8 11 C6.68 11 5.36 11 4 11 C4 13.31 4 15.62 4 18 C1 16 1 16 0.3125 13.375 C0.209375 12.59125 0.10625 11.8075 0 11 C-1.32 10.67 -2.64 10.34 -4 10 C-4 9.01 -4 8.02 -4 7 C-3.01 6.34 -2.02 5.68 -1 5 C-0.27034634 2.43717258 -0.27034634 2.43717258 0 0 Z " fill="#E0EEEF" transform="translate(135,125)"/>
<path d="M0 0 C9.9 0 19.8 0 30 0 C30 2.64 30 5.28 30 8 C29.16597656 8.09796875 28.33195312 8.1959375 27.47265625 8.296875 C20.54827287 9.21695343 14.02197649 10.25818937 8 14 C7.67 14.66 7.34 15.32 7 16 C7.66386719 15.72285156 8.32773438 15.44570312 9.01171875 15.16015625 C9.89472656 14.79792969 10.77773437 14.43570313 11.6875 14.0625 C12.55761719 13.70285156 13.42773438 13.34320313 14.32421875 12.97265625 C19.91092531 10.94186803 23.77522091 11 30 11 C30 22.88 30 34.76 30 47 C20.1 47 10.2 47 0 47 C0 31.49 0 15.98 0 0 Z " fill="#204F5C" transform="translate(57,59)"/>
<path d="M0 0 C0.99 0.33 1.98 0.66 3 1 C3.87890625 3.21484375 3.87890625 3.21484375 4.5625 5.9375 C5.50780455 9.88781528 5.50780455 9.88781528 8 13 C8.33 9.37 8.66 5.74 9 2 C9.99 2 10.98 2 12 2 C12 6.62 12 11.24 12 16 C13.65 16 15.3 16 17 16 C17 16.66 17 17.32 17 18 C13.04 18 9.08 18 5 18 C4.505 15.525 4.505 15.525 4 13 C2.02 13 0.04 13 -2 13 C-2 14.98 -2 16.96 -2 19 C-3.32 19.33 -4.64 19.66 -6 20 C-6 20.99 -6 21.98 -6 23 C-4.35 23.33 -2.7 23.66 -1 24 C-0.34 25.98 0.32 27.96 1 30 C1.33 28.02 1.66 26.04 2 24 C3.32 24 4.64 24 6 24 C6 28.62 6 33.24 6 38 C1 37 1 37 -1.3125 33.9375 C-1.869375 32.968125 -2.42625 31.99875 -3 31 C-3.33 33.64 -3.66 36.28 -4 39 C-5.32 39 -6.64 39 -8 39 C-7.88693303 40.95894361 -7.88693303 40.95894361 -7 43 C-4.50965614 44.29660434 -4.50965614 44.29660434 -2 45 C-1.67 44.67 -1.34 44.34 -1 44 C0.66617115 43.95936168 2.33388095 43.957279 4 44 C4 45.65 4 47.3 4 49 C3.01 49 2.02 49 1 49 C1 49.66 1 50.32 1 51 C1.99 51 2.98 51 4 51 C4 51.66 4 52.32 4 53 C3.01 53.495 3.01 53.495 2 54 C2 56.97 2 59.94 2 63 C1.34 63 0.68 63 0 63 C0 60.69 0 58.38 0 56 C-0.66 56 -1.32 56 -2 56 C-2 58.31 -2 60.62 -2 63 C-3.98 63.495 -3.98 63.495 -6 64 C-6 63.01 -6 62.02 -6 61 C-7.32 61 -8.64 61 -10 61 C-10 61.66 -10 62.32 -10 63 C-15.445 63.495 -15.445 63.495 -21 64 C-20.90234375 61.72135417 -20.8046875 59.44270833 -20.70703125 57.1640625 C-20.80371094 56.44992188 -20.90039062 55.73578125 -21 55 C-21.99 54.34 -22.98 53.68 -24 53 C-24.7081094 50.00539996 -24.77981128 47.08264211 -25 44 C-22.03 44 -19.06 44 -16 44 C-15 48 -15 48 -16 51 C-15.34 51 -14.68 51 -14 51 C-13.34 49.02 -12.68 47.04 -12 45 C-11.01 45.99 -10.02 46.98 -9 48 C-8.67 46.68 -8.34 45.36 -8 44 C-9.32 43.67 -10.64 43.34 -12 43 C-11.67 41.68 -11.34 40.36 -11 39 C-12.65 38.67 -14.3 38.34 -16 38 C-15.98428955 37.06148193 -15.98428955 37.06148193 -15.96826172 36.10400391 C-15.92676809 33.2777099 -15.90069527 30.45147989 -15.875 27.625 C-15.85824219 26.64015625 -15.84148437 25.6553125 -15.82421875 24.640625 C-15.81777344 23.69960937 -15.81132813 22.75859375 -15.8046875 21.7890625 C-15.78897705 20.48509521 -15.78897705 20.48509521 -15.77294922 19.15478516 C-15.79404891 16.78654061 -15.79404891 16.78654061 -18 15 C-18.1953125 11.9609375 -18.1953125 11.9609375 -18.125 8.375 C-18.10695313 7.18648438 -18.08890625 5.99796875 -18.0703125 4.7734375 C-18.04710938 3.85820313 -18.02390625 2.94296875 -18 2 C-17.34 2 -16.68 2 -16 2 C-15.67 6.29 -15.34 10.58 -15 15 C-13.35 15 -11.7 15 -10 15 C-9.67 10.71 -9.34 6.42 -9 2 C-8.01 2 -7.02 2 -6 2 C-6 4.64 -6 7.28 -6 10 C-3.3986642 8.6993321 -3.35811992 7.69919978 -2.4375 5 C-1.08991826 1.08991826 -1.08991826 1.08991826 0 0 Z " fill="#94ABAC" transform="translate(137,112)"/>
<path d="M0 0 C5.56802319 2.7229793 10.52956959 6.19985903 13 12 C13.73028778 17.58093607 13.80271539 22.30194822 11.375 27.4375 C3.67050913 35.75024015 3.67050913 35.75024015 -1.171875 36.203125 C-6.55629017 36.30102346 -10.45372771 36.20305548 -15 33 C-19.22000671 28.88921699 -21.78462803 25.71199928 -22.1328125 19.7109375 C-22.13023438 18.94007812 -22.12765625 18.16921875 -22.125 17.375 C-22.12757812 16.59898438 -22.13015625 15.82296875 -22.1328125 15.0234375 C-22 13 -22 13 -21 11 C-19.02 11 -17.04 11 -15 11 C-15 14 -15 14 -16.5 15.6875 C-16.995 16.120625 -17.49 16.55375 -18 17 C-15.8125 14.9375 -15.8125 14.9375 -13 13 C-10.1875 13.25 -10.1875 13.25 -8 14 C-8 13.67 -8 13.34 -8 13 C-7.67449498 11.33178677 -7.34153937 9.66500443 -7 8 C-6.01 7.67 -5.02 7.34 -4 7 C-4 6.34 -4 5.68 -4 5 C-4.61875 5.495 -5.2375 5.99 -5.875 6.5 C-8 8 -8 8 -10 8 C-10.1875 5.125 -10.1875 5.125 -10 2 C-6.15543246 -0.56304503 -4.5779655 -0.59070523 0 0 Z " fill="#2E555D" transform="translate(39,24)"/>
<path d="M0 0 C1.14982602 4.09003859 1.11094256 8.03177051 1.0625 12.25 C1.05798828 12.99507812 1.05347656 13.74015625 1.04882812 14.5078125 C1.03709246 16.3385764 1.0191585 18.16929873 1 20 C2.32 20.33 3.64 20.66 5 21 C5 22.32 5 23.64 5 25 C5.99 25.33 6.98 25.66 8 26 C8 27.98 8 29.96 8 32 C6.68 30.68 5.36 29.36 4 28 C3.34 29.65 2.68 31.3 2 33 C1.34 33 0.68 33 0 33 C0 31.02 0 29.04 0 27 C-2.97 26.67 -5.94 26.34 -9 26 C-8.67 26.66 -8.34 27.32 -8 28 C-7.95977609 30.3329866 -7.95679753 32.66706666 -8 35 C-6.68 35.66 -5.36 36.32 -4 37 C-5.875 43.875 -5.875 43.875 -7 45 C-8.99958364 45.04080783 -11.00045254 45.04254356 -13 45 C-13 42.36 -13 39.72 -13 37 C-13.66 37 -14.32 37 -15 37 C-15.33 38.32 -15.66 39.64 -16 41 C-19 37.25 -19 37.25 -19 35 C-18.01 34.505 -18.01 34.505 -17 34 C-17 32.68 -17 31.36 -17 30 C-17.66 29.34 -18.32 28.68 -19 28 C-18.34 27.67 -17.68 27.34 -17 27 C-19.41619823 26.74969023 -19.41619823 26.74969023 -22 27 C-22.66 27.99 -23.32 28.98 -24 30 C-24.7734375 29.566875 -24.7734375 29.566875 -25.5625 29.125 C-28.62356725 27.71219973 -31.74944918 26.8751483 -35 26 C-35.33 26.99 -35.66 27.98 -36 29 C-36.66 27.68 -37.32 26.36 -38 25 C-37.484375 24.608125 -36.96875 24.21625 -36.4375 23.8125 C-34.70689612 22.06357966 -34.70689612 22.06357966 -35.25 19.5625 C-35.4975 18.716875 -35.745 17.87125 -36 17 C-36.185625 16.236875 -36.37125 15.47375 -36.5625 14.6875 C-36.706875 14.130625 -36.85125 13.57375 -37 13 C-35.29115995 14.62339805 -33.62553283 16.29319053 -32 18 C-32 18.66 -32 19.32 -32 20 C-31.34 19.67 -30.68 19.34 -30 19 C-31.32 17.35 -32.64 15.7 -34 14 C-33.34 13.01 -32.68 12.02 -32 11 C-31.34 11 -30.68 11 -30 11 C-30 10.01 -30 9.02 -30 8 C-28.35 7.67 -26.7 7.34 -25 7 C-25 11.29 -25 15.58 -25 20 C-24.34 20 -23.68 20 -23 20 C-23 15.71 -23 11.42 -23 7 C-19.6875 6.6875 -19.6875 6.6875 -16 7 C-13.18126243 9.90966459 -12.84020832 12.41255374 -12.8125 16.3125 C-12.9053125 18.1378125 -12.9053125 18.1378125 -13 20 C-12.34 20 -11.68 20 -11 20 C-11.04125 18.741875 -11.0825 17.48375 -11.125 16.1875 C-11.2390374 12.70935927 -11.05925681 12.08888522 -9 9 C-8.34 9 -7.68 9 -7 9 C-6.9175 8.05125 -6.835 7.1025 -6.75 6.125 C-6 3 -6 3 -4.0625 1.6875 C-3.381875 1.460625 -2.70125 1.23375 -2 1 C-1.34 0.67 -0.68 0.34 0 0 Z " fill="#F1F8F9" transform="translate(121,130)"/>
<path d="M0 0 C9.9 0 19.8 0 30 0 C30 5.94 30 11.88 30 18 C24.33167217 18 21.75167447 17.86438529 16.75 16.0625 C15.73421875 15.70285156 14.7184375 15.34320313 13.671875 14.97265625 C12.79015625 14.65167969 11.9084375 14.33070312 11 14 C10.01 13.67 9.02 13.34 8 13 C7.67 13.66 7.34 14.32 7 15 C14.53798969 17.72927213 22.14571103 19.42467319 30 21 C30 23.31 30 25.62 30 28 C20.1 28 10.2 28 0 28 C0 18.76 0 9.52 0 0 Z " fill="#214F5B" transform="translate(57,28)"/>
<path d="M0 0 C1.98 0 3.96 0 6 0 C6.33 1.32 6.66 2.64 7 4 C10.96 4.33 14.92 4.66 19 5 C18.67 5.99 18.34 6.98 18 8 C19.32 8 20.64 8 22 8 C22 8.66 22 9.32 22 10 C22.66 10 23.32 10 24 10 C25.32286246 14.96073422 25.08893197 19.91111512 25 25 C21.29108836 26.98383646 18.09939702 28.1801206 14 29 C13.67 29.66 13.34 30.32 13 31 C13.99 31.66 14.98 32.32 16 33 C15.01 33.99 14.02 34.98 13 36 C12.67 34.68 12.34 33.36 12 32 C11.34 32 10.68 32 10 32 C9.67 34.97 9.34 37.94 9 41 C8.34 41 7.68 41 7 41 C6.24572703 45.97906259 6.24572703 45.97906259 6 51 C5.01 50.67 4.02 50.34 3 50 C3 46.7 3 43.4 3 40 C3.99 40 4.98 40 6 40 C6 39.34 6 38.68 6 38 C5.01 38 4.02 38 3 38 C3 37.34 3 36.68 3 36 C3.99 36 4.98 36 6 36 C6 35.34 6 34.68 6 34 C5.01 33.67 4.02 33.34 3 33 C3.99 33 4.98 33 6 33 C6 32.34 6 31.68 6 31 C4.35 31 2.7 31 1 31 C0.67 31.66 0.34 32.32 0 33 C-1.98 32.01 -3.96 31.02 -6 30 C-6 28.68 -6 27.36 -6 26 C-4.68 26 -3.36 26 -2 26 C-2 23.03 -2 20.06 -2 17 C0.33524782 19.25740623 2.18705073 21.2805761 4 24 C5.32 24.33 6.64 24.66 8 25 C8 20.38 8 15.76 8 11 C6.68 11 5.36 11 4 11 C4 13.31 4 15.62 4 18 C1 16 1 16 0.3125 13.375 C0.209375 12.59125 0.10625 11.8075 0 11 C-1.32 10.67 -2.64 10.34 -4 10 C-4 9.01 -4 8.02 -4 7 C-3.01 6.34 -2.02 5.68 -1 5 C-0.27034634 2.43717258 -0.27034634 2.43717258 0 0 Z " fill="#E3F1F2" transform="translate(135,125)"/>
<path d="M0 0 C3.12492251 -0.05791844 6.24970766 -0.09356746 9.375 -0.125 C10.26445313 -0.14175781 11.15390625 -0.15851563 12.0703125 -0.17578125 C12.92109375 -0.18222656 13.771875 -0.18867188 14.6484375 -0.1953125 C15.82672119 -0.21102295 15.82672119 -0.21102295 17.02880859 -0.22705078 C19 0 19 0 21 2 C21.33 1.34 21.66 0.68 22 0 C25.85452676 -0.22025867 28.50889056 0.35142054 32 2 C32.495 2.495 32.495 2.495 33 3 C33.66 2.01 34.32 1.02 35 0 C37.625 -0.1875 37.625 -0.1875 40 0 C41.10844919 3.32534757 40.84454356 5.62182575 40 9 C39.34 9 38.68 9 38 9 C38.99 10.65 39.98 12.3 41 14 C41.33 13.01 41.66 12.02 42 11 C42.66 11 43.32 11 44 11 C44 13.64 44 16.28 44 19 C43.34 19 42.68 19 42 19 C41.34 18.01 40.68 17.02 40 16 C39.505 17.485 39.505 17.485 39 19 C37.35 19 35.7 19 34 19 C34.02320313 18.24074219 34.04640625 17.48148438 34.0703125 16.69921875 C34.08835938 15.70535156 34.10640625 14.71148437 34.125 13.6875 C34.14820313 12.70136719 34.17140625 11.71523437 34.1953125 10.69921875 C34.20682639 7.77593473 34.20682639 7.77593473 32 5 C31.67 5.99 31.34 6.98 31 8 C29.52093108 8.02689216 28.04172517 8.04634621 26.5625 8.0625 C25.32693359 8.07990234 25.32693359 8.07990234 24.06640625 8.09765625 C22 8 22 8 21 7 C20.67 8.98 20.34 10.96 20 13 C18.35 13.33 16.7 13.66 15 14 C15.33 14.99 15.66 15.98 16 17 C17.65 17 19.3 17 21 17 C21.66 15.02 22.32 13.04 23 11 C25 13 25 13 26 16 C26.33 14.35 26.66 12.7 27 11 C27.66 11 28.32 11 29 11 C29 13.31 29 15.62 29 18 C29.66 18.33 30.32 18.66 31 19 C29.02 19 27.04 19 25 19 C25 18.34 25 17.68 25 17 C24.01 17 23.02 17 22 17 C22 17.66 22 18.32 22 19 C17.38 19.33 12.76 19.66 8 20 C8 18.35 8 16.7 8 15 C7.01 15 6.02 15 5 15 C5 16.32 5 17.64 5 19 C4.34 19 3.68 19 3 19 C2.67 17.68 2.34 16.36 2 15 C1.01 15.33 0.02 15.66 -1 16 C-1 16.99 -1 17.98 -1 19 C-1.99 19 -2.98 19 -4 19 C-4 18.34 -4 17.68 -4 17 C-4.53625 17.33 -5.0725 17.66 -5.625 18 C-8.5391061 19.22699204 -10.86867708 19.14233286 -14 19 C-14 16.36 -14 13.72 -14 11 C-12.68 11 -11.36 11 -10 11 C-9.67 12.65 -9.34 14.3 -9 16 C-8.01 14.35 -7.02 12.7 -6 11 C-4 14 -4 14 -3 16 C-2.690625 15.030625 -2.38125 14.06125 -2.0625 13.0625 C-1 10 -1 10 0 9 C0.07179964 7.48071962 0.08392007 5.95832518 0.0625 4.4375 C0.05347656 3.61121094 0.04445313 2.78492188 0.03515625 1.93359375 C0.02355469 1.29550781 0.01195313 0.65742188 0 0 Z " fill="#E1F2F3" transform="translate(64,156)"/>
<path d="M0 0 C0.66 0 1.32 0 2 0 C2.8723412 2.99480917 3.10829766 5.63575911 3.0625 8.75 C3.05347656 9.54921875 3.04445313 10.3484375 3.03515625 11.171875 C3.01775391 12.07679687 3.01775391 12.07679687 3 13 C3.99 13 4.98 13 6 13 C6 12.34 6 11.68 6 11 C6.99 11 7.98 11 9 11 C9 7.37 9 3.74 9 0 C9.99 0 10.98 0 12 0 C12 4.29 12 8.58 12 13 C13.32 13 14.64 13 16 13 C16.66 8.71 17.32 4.42 18 0 C20.97 0 23.94 0 27 0 C27 0.66 27 1.32 27 2 C25.02 2 23.04 2 21 2 C21 3.32 21 4.64 21 6 C22.98 6 24.96 6 27 6 C27 6.66 27 7.32 27 8 C25.02 8 23.04 8 21 8 C21 9.98 21 11.96 21 14 C22.98 14 24.96 14 27 14 C27 14.66 27 15.32 27 16 C24.69 16 22.38 16 20 16 C20.33 16.99 20.66 17.98 21 19 C29.12508486 20.25001306 37.33959576 20.60979688 45.5 19.4375 C50.52066116 18.80991736 50.52066116 18.80991736 53 20 C53.495 21.485 53.495 21.485 54 23 C53.34 23.99 52.68 24.98 52 26 C51.34 25.67 50.68 25.34 50 25 C49.34 28.63 48.68 32.26 48 36 C47.34 36 46.68 36 46 36 C45.81824219 34.95199219 45.81824219 34.95199219 45.6328125 33.8828125 C45.38144531 32.51769531 45.38144531 32.51769531 45.125 31.125 C44.96257812 30.22007812 44.80015625 29.31515625 44.6328125 28.3828125 C44.16955297 25.83494012 44.16955297 25.83494012 42 24 C40.02 23.67 38.04 23.34 36 23 C36 27.29 36 31.58 36 36 C35.34 36 34.68 36 34 36 C34 31.71 34 27.42 34 23 C32.35 23.33 30.7 23.66 29 24 C29 24.99 29 25.98 29 27 C27.5 28.6875 27.5 28.6875 26 30 C27.98 32.97 27.98 32.97 30 36 C29.01 36 28.02 36 27 36 C24.8125 33 24.8125 33 23 30 C22.67 31.98 22.34 33.96 22 36 C21.34 36 20.68 36 20 36 C19.67 32.04 19.34 28.08 19 24 C16.36 23.67 13.72 23.34 11 23 C11 23.99 11 24.98 11 26 C12.98 26 14.96 26 17 26 C16.67 26.99 16.34 27.98 16 29 C14.35 29 12.7 29 11 29 C11 30.65 11 32.3 11 34 C12.98 34 14.96 34 17 34 C17 34.66 17 35.32 17 36 C14.03 36 11.06 36 8 36 C7.97309896 33.20826945 7.95320947 30.41679652 7.9375 27.625 C7.92912109 26.8309375 7.92074219 26.036875 7.91210938 25.21875 C7.88671875 19.2265625 7.88671875 19.2265625 9 17 C6.03 16.67 3.06 16.34 0 16 C0 10.72 0 5.44 0 0 Z " fill="#ACBFC1" transform="translate(62,114)"/>
<path d="M0 0 C3.05001069 -0.28773686 5.96209394 -0.45487363 9 0 C10.875 2.4375 10.875 2.4375 12 5 C12.99 5.33 13.98 5.66 15 6 C15 4.68 15 3.36 15 2 C15.99 2 16.98 2 18 2 C18 6.95 18 11.9 18 17 C17.01 17.33 16.02 17.66 15 18 C15.33 18.99 15.66 19.98 16 21 C16.99 21.33 17.98 21.66 19 22 C19.25 28.625 19.25 28.625 17 32 C17.495 32.61875 17.99 33.2375 18.5 33.875 C20 36 20 36 20 38 C16.83884224 36.63016497 16.0072908 36.0109362 14 33 C13.505 35.475 13.505 35.475 13 38 C12.01 38 11.02 38 10 38 C10 33.38 10 28.76 10 24 C9.34 24 8.68 24 8 24 C8 26.31 8 28.62 8 31 C6.125 32.0625 6.125 32.0625 4 33 C3.34 32.67 2.68 32.34 2 32 C2 33.98 2 35.96 2 38 C1.01 38 0.02 38 -1 38 C-1.33 32.39 -1.66 26.78 -2 21 C3 18 3 18 5 17 C4.67 12.38 4.34 7.76 4 3 C3.67 3 3.34 3 3 3 C2.67 7.95 2.34 12.9 2 18 C1.01 17.67 0.02 17.34 -1 17 C-1.02691685 14.54159395 -1.04679802 12.08348118 -1.0625 9.625 C-1.07087891 8.92632812 -1.07925781 8.22765625 -1.08789062 7.5078125 C-1.11328125 2.2265625 -1.11328125 2.2265625 0 0 Z " fill="#E8F2F2" transform="translate(18,112)"/>
<path d="M0 0 C1.68222656 -0.00773437 1.68222656 -0.00773437 3.3984375 -0.015625 C6.55512177 0.24424731 8.77868045 0.90679302 11.625 2.25 C11.625 2.91 11.625 3.57 11.625 4.25 C9.645 4.25 7.665 4.25 5.625 4.25 C5.625 5.57 5.625 6.89 5.625 8.25 C7.605 8.25 9.585 8.25 11.625 8.25 C11.625 8.91 11.625 9.57 11.625 10.25 C9.645 10.25 7.665 10.25 5.625 10.25 C5.625 11.9 5.625 13.55 5.625 15.25 C7.605 15.25 9.585 15.25 11.625 15.25 C11.955 16.57 12.285 17.89 12.625 19.25 C11.965 19.25 11.305 19.25 10.625 19.25 C10.955 19.91 11.285 20.57 11.625 21.25 C13.3265625 21.4665625 13.3265625 21.4665625 15.0625 21.6875 C16.238125 21.873125 17.41375 22.05875 18.625 22.25 C20.625 25.25 20.625 25.25 20.3125 27.875 C19.625 30.25 19.625 30.25 18.625 31.25 C16.95882885 31.29063832 15.29111905 31.292721 13.625 31.25 C13.625 33.56 13.625 35.87 13.625 38.25 C12.965 38.25 12.305 38.25 11.625 38.25 C11.295 35.28 10.965 32.31 10.625 29.25 C9.965 30.57 9.305 31.89 8.625 33.25 C5.85959245 37.92992048 5.85959245 37.92992048 2.7265625 38.7421875 C-1.14148608 38.98663667 -2.8601122 38.66442189 -5.9375 36.1875 C-7.87590571 32.22641008 -7.68041614 30.45634091 -6.375 26.25 C-4.57467512 23.70573922 -2.57019874 21.45862504 -0.375 19.25 C0.615 19.58 1.605 19.91 2.625 20.25 C2.625 14.97 2.625 9.69 2.625 4.25 C0.645 4.25 -1.335 4.25 -3.375 4.25 C-3.375 8.87 -3.375 13.49 -3.375 18.25 C-4.035 18.25 -4.695 18.25 -5.375 18.25 C-5.375 13.63 -5.375 9.01 -5.375 4.25 C-6.695 4.25 -8.015 4.25 -9.375 4.25 C-9.375 3.59 -9.375 2.93 -9.375 2.25 C-5.82684929 -0.11543381 -4.20243868 -0.01923313 0 0 Z " fill="#CDDCDE" transform="translate(47.375,111.75)"/>
<path d="M0 0 C0.99 0.33 1.98 0.66 3 1 C3.87890625 3.21484375 3.87890625 3.21484375 4.5625 5.9375 C5.50780455 9.88781528 5.50780455 9.88781528 8 13 C8.33 9.37 8.66 5.74 9 2 C9.99 2 10.98 2 12 2 C12 6.62 12 11.24 12 16 C13.65 16 15.3 16 17 16 C17 16.66 17 17.32 17 18 C13.04 18 9.08 18 5 18 C4.505 15.525 4.505 15.525 4 13 C2.02 13 0.04 13 -2 13 C-2 14.98 -2 16.96 -2 19 C-3.32 19.33 -4.64 19.66 -6 20 C-6 20.99 -6 21.98 -6 23 C-4.35 23.33 -2.7 23.66 -1 24 C-0.67 24.99 -0.34 25.98 0 27 C-2.97 26.01 -5.94 25.02 -9 24 C-9 27.63 -9 31.26 -9 35 C-9.66 35 -10.32 35 -11 35 C-11 31.37 -11 27.74 -11 24 C-12.32 24 -13.64 24 -15 24 C-15 28.62 -15 33.24 -15 38 C-15.33 38 -15.66 38 -16 38 C-15.98952637 37.37432129 -15.97905273 36.74864258 -15.96826172 36.10400391 C-15.92676809 33.2777099 -15.90069527 30.45147989 -15.875 27.625 C-15.85824219 26.64015625 -15.84148437 25.6553125 -15.82421875 24.640625 C-15.81777344 23.69960937 -15.81132813 22.75859375 -15.8046875 21.7890625 C-15.79421387 20.91975098 -15.78374023 20.05043945 -15.77294922 19.15478516 C-15.79404891 16.78654061 -15.79404891 16.78654061 -18 15 C-18.1953125 11.9609375 -18.1953125 11.9609375 -18.125 8.375 C-18.10695313 7.18648438 -18.08890625 5.99796875 -18.0703125 4.7734375 C-18.04710938 3.85820313 -18.02390625 2.94296875 -18 2 C-17.34 2 -16.68 2 -16 2 C-15.67 6.29 -15.34 10.58 -15 15 C-13.35 15 -11.7 15 -10 15 C-9.67 10.71 -9.34 6.42 -9 2 C-8.01 2 -7.02 2 -6 2 C-6 4.64 -6 7.28 -6 10 C-3.3986642 8.6993321 -3.35811992 7.69919978 -2.4375 5 C-1.08991826 1.08991826 -1.08991826 1.08991826 0 0 Z " fill="#B7C9CA" transform="translate(137,112)"/>
<path d="M0 0 C4.12530194 -0.40444137 6.31251157 -0.45832562 9.8125 1.875 C12.73329514 6.04756448 13.35145219 10.01489367 14 15 C12.68 15.33 11.36 15.66 10 16 C9.690625 17.134375 9.38125 18.26875 9.0625 19.4375 C8 23 8 23 7 24 C3.84171336 24.73255664 1.15302272 24.76854929 -2 24 C-5.34905713 21.46617388 -7.94306683 18.66548854 -10 15 C-10.33984375 11.8203125 -10.33984375 11.8203125 -10 9 C-9.34 8.34 -8.68 7.68 -8 7 C-2.54545455 7.45454545 -2.54545455 7.45454545 0 10 C0.66 8.68 1.32 7.36 2 6 C1.34 6 0.68 6 0 6 C0 5.34 0 4.68 0 4 C-0.66 4 -1.32 4 -2 4 C-1.34 2.68 -0.68 1.36 0 0 Z " fill="#EFF7F7" transform="translate(34,32)"/>
<path d="M0 0 C8.91 0 17.82 0 27 0 C25.875 10.125 25.875 10.125 23 15 C19.810405 13.988665 16.79155355 12.90379395 13.75 11.5 C9.35125164 9.55268893 4.71798039 8.80689805 0 8 C0 5.36 0 2.72 0 0 Z " fill="#1D4C5A" transform="translate(90,59)"/>
<path d="M0 0 C0.50471197 1.76949612 1.00360685 3.54065223 1.5 5.3125 C1.7784375 6.29863281 2.056875 7.28476562 2.34375 8.30078125 C3 11 3 11 3 14 C-5.91 14 -14.82 14 -24 14 C-24 11.69 -24 9.38 -24 7 C-23.31035156 6.82984375 -22.62070313 6.6596875 -21.91015625 6.484375 C-16.30137253 5.03793969 -11.15990407 3.35830726 -5.97265625 0.76953125 C-4 0 -4 0 0 0 Z " fill="#224F5A" transform="translate(114,42)"/>
<path d="M0 0 C1.14982602 4.09003859 1.11094256 8.03177051 1.0625 12.25 C1.05798828 12.99507812 1.05347656 13.74015625 1.04882812 14.5078125 C1.03709246 16.3385764 1.0191585 18.16929873 1 20 C2.32 20.33 3.64 20.66 5 21 C5 22.32 5 23.64 5 25 C5.99 25.33 6.98 25.66 8 26 C8 27.98 8 29.96 8 32 C6.68 30.68 5.36 29.36 4 28 C3.01 30.475 3.01 30.475 2 33 C1.34 33 0.68 33 0 33 C0 31.02 0 29.04 0 27 C-0.92232422 26.96132812 -0.92232422 26.96132812 -1.86328125 26.921875 C-8.54716981 26.45283019 -8.54716981 26.45283019 -11.0625 23.9375 C-11.371875 23.298125 -11.68125 22.65875 -12 22 C-11.34 21.34 -10.68 20.68 -10 20 C-9.79503927 17.85573717 -9.79503927 17.85573717 -9.9375 15.5 C-10.09818731 11.19637462 -10.09818731 11.19637462 -9 9 C-8.34 9 -7.68 9 -7 9 C-6.9175 8.05125 -6.835 7.1025 -6.75 6.125 C-6 3 -6 3 -4.0625 1.6875 C-3.381875 1.460625 -2.70125 1.23375 -2 1 C-1.34 0.67 -0.68 0.34 0 0 Z " fill="#F8FCFC" transform="translate(121,130)"/>
<path d="M0 0 C6.6 0 13.2 0 20 0 C20 1.65 20 3.3 20 5 C19.34 5 18.68 5 18 5 C18 5.66 18 6.32 18 7 C18.66 7.33 19.32 7.66 20 8 C18.68 8 17.36 8 16 8 C16 6.02 16 4.04 16 2 C15.01 2 14.02 2 13 2 C13 2.928125 13 3.85625 13 4.8125 C13 6.875 13 8.9375 13 11 C12.01 11.33 11.02 11.66 10 12 C10 12.66 10 13.32 10 14 C10.99 14.33 11.98 14.66 13 15 C12.01 15 11.02 15 10 15 C10 15.99 10 16.98 10 18 C10.99 18.33 11.98 18.66 13 19 C11.20866022 19.05391993 9.41686101 19.09275571 7.625 19.125 C6.62726562 19.14820313 5.62953125 19.17140625 4.6015625 19.1953125 C2 19 2 19 0 17 C-0.14557157 14.08274582 -0.18598967 11.28685195 -0.125 8.375 C-0.08375 5.61125 -0.0425 2.8475 0 0 Z " fill="#DFF2F3" transform="translate(18,156)"/>
<path d="M0 0 C9.10769231 0 9.10769231 0 13.375 1.75 C14.20773438 2.07484375 15.04046875 2.3996875 15.8984375 2.734375 C18.33393563 4.20110622 18.99877183 5.38140324 20 8 C14.66155145 13.21981636 7.81732934 18 0 18 C0 12.06 0 6.12 0 0 Z " fill="#23505C" transform="translate(90,70)"/>
<path d="M0 0 C8.02405123 1.14629303 14.08753166 3.2722963 20 9 C20 9.99 20 10.98 20 12 C13.2402257 15.42410997 7.59952888 17.62625268 0 18 C0 12.06 0 6.12 0 0 Z " fill="#224F5B" transform="translate(90,28)"/>
<path d="M0 0 C1.485 0.99 1.485 0.99 3 2 C3.33 1.34 3.66 0.68 4 0 C7.85452676 -0.22025867 10.50889056 0.35142054 14 2 C14.33 2.33 14.66 2.66 15 3 C15.66 2.01 16.32 1.02 17 0 C19.625 -0.1875 19.625 -0.1875 22 0 C23.10844919 3.32534757 22.84454356 5.62182575 22 9 C21.34 9 20.68 9 20 9 C20.99 10.65 21.98 12.3 23 14 C23.33 13.01 23.66 12.02 24 11 C24.66 11 25.32 11 26 11 C26 13.64 26 16.28 26 19 C25.34 19 24.68 19 24 19 C23.34 18.01 22.68 17.02 22 16 C21.67 16.99 21.34 17.98 21 19 C19.35 19 17.7 19 16 19 C16.02320312 18.24074219 16.04640625 17.48148438 16.0703125 16.69921875 C16.08835937 15.70535156 16.10640625 14.71148437 16.125 13.6875 C16.14820312 12.70136719 16.17140625 11.71523437 16.1953125 10.69921875 C16.20682639 7.77593473 16.20682639 7.77593473 14 5 C13.67 5.99 13.34 6.98 13 8 C8.66666667 8 4.33333333 8 0 8 C0 5.36 0 2.72 0 0 Z " fill="#A4B7B9" transform="translate(82,156)"/>
<path d="M0 0 C1.47666292 3.49029418 1.07164685 7.27436386 1 11 C2.32 11.66 3.64 12.32 5 13 C3.125 19.875 3.125 19.875 2 21 C0.00041636 21.04080783 -2.00045254 21.04254356 -4 21 C-4 18.36 -4 15.72 -4 13 C-4.66 13 -5.32 13 -6 13 C-6.33 14.32 -6.66 15.64 -7 17 C-10 13.25 -10 13.25 -10 11 C-9.34 10.67 -8.68 10.34 -8 10 C-8 8.68 -8 7.36 -8 6 C-8.66 5.34 -9.32 4.68 -10 4 C-6.87839899 0.56623888 -4.64008112 -1.54669371 0 0 Z " fill="#ECF8F9" transform="translate(112,154)"/>
<path d="M0 0 C3.05001069 -0.28773686 5.96209394 -0.45487363 9 0 C10.875 2.4375 10.875 2.4375 12 5 C12.99 5.33 13.98 5.66 15 6 C15 4.68 15 3.36 15 2 C15.99 2 16.98 2 18 2 C18 6.95 18 11.9 18 17 C14.51762536 15.83920845 13.98418684 14.93131619 11.9375 12 C9.92046147 8.98371816 9.92046147 8.98371816 7 7 C7 10.3 7 13.6 7 17 C6.34 17 5.68 17 5 17 C4.67 12.38 4.34 7.76 4 3 C3.67 3 3.34 3 3 3 C2.67 7.95 2.34 12.9 2 18 C1.01 17.67 0.02 17.34 -1 17 C-1.02691685 14.54159395 -1.04679802 12.08348118 -1.0625 9.625 C-1.07087891 8.92632812 -1.07925781 8.22765625 -1.08789062 7.5078125 C-1.11328125 2.2265625 -1.11328125 2.2265625 0 0 Z " fill="#DBF1F1" transform="translate(18,112)"/>
<path d="M0 0 C3.75 0.25 3.75 0.25 9.75 2.25 C9.75 6.54 9.75 10.83 9.75 15.25 C7.44 15.58 5.13 15.91 2.75 16.25 C2.75 14.91666667 2.75 13.58333333 2.75 12.25 C1.986875 12.311875 1.22375 12.37375 0.4375 12.4375 C-2.25 12.25 -2.25 12.25 -4.0625 11.1875 C-5.896921 8.19449731 -5.56107576 5.67183337 -5.25 2.25 C-3.25 0.25 -3.25 0.25 0 0 Z " fill="#F3F8F9" transform="translate(99.25,115.75)"/>
<path d="M0 0 C0 15.51 0 31.02 0 47 C-0.99 47.495 -0.99 47.495 -2 48 C-2.66 47.67 -3.32 47.34 -4 47 C-4.07589394 40.62800706 -4.1285335 34.25613009 -4.16479492 27.88378906 C-4.179907 25.71479944 -4.20039735 23.5458405 -4.22631836 21.37695312 C-4.26259534 18.26424604 -4.2797019 15.15194195 -4.29296875 12.0390625 C-4.30845261 11.065065 -4.32393646 10.0910675 -4.33988953 9.08755493 C-4.34011612 8.18677216 -4.34034271 7.28598938 -4.34057617 6.35791016 C-4.34723801 5.56293121 -4.35389984 4.76795227 -4.36076355 3.94888306 C-4.24171158 3.30575165 -4.12265961 2.66262024 -4 2 C-1 0 -1 0 0 0 Z " fill="#DCEFF1" transform="translate(57,59)"/>
<path d="M0 0 C1.98 0 3.96 0 6 0 C6 5.28 6 10.56 6 16 C2 18 2 18 -0.125 18.6875 C-3.0943655 20.76605585 -3.2429305 23.59318726 -4 27 C-4.99 27 -5.98 27 -7 27 C-7.33 27.99 -7.66 28.98 -8 30 C-8.66 29.01 -9.32 28.02 -10 27 C-9.34 26.34 -8.68 25.68 -8 25 C-7.17074687 21.90441111 -6.5317098 18.78953109 -5.87890625 15.65234375 C-5.58886719 14.77707031 -5.29882812 13.90179688 -5 13 C-4.01 12.67 -3.02 12.34 -2 12 C-2 12.66 -2 13.32 -2 14 C-1.34 14 -0.68 14 0 14 C0 9.38 0 4.76 0 0 Z " fill="#E9F2F4" transform="translate(44,116)"/>
<path d="M0 0 C8.19057816 -0.48179872 8.19057816 -0.48179872 11.625 1.5625 C13.60470045 5.07196898 13.04088716 7.18341375 12 11 C10.734375 12.703125 10.734375 12.703125 9 14 C6.73828125 14.29296875 6.73828125 14.29296875 4.3125 14.1875 C2.889375 14.125625 1.46625 14.06375 0 14 C0 9.38 0 4.76 0 0 Z " fill="#204B52" transform="translate(147,136)"/>
<path d="M0 0 C0.87914063 0.07025391 1.75828125 0.14050781 2.6640625 0.21289062 C4.81981147 0.38863103 6.97283362 0.59728336 9.125 0.8125 C9.125 1.4725 9.125 2.1325 9.125 2.8125 C7.805 2.8125 6.485 2.8125 5.125 2.8125 C5.125 7.4325 5.125 12.0525 5.125 16.8125 C4.135 17.1425 3.145 17.4725 2.125 17.8125 C0.31384044 16.00134044 0.74300552 13.19971773 0.5625 10.75 C0.43681641 9.09291016 0.43681641 9.09291016 0.30859375 7.40234375 C0.24800781 6.54769531 0.18742187 5.69304687 0.125 4.8125 C-3.95730666 3.92565407 -7.68721687 3.65143142 -11.875 3.8125 C-13.26787806 4.98286305 -13.26787806 4.98286305 -13.0625 8.25 C-13.27064928 11.86282721 -13.27064928 11.86282721 -10.875 13.8125 C-8.18660615 14.08241906 -5.58358064 13.89987357 -2.875 13.8125 C-4.73741253 16.2957167 -5.69388351 16.78167166 -8.8125 17.3125 C-11.875 16.8125 -11.875 16.8125 -14.25 14.75 C-16.31598839 11.01532869 -16.62623045 9.01939051 -15.875 4.8125 C-10.92830089 -0.76450431 -7.15390648 -0.74878991 0 0 Z " fill="#C1D8D8" transform="translate(107.875,113.1875)"/>
<path d="M0 0 C2.69430066 1.34715033 2.91932594 2.75290492 4.0625 5.5 C5.17788857 8.48021232 5.17788857 8.48021232 7 11 C7.33 7.37 7.66 3.74 8 0 C8.99 0 9.98 0 11 0 C11 4.62 11 9.24 11 14 C12.65 14 14.3 14 16 14 C16 14.66 16 15.32 16 16 C12.04 16 8.08 16 4 16 C3.67 14.35 3.34 12.7 3 11 C1.02 11 -0.96 11 -3 11 C-3.33 12.32 -3.66 13.64 -4 15 C-4.66 15 -5.32 15 -6 15 C-4.36041242 9.76727367 -2.61047965 4.84803364 0 0 Z " fill="#597375" transform="translate(138,114)"/>
<path d="M0 0 C5.45949074 1.09189815 6.01471081 1.68791562 9 6 C9.33 4.02 9.66 2.04 10 0 C11.32 0 12.64 0 14 0 C14 4.62 14 9.24 14 14 C9 13 9 13 6.6875 9.9375 C6.130625 8.968125 5.57375 7.99875 5 7 C4.67 9.31 4.34 11.62 4 14 C2.68 14 1.36 14 0 14 C0 9.38 0 4.76 0 0 Z " fill="#3F6268" transform="translate(129,136)"/>
<path d="M0 0 C1.65 0 3.3 0 5 0 C5 0.66 5 1.32 5 2 C4.34 2 3.68 2 3 2 C3 4.31 3 6.62 3 9 C2.01 9 1.02 9 0 9 C0.33 10.32 0.66 11.64 1 13 C-0.32 13 -1.64 13 -3 13 C-3 14.32 -3 15.64 -3 17 C-2.01 17.33 -1.02 17.66 0 18 C-0.33 17.01 -0.66 16.02 -1 15 C-0.01 15 0.98 15 2 15 C1.67 16.32 1.34 17.64 1 19 C-1.375 19.125 -1.375 19.125 -4 19 C-4.66 18.34 -5.32 17.68 -6 17 C-6.66 17.66 -7.32 18.32 -8 19 C-10.5 19.25 -10.5 19.25 -13 19 C-13.66 18.34 -14.32 17.68 -15 17 C-14.44444444 12.44444444 -14.44444444 12.44444444 -13 11 C-10.5625 10.8125 -10.5625 10.8125 -8 11 C-7.34 11.66 -6.68 12.32 -6 13 C-5.01 11.68 -4.02 10.36 -3 9 C-3.66 7.68 -4.32 6.36 -5 5 C-5.99 6.485 -5.99 6.485 -7 8 C-7 5.69 -7 3.38 -7 1 C-5.68 1.99 -4.36 2.98 -3 4 C-2.34 3.01 -1.68 2.02 -1 1 C-0.67 2.98 -0.34 4.96 0 7 C0 4.69 0 2.38 0 0 Z " fill="#809798" transform="translate(47,156)"/>
<path d="M0 0 C1.32 0 2.64 0 4 0 C4 3.63 4 7.26 4 11 C4.66 11 5.32 11 6 11 C6 7.37 6 3.74 6 0 C6.33 0 6.66 0 7 0 C7 4.62 7 9.24 7 14 C8.32 14.33 9.64 14.66 11 15 C9.68 15 8.36 15 7 15 C7.16371094 15.56203125 7.32742187 16.1240625 7.49609375 16.703125 C8.02864997 19.13059056 8.09898681 21.26889681 8.0625 23.75 C8.05347656 24.54921875 8.04445312 25.3484375 8.03515625 26.171875 C8.02355469 26.77515625 8.01195312 27.3784375 8 28 C9.32 28.33 10.64 28.66 12 29 C10.02 29 8.04 29 6 29 C5.67 28.01 5.34 27.02 5 26 C4.01 26 3.02 26 2 26 C2 26.66 2 27.32 2 28 C1.01 27.67 0.02 27.34 -1 27 C-0.34 27 0.32 27 1 27 C1.66 25.02 2.32 23.04 3 21 C3.99 21.99 4.98 22.98 6 24 C6.33 22.68 6.66 21.36 7 20 C5.68 19.67 4.36 19.34 3 19 C3.33 17.68 3.66 16.36 4 15 C2.68 15 1.36 15 0 15 C0 10.05 0 5.1 0 0 Z " fill="#C9D8DB" transform="translate(122,136)"/>
<path d="M0 0 C2.97 0 5.94 0 9 0 C9.33 1.32 9.66 2.64 10 4 C9.01 5.485 9.01 5.485 8 7 C7.83286431 9.62531524 7.83286431 9.62531524 8 12 C9.65 11.67 11.3 11.34 13 11 C13.33 11.66 13.66 12.32 14 13 C12.35 13.33 10.7 13.66 9 14 C8.67 14.99 8.34 15.98 8 17 C10.31 17 12.62 17 15 17 C15 17.66 15 18.32 15 19 C11.37 19.33 7.74 19.66 4 20 C4.09765625 17.72135417 4.1953125 15.44270833 4.29296875 13.1640625 C4.19628906 12.44992188 4.09960938 11.73578125 4 11 C3.01 10.34 2.02 9.68 1 9 C0.2918906 6.00539996 0.22018872 3.08264211 0 0 Z " fill="#ABBDBE" transform="translate(112,156)"/>
<path d="M0 0 C1.32 0 2.64 0 4 0 C4.33 1.65 4.66 3.3 5 5 C5.99 3.35 6.98 1.7 8 0 C10 3 10 3 11 5 C11.33 3.35 11.66 1.7 12 0 C14.31 0 16.62 0 19 0 C19 0.99 19 1.98 19 3 C19.99 3 20.98 3 22 3 C22 2.01 22 1.02 22 0 C23.32 0 24.64 0 26 0 C26 2.64 26 5.28 26 8 C24.68 8 23.36 8 22 8 C22 6.68 22 5.36 22 4 C21.01 4 20.02 4 19 4 C19 5.32 19 6.64 19 8 C18.34 8 17.68 8 17 8 C16.67 6.68 16.34 5.36 16 4 C15.01 4.33 14.02 4.66 13 5 C13 5.99 13 6.98 13 8 C12.01 8 11.02 8 10 8 C10 7.34 10 6.68 10 6 C9.46375 6.33 8.9275 6.66 8.375 7 C5.4608939 8.22699204 3.13132292 8.14233286 0 8 C0 5.36 0 2.72 0 0 Z " fill="#6F8789" transform="translate(50,167)"/>
<path d="M0 0 C1.98 0 3.96 0 6 0 C6.67031719 1.9570868 7.33614683 3.91571113 8 5.875 C8.556875 7.51082031 8.556875 7.51082031 9.125 9.1796875 C10 12 10 12 10 14 C8.68 14 7.36 14 6 14 C6 13.34 6 12.68 6 12 C3.69 12 1.38 12 -1 12 C-1 12.66 -1 13.32 -1 14 C-1.99 14 -2.98 14 -4 14 C-3.36843005 8.94744036 -1.86540627 4.70406799 0 0 Z " fill="#34575E" transform="translate(173,136)"/>
<path d="M0 0 C0.495 0.37125 0.99 0.7425 1.5 1.125 C0.84 1.785 0.18 2.445 -0.5 3.125 C-0.81404687 7.36463281 -0.82617985 10.49034398 1.5 14.125 C0.860625 14.24875 0.22125 14.3725 -0.4375 14.5 C-1.118125 14.70625 -1.79875 14.9125 -2.5 15.125 C-2.83 15.785 -3.16 16.445 -3.5 17.125 C-3.83 15.805 -4.16 14.485 -4.5 13.125 C-6.48 13.125 -8.46 13.125 -10.5 13.125 C-10.5 11.145 -10.5 9.165 -10.5 7.125 C-8.52 7.125 -6.54 7.125 -4.5 7.125 C-4.5 6.465 -4.5 5.805 -4.5 5.125 C-6.48 5.125 -8.46 5.125 -10.5 5.125 C-10.5 3.805 -10.5 2.485 -10.5 1.125 C-3.11538462 -1.09038462 -3.11538462 -1.09038462 0 0 Z " fill="#E3F1F1" transform="translate(93.5,114.875)"/>
<path d="M0 0 C2 2 2 2 2.25 4.9375 C2 8 2 8 0 11 C-1.875 11.3984375 -1.875 11.3984375 -4 11.375 C-4.70125 11.38273438 -5.4025 11.39046875 -6.125 11.3984375 C-8 11 -8 11 -10 8 C-10.375 5 -10.375 5 -10 2 C-6.94783427 -1.63912068 -4.35383535 -1.23043173 0 0 Z " fill="#F0F8F9" transform="translate(52,137)"/>
<path d="M0 0 C0.99 0.66 1.98 1.32 3 2 C2.01 2.495 2.01 2.495 1 3 C0.34227572 6.02934491 0.34227572 6.02934491 0 9 C0.61875 8.505 1.2375 8.01 1.875 7.5 C4 6 4 6 6 6 C6 6.66 6 7.32 6 8 C5.01 8.66 4.02 9.32 3 10 C3.65585189 13.60992379 3.65585189 13.60992379 5 17 C4.443125 16.649375 3.88625 16.29875 3.3125 15.9375 C0.3876905 14.75176642 -1.00750241 15.10225072 -4 16 C-6.23408113 16.99083967 -6.23408113 16.99083967 -8 18 C-7.67 17.01 -7.34 16.02 -7 15 C-6.34 15 -5.68 15 -5 15 C-5 14.01 -5 13.02 -5 12 C-6.98 12 -8.96 12 -11 12 C-11.33 12.66 -11.66 13.32 -12 14 C-12 13.01 -12 12.02 -12 11 C-11.01 10.67 -10.02 10.34 -9 10 C-8.5359375 9.071875 -8.5359375 9.071875 -8.0625 8.125 C-6.78193998 5.56387995 -5.40833101 4.50520688 -3 3 C-2.34 3 -1.68 3 -1 3 C-0.67 2.01 -0.34 1.02 0 0 Z " fill="#D2E8EB" transform="translate(29,23)"/>
<path d="M0 0 C1.65 0 3.3 0 5 0 C3.68 0.33 2.36 0.66 1 1 C1 10.9 1 20.8 1 31 C-1.672336 27.43688534 -2.77263971 25.15414253 -4 21 C-4.99 21.33 -5.98 21.66 -7 22 C-7.66 21.67 -8.32 21.34 -9 21 C-8.67 18.36 -8.34 15.72 -8 13 C-5.03 13.495 -5.03 13.495 -2 14 C-2.020625 13.030625 -2.04125 12.06125 -2.0625 11.0625 C-2 8 -2 8 -1 7 C-0.63239269 4.67182036 -0.29758419 2.3381615 0 0 Z " fill="#E3F2F3" transform="translate(61,143)"/>
<path d="M0 0 C1.98 0 3.96 0 6 0 C6.103125 0.61875 6.20625 1.2375 6.3125 1.875 C6.87525373 4.36526484 6.87525373 4.36526484 10 6 C10 7.32 10 8.64 10 10 C8.35 10.33 6.7 10.66 5 11 C4.67 13.31 4.34 15.62 4 18 C1 16 1 16 0.3125 13.375 C0.209375 12.59125 0.10625 11.8075 0 11 C-1.32 10.67 -2.64 10.34 -4 10 C-4 9.01 -4 8.02 -4 7 C-3.01 6.34 -2.02 5.68 -1 5 C-0.27034634 2.43717258 -0.27034634 2.43717258 0 0 Z " fill="#F3FAFB" transform="translate(135,125)"/>
<path d="M0 0 C0.66 0 1.32 0 2 0 C2.8723412 2.99480917 3.10829766 5.63575911 3.0625 8.75 C3.05347656 9.54921875 3.04445313 10.3484375 3.03515625 11.171875 C3.01775391 12.07679687 3.01775391 12.07679687 3 13 C3.99 13 4.98 13 6 13 C6 12.34 6 11.68 6 11 C6.99 11 7.98 11 9 11 C9 7.37 9 3.74 9 0 C9.66 0 10.32 0 11 0 C11 4.62 11 9.24 11 14 C12.98 14 14.96 14 17 14 C17 14.66 17 15.32 17 16 C11.39 16 5.78 16 0 16 C0 10.72 0 5.44 0 0 Z " fill="#7D9699" transform="translate(62,114)"/>
<path d="M0 0 C8.91 0 17.82 0 27 0 C25.875 10.125 25.875 10.125 23 15 C18.52761347 13.58192622 14.28853694 11.88695626 10 10 C11.32 9.34 12.64 8.68 14 8 C14.99 8.66 15.98 9.32 17 10 C18.32 9.34 19.64 8.68 21 8 C21 8.66 21 9.32 21 10 C21.99 10 22.98 10 24 10 C24 7.69 24 5.38 24 3 C21.59458071 1.79729036 19.89633409 1.79683337 17.2109375 1.68359375 C16.26992187 1.64169922 15.32890625 1.59980469 14.359375 1.55664062 C13.37453125 1.51732422 12.3896875 1.47800781 11.375 1.4375 C10.38242188 1.39431641 9.38984375 1.35113281 8.3671875 1.30664062 C5.91160162 1.20038931 3.45591297 1.09835036 1 1 C1 2.98 1 4.96 1 7 C1.99 7.33 2.98 7.66 4 8 C2.68 8 1.36 8 0 8 C0 5.36 0 2.72 0 0 Z " fill="#3F6269" transform="translate(90,59)"/>
<path d="M0 0 C0.99 0.66 1.98 1.32 3 2 C3.26667539 4.83727325 3.34791234 7.45383045 3.29296875 10.2890625 C3.28872391 11.10748627 3.28447906 11.92591003 3.28010559 12.76913452 C3.26328679 15.38808836 3.22562974 18.00627802 3.1875 20.625 C3.17245726 22.3984264 3.15876814 24.17186484 3.14648438 25.9453125 C3.11337292 30.2971703 3.06156952 34.64845551 3 39 C2.67 39 2.34 39 2 39 C2 27.12 2 15.24 2 3 C-8.81685621 4.47359781 -8.81685621 4.47359781 -18 8 C-18.99 8 -19.98 8 -21 8 C-20 5 -20 5 -17.3046875 3.61328125 C-5.55068953 -0.84467015 -5.55068953 -0.84467015 0 0 Z " fill="#B6D1D4" transform="translate(85,67)"/>
<path d="M0 0 C0.33 0.99 0.66 1.98 1 3 C0.01 4.485 0.01 4.485 -1 6 C-1.66 5.67 -2.32 5.34 -3 5 C-3.66 8.63 -4.32 12.26 -5 16 C-5.66 16 -6.32 16 -7 16 C-7.12117188 15.30132812 -7.24234375 14.60265625 -7.3671875 13.8828125 C-7.53476563 12.97273437 -7.70234375 12.06265625 -7.875 11.125 C-8.03742188 10.22007812 -8.19984375 9.31515625 -8.3671875 8.3828125 C-8.83044703 5.83494012 -8.83044703 5.83494012 -11 4 C-12.98821313 3.60235737 -14.98944339 3.26224651 -17 3 C-16.360625 2.690625 -15.72125 2.38125 -15.0625 2.0625 C-13.06389179 1.1654837 -13.06389179 1.1654837 -12 0 C-7.68895139 -0.82904781 -4.25499941 -1.16045439 0 0 Z " fill="#D7E6E8" transform="translate(115,134)"/>
<path d="M0 0 C0.33 0 0.66 0 1 0 C1.33 1.65 1.66 3.3 2 5 C3.32 3.68 4.64 2.36 6 1 C6.66 1.99 7.32 2.98 8 4 C8.33 2.68 8.66 1.36 9 0 C10.32 0 11.64 0 13 0 C13.33 2.64 13.66 5.28 14 8 C11.69 8 9.38 8 7 8 C7 7.34 7 6.68 7 6 C6.01 6 5.02 6 4 6 C4 6.66 4 7.32 4 8 C3.21625 7.814375 2.4325 7.62875 1.625 7.4375 C-0.97089775 6.74037734 -0.97089775 6.74037734 -3 8 C-3.33 7.34 -3.66 6.68 -4 6 C-4.66 6.66 -5.32 7.32 -6 8 C-6 5.69 -6 3.38 -6 1 C-5.34 1 -4.68 1 -4 1 C-3.34 1.99 -2.68 2.98 -2 4 C-1.34 2.68 -0.68 1.36 0 0 Z " fill="#627C7F" transform="translate(151,156)"/>
<path d="M0 0 C1.98 0 3.96 0 6 0 C6.66 0.66 7.32 1.32 8 2 C7.6730244 4.61580479 7.17960932 6.64078137 6 9 C6.7425 9.928125 6.7425 9.928125 7.5 10.875 C9 13 9 13 9 15 C5.83884224 13.63016497 5.0072908 13.0109362 3 10 C2.67 11.65 2.34 13.3 2 15 C1.34 15 0.68 15 0 15 C0 10.05 0 5.1 0 0 Z " fill="#4D6E6E" transform="translate(29,135)"/>
<path d="M0 0 C0.99 0 1.98 0 3 0 C3 0.66 3 1.32 3 2 C4.32 2.33 5.64 2.66 7 3 C6.34 4.65 5.68 6.3 5 8 C5.66 8.33 6.32 8.66 7 9 C6.67 10.32 6.34 11.64 6 13 C0.46153846 13.36923077 0.46153846 13.36923077 -1.875 11.5 C-2.24625 11.005 -2.6175 10.51 -3 10 C-3.66 10.99 -4.32 11.98 -5 13 C-5 10.69 -5 8.38 -5 6 C-4.34 6 -3.68 6 -3 6 C-2.01 7.485 -2.01 7.485 -1 9 C-1.020625 7.88625 -1.04125 6.7725 -1.0625 5.625 C-1 2 -1 2 0 0 Z " fill="#91A8A9" transform="translate(155,162)"/>
<path d="M0 0 C1.98 0 3.96 0 6 0 C6.66 0.66 7.32 1.32 8 2 C7.6730244 4.61580479 7.17960932 6.64078137 6 9 C7.98 11.97 7.98 11.97 10 15 C9.01 15 8.02 15 7 15 C4.8125 12 4.8125 12 3 9 C2.67 10.98 2.34 12.96 2 15 C1.34 15 0.68 15 0 15 C0 10.05 0 5.1 0 0 Z " fill="#425A5D" transform="translate(82,135)"/>
<path d="M0 0 C0.66 0.33 1.32 0.66 2 1 C3.53668865 1.22467831 5.07968054 1.40796805 6.625 1.5625 C7.44226563 1.64628906 8.25953125 1.73007813 9.1015625 1.81640625 C9.72804688 1.87699219 10.35453125 1.93757812 11 2 C10.01 2.495 10.01 2.495 9 3 C9 3.66 9 4.32 9 5 C8.34 5 7.68 5 7 5 C7 7.31 7 9.62 7 12 C5.04783565 10.04783565 4.15173355 8.46800047 3 6 C2.773125 6.804375 2.54625 7.60875 2.3125 8.4375 C1.6628125 9.7059375 1.6628125 9.7059375 1 11 C-1.625 11.8125 -1.625 11.8125 -4 12 C-4.66 10.68 -5.32 9.36 -6 8 C-4.125 6.9375 -4.125 6.9375 -2 6 C-1.34 6.33 -0.68 6.66 0 7 C-0.185625 6.401875 -0.37125 5.80375 -0.5625 5.1875 C-1 3 -1 3 0 0 Z " fill="#E1F3F4" transform="translate(84,162)"/>
<path d="M0 0 C2.49118953 3.7367843 2.2065226 5.74451819 2.125 10.1875 C2.10695313 11.45980469 2.08890625 12.73210938 2.0703125 14.04296875 C2.04710938 15.01878906 2.02390625 15.99460937 2 17 C1.34 17.33 0.68 17.66 0 18 C0.33 15.36 0.66 12.72 1 10 C-7.91 10 -16.82 10 -26 10 C-26 9.01 -26 8.02 -26 7 C-17.09 7 -8.18 7 1 7 C0.67 4.69 0.34 2.38 0 0 Z " fill="#BAD7D8" transform="translate(116,49)"/>
<path d="M0 0 C1.51400391 0.01740234 1.51400391 0.01740234 3.05859375 0.03515625 C4.07050781 0.04417969 5.08242188 0.05320313 6.125 0.0625 C7.29869141 0.07990234 7.29869141 0.07990234 8.49609375 0.09765625 C7.50609375 0.42765625 6.51609375 0.75765625 5.49609375 1.09765625 C5.49609375 1.75765625 5.49609375 2.41765625 5.49609375 3.09765625 C6.48609375 3.42765625 7.47609375 3.75765625 8.49609375 4.09765625 C7.50609375 4.09765625 6.51609375 4.09765625 5.49609375 4.09765625 C5.49609375 5.08765625 5.49609375 6.07765625 5.49609375 7.09765625 C6.48609375 7.42765625 7.47609375 7.75765625 8.49609375 8.09765625 C6.70475397 8.15157618 4.91295476 8.19041196 3.12109375 8.22265625 C2.12335937 8.24585938 1.125625 8.2690625 0.09765625 8.29296875 C-2.50390625 8.09765625 -2.50390625 8.09765625 -4.50390625 6.09765625 C-3.77826013 0.14735804 -3.77826013 0.14735804 0 0 Z " fill="#91A8A9" transform="translate(22.50390625,166.90234375)"/>
<path d="M0 0 C2.475 0.99 2.475 0.99 5 2 C5 1.34 5 0.68 5 0 C5.99 0 6.98 0 8 0 C8.33 0.66 8.66 1.32 9 2 C12.02934491 2.65772428 12.02934491 2.65772428 15 3 C14.01 3.66 13.02 4.32 12 5 C11.34 4.67 10.68 4.34 10 4 C9.34 6.31 8.68 8.62 8 11 C3.25 12.125 3.25 12.125 1 11 C1.33 9.68 1.66 8.36 2 7 C3.32 6.67 4.64 6.34 6 6 C4.02 6.33 2.04 6.66 0 7 C0 4.69 0 2.38 0 0 Z " fill="#E8F7F7" transform="translate(119,162)"/>
<path d="M0 0 C3.78885375 1.08252964 5.30401609 1.74994382 7.5 5 C8.13656938 8.73984509 7.75584708 10.50962644 6 13.875 C2.97289292 16.44804102 1.29539813 16.74916772 -2.58984375 16.48046875 C-4.5 16 -4.5 16 -7.0625 13.9375 C-8.95332378 10.07364271 -8.69248952 8.09918272 -7.5 4 C-5.19165176 0.44869501 -4.27411133 0 0 0 Z M-4.75 3.125 C-6.79079368 4.94420892 -6.79079368 4.94420892 -6.875 8 C-6.7049729 11.17702205 -6.7049729 11.17702205 -4.5 14 C-2.598006 14.47558206 -2.598006 14.47558206 -0.5 14.375 C0.551875 14.38660156 0.551875 14.38660156 1.625 14.3984375 C3.91058594 14.140914 3.91058594 14.140914 5.5 11 C6 8 6 8 5.5 5 C3.84626504 3.00966359 3.84626504 3.00966359 1.5 2 C-2.32297795 1.7018576 -2.32297795 1.7018576 -4.75 3.125 Z " fill="#476364" transform="translate(48.5,134)"/>
<path d="M0 0 C1.98 0 3.96 0 6 0 C8 2 8 2 8.125 5.125 C8.08375 6.07375 8.0425 7.0225 8 8 C6.125 9.0625 6.125 9.0625 4 10 C3.34 9.67 2.68 9.34 2 9 C2 10.98 2 12.96 2 15 C1.34 15 0.68 15 0 15 C0 10.05 0 5.1 0 0 Z " fill="#7A9495" transform="translate(18,135)"/>
<path d="M0 0 C0.66 0.33 1.32 0.66 2 1 C2 1.66 2 2.32 2 3 C2.99 2.67 3.98 2.34 5 2 C5.66 3.98 6.32 5.96 7 8 C7.99 8 8.98 8 10 8 C10.625 10.3125 10.625 10.3125 11 13 C10.01 14.485 10.01 14.485 9 16 C8.67 14.02 8.34 12.04 8 10 C7.10796875 10.34933594 6.2159375 10.69867188 5.296875 11.05859375 C4.12640625 11.51363281 2.9559375 11.96867187 1.75 12.4375 C0.58984375 12.88996094 -0.5703125 13.34242187 -1.765625 13.80859375 C-6.87607132 15.69106492 -6.87607132 15.69106492 -9 16 C-11.25 14.5625 -11.25 14.5625 -13 13 C-12.41992188 12.89042969 -11.83984375 12.78085937 -11.2421875 12.66796875 C-6.38082776 11.68125712 -2.40496877 10.36364178 2 8 C2.66 8 3.32 8 4 8 C2.88820837 4.66462511 1.52588702 3.36292656 -1 1 C-0.67 0.67 -0.34 0.34 0 0 Z " fill="#D1E6E8" transform="translate(106,32)"/>
<path d="M0 0 C2.97 0 5.94 0 9 0 C9 1.32 9 2.64 9 4 C9.185625 4.721875 9.37125 5.44375 9.5625 6.1875 C9.706875 6.785625 9.85125 7.38375 10 8 C9 9 9 9 7.1875 9.1328125 C6.465625 9.13023437 5.74375 9.12765625 5 9.125 C4.278125 9.12757813 3.55625 9.13015625 2.8125 9.1328125 C1 9 1 9 0 8 C-0.14115161 5.32941149 -0.04247107 2.67567762 0 0 Z " fill="#A8BFC0" transform="translate(71,156)"/>
<path d="M0 0 C1.485 0.99 1.485 0.99 3 2 C3.33 1.34 3.66 0.68 4 0 C6.375 -0.125 6.375 -0.125 9 0 C11 2 11 2 11.125 5.125 C11.08375 6.07375 11.0425 7.0225 11 8 C7.33333333 8 3.66666667 8 0 8 C0 5.36 0 2.72 0 0 Z " fill="#BFD4D6" transform="translate(82,156)"/>
<path d="M0 0 C2.64 0 5.28 0 8 0 C8 0.66 8 1.32 8 2 C6.02 2 4.04 2 2 2 C2 3.65 2 5.3 2 7 C3.98 7 5.96 7 8 7 C8 7.66 8 8.32 8 9 C6.35 9 4.7 9 3 9 C3 10.65 3 12.3 3 14 C4.98 14 6.96 14 9 14 C9 14.66 9 15.32 9 16 C6.03 16 3.06 16 0 16 C0 10.72 0 5.44 0 0 Z " fill="#697E81" transform="translate(70,134)"/>
<path d="M0 0 C8.33708321 0.54824357 14.57456596 3.19672891 22 7 C22.66 5.02 23.32 3.04 24 1 C24.66 1.99 25.32 2.98 26 4 C25.34 4 24.68 4 24 4 C23.896875 4.639375 23.79375 5.27875 23.6875 5.9375 C23.460625 6.618125 23.23375 7.29875 23 8 C22.01 8.33 21.02 8.66 20 9 C19.67 9.66 19.34 10.32 19 11 C18.505 10.401875 18.01 9.80375 17.5 9.1875 C12.19018434 4.5414113 5.8473979 3.61137481 -1 3 C-0.67 2.01 -0.34 1.02 0 0 Z " fill="#CCE1E4" transform="translate(91,67)"/>
<path d="M0 0 C-0.495 0.598125 -0.99 1.19625 -1.5 1.8125 C-3.28276418 3.97029994 -3.28276418 3.97029994 -3 7 C-2.01 7.33 -1.02 7.66 0 8 C-0.969375 8.28875 -1.93875 8.5775 -2.9375 8.875 C-6.10664203 9.64214682 -6.10664203 9.64214682 -7 12 C-6.34 12 -5.68 12 -5 12 C-5 12.66 -5 13.32 -5 14 C-4.34 14 -3.68 14 -3 14 C-3.66 15.65 -4.32 17.3 -5 19 C-5.66 18.67 -6.32 18.34 -7 18 C-7 16.68 -7 15.36 -7 14 C-7.30404678 12.32774271 -7.63128912 10.65919896 -8 9 C-6.68 8.34 -5.36 7.68 -4 7 C-4 6.34 -4 5.68 -4 5 C-4.61875 5.495 -5.2375 5.99 -5.875 6.5 C-8 8 -8 8 -10 8 C-10.1875 5.125 -10.1875 5.125 -10 2 C-6.3558226 -0.4294516 -4.28758728 -0.16179575 0 0 Z " fill="#366068" transform="translate(39,24)"/>
<path d="M0 0 C0.99 0 1.98 0 3 0 C3 4.62 3 9.24 3 14 C4.65 14 6.3 14 8 14 C8 14.66 8 15.32 8 16 C4.04 16 0.08 16 -4 16 C-4.33 14.68 -4.66 13.36 -5 12 C-3.515 12.99 -3.515 12.99 -2 14 C-0.99740493 10.99221479 -0.69685358 8.46179353 -0.4375 5.3125 C-0.35371094 4.31863281 -0.26992187 3.32476562 -0.18359375 2.30078125 C-0.12300781 1.54152344 -0.06242188 0.78226562 0 0 Z " fill="#8AA0A1" transform="translate(146,114)"/>
<path d="M0 0 C0.66 0.66 1.32 1.32 2 2 C2.66 1.34 3.32 0.68 4 0 C6.625 -0.125 6.625 -0.125 9 0 C9.33 0.66 9.66 1.32 10 2 C9.01 2.495 9.01 2.495 8 3 C8.66 3.33 9.32 3.66 10 4 C9.67 5.65 9.34 7.3 9 9 C6.625 9.125 6.625 9.125 4 9 C3.34 8.34 2.68 7.68 2 7 C1.01 7.495 1.01 7.495 0 8 C0 5.36 0 2.72 0 0 Z " fill="#8CA2A4" transform="translate(166,156)"/>
<path d="M0 0 C3.31091002 3.31091002 6.17663266 6.34007938 9 10 C9.33 6.7 9.66 3.4 10 0 C10.66 0 11.32 0 12 0 C12 4.95 12 9.9 12 15 C8.51762536 13.83920845 7.98418684 12.93131619 5.9375 10 C3.92046147 6.98371816 3.92046147 6.98371816 1 5 C1 8.3 1 11.6 1 15 C0.67 15 0.34 15 0 15 C0 10.05 0 5.1 0 0 Z " fill="#3F5F62" transform="translate(24,114)"/>
<path d="M0 0 C0.625 2.375 0.625 2.375 1 5 C-1 7 -1 7 -3.6015625 7.1953125 C-4.59929688 7.17210937 -5.59703125 7.14890625 -6.625 7.125 C-8.12933594 7.09792969 -8.12933594 7.09792969 -9.6640625 7.0703125 C-10.43492188 7.04710937 -11.20578125 7.02390625 -12 7 C-6.35714286 -2.27040816 -6.35714286 -2.27040816 0 0 Z " fill="#F9FDFB" transform="translate(56,54)"/>
<path d="M0 0 C1.2065625 0.0309375 1.2065625 0.0309375 2.4375 0.0625 C2.4375 0.7225 2.4375 1.3825 2.4375 2.0625 C0.7875 2.3925 -0.8625 2.7225 -2.5625 3.0625 C-2.2325 4.0525 -1.9025 5.0425 -1.5625 6.0625 C0.0875 6.0625 1.7375 6.0625 3.4375 6.0625 C4.0975 4.0825 4.7575 2.1025 5.4375 0.0625 C7.4375 2.0625 7.4375 2.0625 8.4375 5.0625 C8.7675 3.4125 9.0975 1.7625 9.4375 0.0625 C10.0975 0.0625 10.7575 0.0625 11.4375 0.0625 C11.4375 2.3725 11.4375 4.6825 11.4375 7.0625 C12.0975 7.3925 12.7575 7.7225 13.4375 8.0625 C11.4575 8.0625 9.4775 8.0625 7.4375 8.0625 C7.4375 7.4025 7.4375 6.7425 7.4375 6.0625 C6.4475 6.0625 5.4575 6.0625 4.4375 6.0625 C4.4375 6.7225 4.4375 7.3825 4.4375 8.0625 C1.0625 8.1875 1.0625 8.1875 -2.5625 8.0625 C-3.2225 7.4025 -3.8825 6.7425 -4.5625 6.0625 C-3.83457637 0.09352625 -3.83457637 0.09352625 0 0 Z " fill="#798D8E" transform="translate(81.5625,166.9375)"/>
<path d="M0 0 C1.65 0 3.3 0 5 0 C5 5.28 5 10.56 5 16 C4.34 16 3.68 16 3 16 C3 15.01 3 14.02 3 13 C2.01 12.67 1.02 12.34 0 12 C0 8.04 0 4.08 0 0 Z " fill="#F8FDFC" transform="translate(45,116)"/>
<path d="M0 0 C1.98 0 3.96 0 6 0 C6.66 0.66 7.32 1.32 8 2 C7.44444444 6.55555556 7.44444444 6.55555556 6 8 C4.33382885 8.04063832 2.66611905 8.042721 1 8 C1 10.31 1 12.62 1 15 C0.67 15 0.34 15 0 15 C0 10.05 0 5.1 0 0 Z " fill="#3B585A" transform="translate(60,135)"/>
<path d="M0 0 C0.66 0.33 1.32 0.66 2 1 C2 1.66 2 2.32 2 3 C1.36191406 2.98839844 0.72382812 2.97679688 0.06640625 2.96484375 C-0.75988281 2.95582031 -1.58617188 2.94679688 -2.4375 2.9375 C-3.26121094 2.92589844 -4.08492188 2.91429688 -4.93359375 2.90234375 C-6.99163938 2.76732652 -6.99163938 2.76732652 -8 4 C-8.25003964 7.45821402 -8.25003964 7.45821402 -8 11 C-6.23863645 13.18331689 -6.23863645 13.18331689 -4.0546875 13.1953125 C-1.02734375 13.09765625 -1.02734375 13.09765625 2 13 C0.13758747 15.4832167 -0.81888351 15.96917166 -3.9375 16.5 C-7 16 -7 16 -9.375 13.9375 C-11.40553614 10.26691544 -11.60190112 8.13807018 -11 4 C-8.0811897 -0.55334407 -5.14435411 -0.47632908 0 0 Z " fill="#4B6765" transform="translate(103,114)"/>
<path d="M0 0 C2.64 0 5.28 0 8 0 C8 0.66 8 1.32 8 2 C6.02 2 4.04 2 2 2 C2 3.32 2 4.64 2 6 C3.98 6 5.96 6 8 6 C8 6.66 8 7.32 8 8 C6.02 8 4.04 8 2 8 C2 9.98 2 11.96 2 14 C3.65 14 5.3 14 7 14 C7 14.33 7 14.66 7 15 C4.69 15 2.38 15 0 15 C0 10.05 0 5.1 0 0 Z " fill="#4A6769" transform="translate(81,114)"/>
<path d="M0 0 C2.0625 1.3125 2.0625 1.3125 4 4 C4.05898893 7.72702755 3.58315738 11.32357303 3 15 C2.67 14.34 2.34 13.68 2 13 C0.68 13.33 -0.64 13.66 -2 14 C-2 11.03 -2 8.06 -2 5 C-1.34 5 -0.68 5 0 5 C0 3.35 0 1.7 0 0 Z " fill="#EFF8F9" transform="translate(95,160)"/>
<path d="M0 0 C0.99 0 1.98 0 3 0 C3 4.62 3 9.24 3 14 C1.35 13.67 -0.3 13.34 -2 13 C-3.3125 10.4375 -3.3125 10.4375 -4 8 C-3.01 8 -2.02 8 -1 8 C-0.67 5.36 -0.34 2.72 0 0 Z " fill="#285056" transform="translate(140,136)"/>
<path d="M0 0 C2.5 0.125 2.5 0.125 3.5 1.125 C3.625 4.125 3.625 4.125 3.5 7.125 C2.5 8.125 2.5 8.125 0.0625 8.3125 C-2.5 8.125 -2.5 8.125 -4.5 6.125 C-3.77607362 0.18880368 -3.77607362 0.18880368 0 0 Z " fill="#688080" transform="translate(36.5,166.875)"/>
<path d="M0 0 C1.32 0 2.64 0 4 0 C4 4.62 4 9.24 4 14 C2.68 14 1.36 14 0 14 C0 9.38 0 4.76 0 0 Z " fill="#3D666F" transform="translate(163,136)"/>
<path d="M0 0 C1.5 1.125 1.5 1.125 3 3 C3.73573273 8.27275125 1.98217853 12.20973522 0 17 C-0.33 16.34 -0.66 15.68 -1 15 C-3.02463255 14.34786708 -3.02463255 14.34786708 -5 14 C-5 13.34 -5 12.68 -5 12 C-4.01 11.67 -3.02 11.34 -2 11 C-1.93941406 10.28972656 -1.87882812 9.57945312 -1.81640625 8.84765625 C-1.69072266 7.46900391 -1.69072266 7.46900391 -1.5625 6.0625 C-1.48128906 5.14597656 -1.40007813 4.22945313 -1.31640625 3.28515625 C-1 1 -1 1 0 0 Z " fill="#FBFCFC" transform="translate(38,119)"/>
<path d="M0 0 C2.00720923 0.28674418 4.0085944 0.61866701 6 1 C6.04254356 2.99954746 6.04080783 5.00041636 6 7 C5 8 5 8 2.5625 8.1875 C0 8 0 8 -2 6 C-1.44444444 1.44444444 -1.44444444 1.44444444 0 0 Z " fill="#748788" transform="translate(142,167)"/>
<path d="M0 0 C2.97 0 5.94 0 9 0 C9.33 1.32 9.66 2.64 10 4 C8 7 8 7 5 8 C5 6.02 5 4.04 5 2 C4.34 2 3.68 2 3 2 C3 3.98 3 5.96 3 8 C2.34 8 1.68 8 1 8 C0.67 5.36 0.34 2.72 0 0 Z " fill="#7B969B" transform="translate(112,156)"/>
<path d="M0 0 C2.31 0 4.62 0 7 0 C7 0.66 7 1.32 7 2 C5.68 2 4.36 2 3 2 C3 5.63 3 9.26 3 13 C3.99 13.33 4.98 13.66 6 14 C4.02 14 2.04 14 0 14 C0 9.38 0 4.76 0 0 Z " fill="#1F4A50" transform="translate(147,136)"/>
<path d="M0 0 C2.64 0 5.28 0 8 0 C8 0.66 8 1.32 8 2 C6.02 2 4.04 2 2 2 C2 3.32 2 4.64 2 6 C3.98 6 5.96 6 8 6 C8 6.66 8 7.32 8 8 C5.69 8 3.38 8 1 8 C1 9.98 1 11.96 1 14 C2.98 14 4.96 14 7 14 C7 14.33 7 14.66 7 15 C4.69 15 2.38 15 0 15 C0 10.05 0 5.1 0 0 Z " fill="#3A595C" transform="translate(51,114)"/>
<path d="M0 0 C1.875 0.5 1.875 0.5 4 2 C4.98494554 4.65177645 5.45912382 7.20547307 6 10 C4.68 10 3.36 10 2 10 C2 9.34 2 8.68 2 8 C-0.31 8 -2.62 8 -5 8 C-5 8.66 -5 9.32 -5 10 C-5.66 10 -6.32 10 -7 10 C-7 9.01 -7 8.02 -7 7 C-4.29120665 5.64560332 -1.99066732 5.93498549 1 6 C0.67 4.02 0.34 2.04 0 0 Z " fill="#274B52" transform="translate(177,140)"/>
<path d="M0 0 C0 3.63 0 7.26 0 11 C-0.99 11.495 -0.99 11.495 -2 12 C-2.67408308 10.73308493 -3.33900497 9.46129251 -4 8.1875 C-4.37125 7.47980469 -4.7425 6.77210937 -5.125 6.04296875 C-6 4 -6 4 -6 1 C-4 0 -4 0 0 0 Z " fill="#F2F8FB" transform="translate(146,114)"/>
<path d="M0 0 C0.33 1.65 0.66 3.3 1 5 C0.34 5 -0.32 5 -1 5 C-1.33 5.99 -1.66 6.98 -2 8 C-3.98 7.01 -5.96 6.02 -8 5 C-8 3.68 -8 2.36 -8 1 C-3.375 -1.125 -3.375 -1.125 0 0 Z " fill="#F6FCFD" transform="translate(137,150)"/>
<path d="M0 0 C3.3 0 6.6 0 10 0 C10 0.66 10 1.32 10 2 C8.68 2 7.36 2 6 2 C6 6.62 6 11.24 6 16 C5.34 16 4.68 16 4 16 C4 11.38 4 6.76 4 2 C2.68 2 1.36 2 0 2 C0 1.34 0 0.68 0 0 Z " fill="#4F6969" transform="translate(38,114)"/>
<path d="M0 0 C0.99 0 1.98 0 3 0 C3 5.28 3 10.56 3 16 C2.01 15.67 1.02 15.34 0 15 C0 10.05 0 5.1 0 0 Z " fill="#7A8E91" transform="translate(17,114)"/>
<path d="M0 0 C2.475 0.99 2.475 0.99 5 2 C5 4.31 5 6.62 5 9 C4.01 9.33 3.02 9.66 2 10 C2 9.01 2 8.02 2 7 C0.68 7 -0.64 7 -2 7 C-1.125 2.25 -1.125 2.25 0 0 Z " fill="#D0E8E8" transform="translate(129,166)"/>
<path d="M0 0 C1.66611905 -0.042721 3.33382885 -0.04063832 5 0 C6 1 6 1 6.125 4 C6 7 6 7 5 8 C3.33382885 8.04063832 1.66611905 8.042721 0 8 C0 5.36 0 2.72 0 0 Z " fill="#647B7A" transform="translate(109,167)"/>
<path d="M0 0 C1.010625 0.309375 2.02125 0.61875 3.0625 0.9375 C6.6731369 1.97647919 10.26874647 2.54311181 14 3 C14 4.98 14 6.96 14 9 C12.68 7.68 11.36 6.36 10 5 C9.34 6.65 8.68 8.3 8 10 C7.34 10 6.68 10 6 10 C6 8.02 6 6.04 6 4 C3.69 3.67 1.38 3.34 -1 3 C-0.67 2.01 -0.34 1.02 0 0 Z " fill="#E2F3F3" transform="translate(115,153)"/>
<path d="M0 0 C1.65 0 3.3 0 5 0 C3.68 0.33 2.36 0.66 1 1 C1.01160156 1.67804688 1.02320313 2.35609375 1.03515625 3.0546875 C1.09708351 9.44204207 0.77018868 15.65969676 0 22 C-0.66 22 -1.32 22 -2 22 C-2.02685412 19.68756208 -2.04632841 17.3750373 -2.0625 15.0625 C-2.07410156 13.77472656 -2.08570313 12.48695313 -2.09765625 11.16015625 C-2 8 -2 8 -1 7 C-0.63239269 4.67182036 -0.29758419 2.3381615 0 0 Z " fill="#B6C5C6" transform="translate(61,143)"/>
<path d="M0 0 C4.875 0.875 4.875 0.875 6 2 C6.125 4.5 6.125 4.5 6 7 C5 8 5 8 2.4375 8.0625 C1.633125 8.041875 0.82875 8.02125 0 8 C0 5.36 0 2.72 0 0 Z " fill="#677B7F" transform="translate(64,156)"/>
<path d="M0 0 C2.64 0 5.28 0 8 0 C7.67 1.65 7.34 3.3 7 5 C5.68 4.01 4.36 3.02 3 2 C3 4.31 3 6.62 3 9 C0.69 9 -1.62 9 -4 9 C-3.34 7.68 -2.68 6.36 -2 5 C-1.34 5 -0.68 5 0 5 C0 4.34 0 3.68 0 3 C-0.66 2.67 -1.32 2.34 -2 2 C-1.34 2 -0.68 2 0 2 C0 1.34 0 0.68 0 0 Z " fill="#CCE2E3" transform="translate(38,156)"/>
<path d="M0 0 C3.3 0 6.6 0 10 0 C10 1.65 10 3.3 10 5 C9.34 5 8.68 5 8 5 C8 5.66 8 6.32 8 7 C8.66 7.33 9.32 7.66 10 8 C8.68 8 7.36 8 6 8 C6 6.02 6 4.04 6 2 C5.01 2 4.02 2 3 2 C3 3.98 3 5.96 3 8 C2.67 8 2.34 8 2 8 C2 6.02 2 4.04 2 2 C1.34 2 0.68 2 0 2 C0 1.34 0 0.68 0 0 Z " fill="#758C8D" transform="translate(28,156)"/>
<path d="M0 0 C3 1 3 1 4.1875 3.0625 C4.455625 3.701875 4.72375 4.34125 5 5 C6.65 3.35 8.3 1.7 10 0 C8.125 5.875 8.125 5.875 7 7 C6.76924918 8.34747084 6.58846937 9.70377565 6.4375 11.0625 C6.293125 12.361875 6.14875 13.66125 6 15 C5.34 15 4.68 15 4 15 C3.87882812 14.33613281 3.75765625 13.67226562 3.6328125 12.98828125 C2.77452292 8.46575541 1.96028689 4.20061476 0 0 Z " fill="#4D6265" transform="translate(104,135)"/>
<path d="M0 0 C2.08304538 -0.05418326 4.16649768 -0.09287551 6.25 -0.125 C7.99023438 -0.15980469 7.99023438 -0.15980469 9.765625 -0.1953125 C12.82786046 -0.0103949 14.44202751 0.39176977 17 2 C14.69 2 12.38 2 10 2 C10 6.95 10 11.9 10 17 C9.67 17 9.34 17 9 17 C9 12.71 9 8.42 9 4 C8.34 4 7.68 4 7 4 C7 3.34 7 2.68 7 2 C4.36 2 1.72 2 -1 2 C-0.67 1.34 -0.34 0.68 0 0 Z " fill="#D1E7E8" transform="translate(41,112)"/>
<path d="M0 0 C4.95 1.65 9.9 3.3 15 5 C15 5.99 15 6.98 15 8 C9.03435204 7.49228528 4.36190101 5.61407872 -1 3 C-0.67 2.01 -0.34 1.02 0 0 Z " fill="#C8E3E7" transform="translate(65,40)"/>
<path d="M0 0 C3.70293685 -0.33663062 5.39534381 -0.47736015 8.375 1.875 C10 4 10 4 10 6 C4.375 7.125 4.375 7.125 1 6 C0.67 4.02 0.34 2.04 0 0 Z " fill="#1E4D58" transform="translate(35,25)"/>
<path d="M0 0 C0 3.3 0 6.6 0 10 C-0.66 10 -1.32 10 -2 10 C-2.33 8.35 -2.66 6.7 -3 5 C-3.66 6.32 -4.32 7.64 -5 9 C-5.185625 8.071875 -5.185625 8.071875 -5.375 7.125 C-5.87197356 4.80879168 -5.87197356 4.80879168 -8 3 C-5.28488343 -0.42962093 -4.93250871 0 0 0 Z " fill="#BECECD" transform="translate(110,155)"/>
<path d="M0 0 C4.875 0.875 4.875 0.875 6 2 C6.04063832 3.66617115 6.042721 5.33388095 6 7 C4.02 7.33 2.04 7.66 0 8 C0 5.36 0 2.72 0 0 Z " fill="#CDE3E5" transform="translate(150,139)"/>
<path d="M0 0 C0.99 0 1.98 0 3 0 C3 4.62 3 9.24 3 14 C2.01 14 1.02 14 0 14 C0 9.38 0 4.76 0 0 Z " fill="#224A54" transform="translate(122,136)"/>
<path d="M0 0 C0.99 1.485 0.99 1.485 2 3 C5.3006216 4.01557588 6.67212881 4.1092904 10 3 C10.66 4.32 11.32 5.64 12 7 C11.360625 7.12375 10.72125 7.2475 10.0625 7.375 C9.381875 7.58125 8.70125 7.7875 8 8 C7.67 8.66 7.34 9.32 7 10 C6.67 8.68 6.34 7.36 6 6 C4.02 6 2.04 6 0 6 C0 4.02 0 2.04 0 0 Z " fill="#DCEDEC" transform="translate(83,122)"/>
<path d="M0 0 C3.34998521 1.11666174 3.79340222 1.74694925 5.6875 4.5625 C6.12449219 5.20316406 6.56148437 5.84382813 7.01171875 6.50390625 C7.33785156 6.99761719 7.66398437 7.49132812 8 8 C5.69 7.67 3.38 7.34 1 7 C1 8.32 1 9.64 1 11 C0.34 10.67 -0.32 10.34 -1 10 C-0.67 6.7 -0.34 3.4 0 0 Z " fill="#D0E0E3" transform="translate(25,119)"/>
<path d="M0 0 C0.66 0 1.32 0 2 0 C2.66 0.99 3.32 1.98 4 3 C4.33 2.01 4.66 1.02 5 0 C5.66 0 6.32 0 7 0 C7 2.64 7 5.28 7 8 C6.34 8 5.68 8 5 8 C4.34 7.01 3.68 6.02 3 5 C2.67 5.99 2.34 6.98 2 8 C1.34 8 0.68 8 0 8 C0 5.36 0 2.72 0 0 Z " fill="#7D9093" transform="translate(101,167)"/>
<path d="M0 0 C2.97 0 5.94 0 9 0 C8.01 0.495 8.01 0.495 7 1 C7 1.66 7 2.32 7 3 C6.34 3 5.68 3 5 3 C5 5.31 5 7.62 5 10 C1.91866583 6.91866583 1.05975881 4.23903523 0 0 Z " fill="#DBEEEE" transform="translate(86,164)"/>
<path d="M0 0 C0.33 0 0.66 0 1 0 C1.36552803 1.41377782 1.71695495 2.83120576 2.0625 4.25 C2.25972656 5.03890625 2.45695313 5.8278125 2.66015625 6.640625 C3.01497267 9.10394822 2.76877544 10.65604132 2 13 C2.99 13 3.98 13 5 13 C5.33 12.34 5.66 11.68 6 11 C6.33 11.99 6.66 12.98 7 14 C4.69 14.66 2.38 15.32 0 16 C0 15.34 0 14.68 0 14 C-1.32 13.67 -2.64 13.34 -4 13 C-2.68 13 -1.36 13 0 13 C0 8.71 0 4.42 0 0 Z " fill="#D6E9EB" transform="translate(167,137)"/>
<path d="M0 0 C0.33 0 0.66 0 1 0 C1 4.29 1 8.58 1 13 C0.34 13 -0.32 13 -1 13 C-1.33 13.66 -1.66 14.32 -2 15 C-3.32 14.67 -4.64 14.34 -6 14 C-5.525625 13.443125 -5.05125 12.88625 -4.5625 12.3125 C-2.87604004 9.81653926 -2.41046893 7.9553763 -2 5 C-1.67 5 -1.34 5 -1 5 C-0.67 3.35 -0.34 1.7 0 0 Z " fill="#EBFAFC" transform="translate(58,135)"/>
<path d="M0 0 C0.66 0.33 1.32 0.66 2 1 C2.73075648 3.3140622 3.40138258 5.64828869 4 8 C3 9 3 9 0.4375 9.0625 C-0.366875 9.041875 -1.17125 9.02125 -2 9 C-3 6 -3 6 -1.5625 2.8125 C-1.046875 1.884375 -0.53125 0.95625 0 0 Z " fill="#759093" transform="translate(138,114)"/>
<path d="M0 0 C1.32 0 2.64 0 4 0 C4.33 2.64 4.66 5.28 5 8 C2.69 8 0.38 8 -2 8 C-1.33333333 5.33333333 -0.66666667 2.66666667 0 0 Z " fill="#749498" transform="translate(160,156)"/>
<path d="M0 0 C1.32 0 2.64 0 4 0 C3.9071875 1.60875 3.9071875 1.60875 3.8125 3.25 C4.00952342 7.19046831 4.47936936 8.16429053 7 11 C7 11.66 7 12.32 7 13 C4.4636387 11.98545548 3.20648539 11.3146444 1.6875 9 C1.3471875 8.01 1.3471875 8.01 1 7 C1.33 6.34 1.66 5.68 2 5 C1.34 5 0.68 5 0 5 C0 3.35 0 1.7 0 0 Z " fill="#8DA7A9" transform="translate(31,137)"/>
<path d="M0 0 C1.9375 0.75 1.9375 0.75 4 2 C4.75 4.125 4.75 4.125 5 6 C5.99 6 6.98 6 8 6 C7.67 5.34 7.34 4.68 7 4 C7.99 4 8.98 4 10 4 C9.67 5.32 9.34 6.64 9 8 C6 8 3 8 0 8 C0 5.36 0 2.72 0 0 Z " fill="#6B8588" transform="translate(82,156)"/>
<path d="M0 0 C0.33 0 0.66 0 1 0 C1 2.64 1 5.28 1 8 C0.34 8 -0.32 8 -1 8 C-1.66 7.01 -2.32 6.02 -3 5 C-3.33 5.99 -3.66 6.98 -4 8 C-4.66 8 -5.32 8 -6 8 C-6 5.69 -6 3.38 -6 1 C-4.02 1.99 -4.02 1.99 -2 3 C-1.34 2.01 -0.68 1.02 0 0 Z " fill="#718A8D" transform="translate(99,156)"/>
<path d="M0 0 C0.33 0.99 0.66 1.98 1 3 C-0.4375 5.6875 -0.4375 5.6875 -3 8 C-6.00603534 8.71227343 -7.82777247 8.45317536 -11 8 C-13 6 -13 6 -14 4 C-13.01 4 -12.02 4 -11 4 C-11 4.66 -11 5.32 -11 6 C-6.9344067 5.81162065 -6.9344067 5.81162065 -3 5 C-0.93545998 2.59256899 -0.93545998 2.59256899 0 0 Z " fill="#4D6969" transform="translate(55,142)"/>
<path d="M0 0 C6.6 0 13.2 0 20 0 C20 0.33 20 0.66 20 1 C18.6078125 1.185625 18.6078125 1.185625 17.1875 1.375 C13.86074765 1.81533082 13.86074765 1.81533082 11 4 C10.34 4 9.68 4 9 4 C8.67 4.99 8.34 5.98 8 7 C7.79375 6.195625 7.5875 5.39125 7.375 4.5625 C6.92125 3.716875 6.4675 2.87125 6 2 C2.94727535 1.10169161 2.94727535 1.10169161 0 1 C0 0.67 0 0.34 0 0 Z " fill="#BED3D6" transform="translate(82,134)"/>
<path d="M0 0 C1.5 1.25 1.5 1.25 3 3 C3 4.32 3 5.64 3 7 C0.36 7.33 -2.28 7.66 -5 8 C-5.33 8.99 -5.66 9.98 -6 11 C-5.67 9.02 -5.34 7.04 -5 5 C-4.01 5 -3.02 5 -2 5 C-1.34 3.35 -0.68 1.7 0 0 Z " fill="#3D616A" transform="translate(175,139)"/>
<path d="M0 0 C2.13093906 1.06546953 3.36587557 2.29159719 5 4 C3.02 4 1.04 4 -1 4 C-1 8.95 -1 13.9 -1 19 C-1.33 19 -1.66 19 -2 19 C-2.24803781 16.20882755 -2.47414334 13.41884926 -2.6875 10.625 C-2.76033203 9.8309375 -2.83316406 9.036875 -2.90820312 8.21875 C-3.07421875 5.9140625 -3.07421875 5.9140625 -3 2 C-2.01 1.34 -1.02 0.68 0 0 Z " fill="#C2D4D7" transform="translate(19,131)"/>
<path d="M0 0 C2.97 0 5.94 0 9 0 C9 0.99 9 1.98 9 3 C8.34 3 7.68 3 7 3 C6.67 7.62 6.34 12.24 6 17 C5.67 17 5.34 17 5 17 C4.67 12.38 4.34 7.76 4 3 C2.68 2.67 1.36 2.34 0 2 C0 1.34 0 0.68 0 0 Z " fill="#C6D6D7" transform="translate(18,112)"/>
<path d="M0 0 C0.33 0.99 0.66 1.98 1 3 C-1.12063454 6.83647559 -3.750106 10.0637397 -7 13 C-10.10132742 13.87339238 -11.76040485 13.57849913 -15 13 C-14.46375 12.7525 -13.9275 12.505 -13.375 12.25 C-7.60316076 9.21218987 -2.9767002 5.9534004 0 0 Z " fill="#D8EEEF" transform="translate(51,48)"/>
<path d="M0 0 C1.08667969 0.29197266 1.08667969 0.29197266 2.1953125 0.58984375 C2.74960938 0.74582031 3.30390625 0.90179688 3.875 1.0625 C2.885 1.3925 1.895 1.7225 0.875 2.0625 C0.875 4.7025 0.875 7.3425 0.875 10.0625 C0.545 10.0625 0.215 10.0625 -0.125 10.0625 C-0.125 7.4225 -0.125 4.7825 -0.125 2.0625 C-0.785 2.0625 -1.445 2.0625 -2.125 2.0625 C-2.455 3.3825 -2.785 4.7025 -3.125 6.0625 C-6.125 2.3125 -6.125 2.3125 -6.125 0.0625 C-3.57797384 -1.21101308 -2.6967055 -0.73941925 0 0 Z " fill="#E0F4F4" transform="translate(108.125,164.9375)"/>
<path d="M0 0 C0.99 0.66 1.98 1.32 3 2 C3 2.99 3 3.98 3 5 C3.66 5.33 4.32 5.66 5 6 C3.02 7.32 1.04 8.64 -1 10 C-1.66 8.35 -2.32 6.7 -3 5 C-2.01 5 -1.02 5 0 5 C0 3.35 0 1.7 0 0 Z " fill="#EAF8F9" transform="translate(41,160)"/>
<path d="M0 0 C3.3 0 6.6 0 10 0 C10 0.66 10 1.32 10 2 C8.35 2 6.7 2 5 2 C5 6.29 5 10.58 5 15 C4.67 15 4.34 15 4 15 C4 10.71 4 6.42 4 2 C2.68 2 1.36 2 0 2 C0 1.34 0 0.68 0 0 Z " fill="#3A5B59" transform="translate(107,114)"/>
<path d="M0 0 C0.515625 0.37125 1.03125 0.7425 1.5625 1.125 C-0.71926413 3.19884637 -1.88073483 4.10897191 -5.015625 4.19921875 C-5.89734375 4.07160156 -6.7790625 3.94398437 -7.6875 3.8125 C-9.02554688 3.63267578 -9.02554688 3.63267578 -10.390625 3.44921875 C-11.40382813 3.28873047 -11.40382813 3.28873047 -12.4375 3.125 C-8.5804359 0.55362393 -4.59539006 -1.6496272 0 0 Z " fill="#2F535D" transform="translate(81.4375,70.875)"/>
<path d="M0 0 C1.41750563 0.11509661 2.83401169 0.24253658 4.25 0.375 C5.03890625 0.44460937 5.8278125 0.51421875 6.640625 0.5859375 C9.085877 1.01507113 10.84836903 1.78600638 13 3 C10.56661348 4.53508028 9.32875493 5.03088304 6.421875 4.7578125 C5.09929687 4.44457031 5.09929687 4.44457031 3.75 4.125 C2.85796875 3.92132813 1.9659375 3.71765625 1.046875 3.5078125 C0.37140625 3.34023437 -0.3040625 3.17265625 -1 3 C-0.67 2.01 -0.34 1.02 0 0 Z " fill="#C6DFE3" transform="translate(91,67)"/>
<path d="M0 0 C0.66 0 1.32 0 2 0 C2 0.99 2 1.98 2 3 C2.99 3.33 3.98 3.66 5 4 C3.5459375 4.433125 3.5459375 4.433125 2.0625 4.875 C-1.10664203 5.64214682 -1.10664203 5.64214682 -2 8 C-1.34 8 -0.68 8 0 8 C0 8.66 0 9.32 0 10 C0.66 10 1.32 10 2 10 C1.34 11.65 0.68 13.3 0 15 C-0.66 14.67 -1.32 14.34 -2 14 C-2 12.68 -2 11.36 -2 10 C-2.30404678 8.32774271 -2.63128912 6.65919896 -3 5 C-1.68 4.34 -0.36 3.68 1 3 C0.67 2.01 0.34 1.02 0 0 Z " fill="#628083" transform="translate(34,28)"/>
<path d="M0 0 C1.2065625 0.0309375 1.2065625 0.0309375 2.4375 0.0625 C2.1075 0.7225 1.7775 1.3825 1.4375 2.0625 C0.4475 2.0625 -0.5425 2.0625 -1.5625 2.0625 C-1.5625 3.3825 -1.5625 4.7025 -1.5625 6.0625 C-0.5725 6.3925 0.4175 6.7225 1.4375 7.0625 C1.1075 6.0725 0.7775 5.0825 0.4375 4.0625 C1.4275 4.0625 2.4175 4.0625 3.4375 4.0625 C3.1075 5.3825 2.7775 6.7025 2.4375 8.0625 C-2.11634615 8.43173077 -2.11634615 8.43173077 -4.375 6.5625 C-4.766875 6.0675 -5.15875 5.5725 -5.5625 5.0625 C-3.15007962 0.07683121 -3.15007962 0.07683121 0 0 Z " fill="#6C8485" transform="translate(45.5625,166.9375)"/>
<path d="M0 0 C0.33 0 0.66 0 1 0 C1 1.65 1 3.3 1 5 C2.88316159 6.10836423 2.88316159 6.10836423 5 7 C5.66 6.67 6.32 6.34 7 6 C7.33 7.32 7.66 8.64 8 10 C5.03 9.01 2.06 8.02 -1 7 C-1.625 4.625 -1.625 4.625 -2 2 C-1.34 1.34 -0.68 0.68 0 0 Z " fill="#1C4B55" transform="translate(23,48)"/>
<path d="M0 0 C2.31 0.33 4.62 0.66 7 1 C7 2.65 7 4.3 7 6 C5.35 6.33 3.7 6.66 2 7 C1.67 6.01 1.34 5.02 1 4 C1.33 3.34 1.66 2.68 2 2 C1.34 1.34 0.68 0.68 0 0 Z " fill="#2A5564" transform="translate(80,48)"/>
<path d="M0 0 C1.175625 0.5259375 1.175625 0.5259375 2.375 1.0625 C4.95357601 2.30300466 4.95357601 2.30300466 7.3125 1.125 C7.869375 0.75375 8.42625 0.3825 9 0 C9.33 1.65 9.66 3.3 10 5 C9.01 5.33 8.02 5.66 7 6 C4.5625 4.6875 4.5625 4.6875 2 3 C0.67391178 2.31903578 -0.65686601 1.64669414 -2 1 C-1.34 0.67 -0.68 0.34 0 0 Z " fill="#335B66" transform="translate(102,67)"/>
<path d="M0 0 C0.99 0 1.98 0 3 0 C3 1.32 3 2.64 3 4 C3.2981424 5.34164079 3.62243192 6.67851173 4 8 C3.01 8.33 2.02 8.66 1 9 C0.34 8.67 -0.32 8.34 -1 8 C-0.67 5.36 -0.34 2.72 0 0 Z " fill="#8BA5A3" transform="translate(53,156)"/>
<path d="M0 0 C2.475 0.495 2.475 0.495 5 1 C4.67 2.32 4.34 3.64 4 5 C3.34 5 2.68 5 2 5 C2 5.99 2 6.98 2 8 C1.34 8 0.68 8 0 8 C0 5.36 0 2.72 0 0 Z " fill="#7C9795" transform="translate(18,156)"/>
<path d="M0 0 C0.99 0 1.98 0 3 0 C2.125 4.875 2.125 4.875 1 6 C-0.66617115 6.04063832 -2.33388095 6.042721 -4 6 C-2.84826645 3.53199953 -1.95216435 1.95216435 0 0 Z " fill="#416166" transform="translate(24,27)"/>
<path d="M0 0 C1.17949219 0.10183594 2.35898438 0.20367187 3.57421875 0.30859375 C4.47785156 0.39238281 5.38148437 0.47617188 6.3125 0.5625 C6.3125 0.8925 6.3125 1.2225 6.3125 1.5625 C5.40886719 1.69527344 4.50523438 1.82804687 3.57421875 1.96484375 C1.80498047 2.22974609 1.80498047 2.22974609 0 2.5 C-1.75763672 2.76103516 -1.75763672 2.76103516 -3.55078125 3.02734375 C-6.70391403 3.48343031 -6.70391403 3.48343031 -9.6875 4.5625 C-9.6875 3.2425 -9.6875 1.9225 -9.6875 0.5625 C-6.14075997 -0.61974668 -3.71227005 -0.33079634 0 0 Z " fill="#335C62" transform="translate(80.6875,65.4375)"/>
<path d="M0 0 C1.98 0 3.96 0 6 0 C6 0.99 6 1.98 6 3 C3 5.1875 3 5.1875 0 7 C0 4.69 0 2.38 0 0 Z " fill="#2E555B" transform="translate(18,35)"/>
<path d="M0 0 C2.475 0.99 2.475 0.99 5 2 C5.33 4.31 5.66 6.62 6 9 C5.67 7.68 5.34 6.36 5 5 C4.2575 4.87625 3.515 4.7525 2.75 4.625 C0.19858515 4.04513299 -1.7267573 3.26291261 -4 2 C-2.68 2 -1.36 2 0 2 C0 1.34 0 0.68 0 0 Z " fill="#40636C" transform="translate(154,136)"/>
<path d="M0 0 C1.32 0 2.64 0 4 0 C4.33 1.65 4.66 3.3 5 5 C3.35 5.33 1.7 5.66 0 6 C0 4.02 0 2.04 0 0 Z " fill="#BBD4D6" transform="translate(61,136)"/>
<path d="M0 0 C0.33 0 0.66 0 1 0 C2.125 6.625 2.125 6.625 1 10 C-1.0625 10.6875 -1.0625 10.6875 -3 11 C-3 10.34 -3 9.68 -3 9 C-4.65 9 -6.3 9 -8 9 C-8 8.67 -8 8.34 -8 8 C-5.69 7.34 -3.38 6.68 -1 6 C-0.67 4.02 -0.34 2.04 0 0 Z " fill="#45686E" transform="translate(43,48)"/>
<path d="M0 0 C1.98 0.495 1.98 0.495 4 1 C3.67 2.65 3.34 4.3 3 6 C1.68 5.67 0.36 5.34 -1 5 C-0.67 3.35 -0.34 1.7 0 0 Z " fill="#DBEEEF" transform="translate(35,168)"/>
<path d="M0 0 C1.65 0 3.3 0 5 0 C5 0.99 5 1.98 5 3 C4.01 3.495 4.01 3.495 3 4 C3 4.66 3 5.32 3 6 C1.68 5.67 0.36 5.34 -1 5 C-0.67 3.35 -0.34 1.7 0 0 Z " fill="#CEE5E7" transform="translate(44,168)"/>
<path d="M0 0 C0.66 0.33 1.32 0.66 2 1 C2 2.32 2 3.64 2 5 C1.01 5 0.02 5 -1 5 C-1 5.66 -1 6.32 -1 7 C-2.32 7 -3.64 7 -5 7 C-5.33 6.01 -5.66 5.02 -6 4 C-5.38125 3.896875 -4.7625 3.79375 -4.125 3.6875 C-1.63473516 3.12474627 -1.63473516 3.12474627 0 0 Z " fill="#6B8889" transform="translate(156,157)"/>
<path d="M0 0 C1.32 0 2.64 0 4 0 C4 1.65 4 3.3 4 5 C3.34 5 2.68 5 2 5 C2 5.66 2 6.32 2 7 C2.66 7.33 3.32 7.66 4 8 C2.68 8 1.36 8 0 8 C0 5.36 0 2.72 0 0 Z " fill="#6D8E8D" transform="translate(71,156)"/>
<path d="M0 0 C2.31 0.33 4.62 0.66 7 1 C7.33 1.99 7.66 2.98 8 4 C4.37673261 5.2077558 3.35853631 4.54311128 0 3 C0 2.01 0 1.02 0 0 Z " fill="#F9FBFD" transform="translate(84,122)"/>
<path d="M0 0 C1.33332095 2.6666419 0.67102033 4.16680303 0 7 C-0.61875 6.79375 -1.2375 6.5875 -1.875 6.375 C-2.57625 6.25125 -3.2775 6.1275 -4 6 C-4.66 6.66 -5.32 7.32 -6 8 C-8.125 7.625 -8.125 7.625 -10 7 C-9.36191406 6.57847656 -8.72382812 6.15695313 -8.06640625 5.72265625 C-7.24011719 5.17480469 -6.41382812 4.62695312 -5.5625 4.0625 C-4.73878906 3.51722656 -3.91507812 2.97195312 -3.06640625 2.41015625 C-1.10014075 1.16197019 -1.10014075 1.16197019 0 0 Z " fill="#D7E8EB" transform="translate(109,78)"/>
<path d="M0 0 C0.99 1.32 1.98 2.64 3 4 C0.0534615 5.80066242 -2.88801935 7.50163895 -6 9 C-5.67 8.01 -5.34 7.02 -5 6 C-4.34 6 -3.68 6 -3 6 C-3 4.68 -3 3.36 -3 2 C-2.01 1.34 -1.02 0.68 0 0 Z " fill="#D9F1F3" transform="translate(27,32)"/>
<path d="M0 0 C2.31 0 4.62 0 7 0 C7.33 0.66 7.66 1.32 8 2 C5.03 1.505 5.03 1.505 2 1 C2.33 2.32 2.66 3.64 3 5 C2.01 5.33 1.02 5.66 0 6 C0 5.34 0 4.68 0 4 C-0.66 4 -1.32 4 -2 4 C-1.34 2.68 -0.68 1.36 0 0 Z " fill="#E0F0F2" transform="translate(34,32)"/>
<path d="M0 0 C1.485 0.99 1.485 0.99 3 2 C5.05709596 2.24055468 5.05709596 2.24055468 7.1875 2.125 C8.445625 2.08375 9.70375 2.0425 11 2 C9.10442866 4.52742845 8.19410622 4.97169284 5 5.4375 C2 5 2 5 0.125 3 C-0.24625 2.34 -0.6175 1.68 -1 1 C-0.67 0.67 -0.34 0.34 0 0 Z " fill="#587273" transform="translate(94,125)"/>
<path d="M0 0 C0.66 1.32 1.32 2.64 2 4 C2.66 3.67 3.32 3.34 4 3 C6 5 6 5 6 8 C5.38125 7.79375 4.7625 7.5875 4.125 7.375 C3.42375 7.25125 2.7225 7.1275 2 7 C1.34 7.66 0.68 8.32 0 9 C0 6.03 0 3.06 0 0 Z " fill="#3B666D" transform="translate(17,37)"/>
<path d="M0 0 C0.99 0 1.98 0 3 0 C3 2.64 3 5.28 3 8 C2.01 8 1.02 8 0 8 C0 5.36 0 2.72 0 0 Z " fill="#8EA7A7" transform="translate(73,167)"/>
<path d="M0 0 C0.99 0.33 1.98 0.66 3 1 C3.33 3.64 3.66 6.28 4 9 C3.01 9.33 2.02 9.66 1 10 C0 9 0 9 -0.09765625 6.93359375 C-0.08605469 6.10988281 -0.07445312 5.28617188 -0.0625 4.4375 C-0.05347656 3.61121094 -0.04445312 2.78492188 -0.03515625 1.93359375 C-0.02355469 1.29550781 -0.01195312 0.65742188 0 0 Z " fill="#EBFAFA" transform="translate(61,157)"/>
<path d="M0 0 C0.33 0 0.66 0 1 0 C1.04898438 0.90363281 1.09796875 1.80726562 1.1484375 2.73828125 C1.22320312 3.91777344 1.29796875 5.09726563 1.375 6.3125 C1.44460937 7.48425781 1.51421875 8.65601562 1.5859375 9.86328125 C1.78613747 13.15699887 1.78613747 13.15699887 4 16 C3.01 16 2.02 16 1 16 C-1.26273207 12.44181064 -1.07331744 9.87452049 -0.625 5.75 C-0.51414062 4.67234375 -0.40328125 3.5946875 -0.2890625 2.484375 C-0.19367188 1.66453125 -0.09828125 0.8446875 0 0 Z " fill="#DAEAED" transform="translate(118,114)"/>
<path d="M0 0 C1.98 0 3.96 0 6 0 C6 0.99 6 1.98 6 3 C4.02 3.33 2.04 3.66 0 4 C0 2.68 0 1.36 0 0 Z " fill="#E9FAFC" transform="translate(83,116)"/>
<path d="M0 0 C1.32 0 2.64 0 4 0 C3.6875 2.875 3.6875 2.875 3 6 C2.01 6.66 1.02 7.32 0 8 C0 5.36 0 2.72 0 0 Z " fill="#5D8282" transform="translate(50,167)"/>
<path d="M0 0 C2.50037734 2.17424117 3.43628586 3.73045798 4 7 C3.34 7 2.68 7 2 7 C2 6.34 2 5.68 2 5 C1.01 5 0.02 5 -1 5 C-1 5.66 -1 6.32 -1 7 C-1.99 6.67 -2.98 6.34 -4 6 C-3.34 6 -2.68 6 -2 6 C-1.34 4.02 -0.68 2.04 0 0 Z " fill="#5D7C7D" transform="translate(125,157)"/>
<path d="M0 0 C2.89932357 2.39509338 3.50168276 4.31245243 4 8 C3.34 7.67 2.68 7.34 2 7 C2 6.34 2 5.68 2 5 C1.01 5 0.02 5 -1 5 C-1 5.66 -1 6.32 -1 7 C-1.66 6.67 -2.32 6.34 -3 6 C-2.01 4.02 -1.02 2.04 0 0 Z " fill="#698585" transform="translate(25,157)"/>
<path d="M0 0 C0.625 1.875 0.625 1.875 1 4 C-0.95216435 5.95216435 -2.53199953 6.84826645 -5 8 C-5 7.34 -5 6.68 -5 6 C-7.31 6 -9.62 6 -12 6 C-12 5.67 -12 5.34 -12 5 C-6.555 4.505 -6.555 4.505 -1 4 C-0.67 2.68 -0.34 1.36 0 0 Z " fill="#CBE0E2" transform="translate(159,145)"/>
<path d="M0 0 C0.66 0.33 1.32 0.66 2 1 C1.67 4.63 1.34 8.26 1 12 C-0.32 12.33 -1.64 12.66 -3 13 C-3 12.01 -3 11.02 -3 10 C-2.01 10.33 -1.02 10.66 0 11 C0 7.37 0 3.74 0 0 Z " fill="#E7F6F8" transform="translate(36,118)"/>
<path d="M0 0 C3.3 0 6.6 0 10 0 C10 0.99 10 1.98 10 3 C6.37 2.67 2.74 2.34 -1 2 C-0.67 1.34 -0.34 0.68 0 0 Z " fill="#EEFCFD" transform="translate(31,22)"/>
<path d="M0 0 C1.65 0 3.3 0 5 0 C4.67 1.65 4.34 3.3 4 5 C2.68 4.67 1.36 4.34 0 4 C0 2.68 0 1.36 0 0 Z " fill="#DEF0F2" transform="translate(142,169)"/>
<path d="M0 0 C1.65 1.65 3.3 3.3 5 5 C4.360625 5.12375 3.72125 5.2475 3.0625 5.375 C2.0415625 5.684375 2.0415625 5.684375 1 6 C0.67 6.66 0.34 7.32 0 8 C-0.66 7.34 -1.32 6.68 -2 6 C-1.34 6 -0.68 6 0 6 C0 4.02 0 2.04 0 0 Z " fill="#E4F8F9" transform="translate(31,144)"/>
<path d="M0 0 C0.99 0.33 1.98 0.66 3 1 C2.67 1.99 2.34 2.98 2 4 C2.66 4 3.32 4 4 4 C2.25 7.875 2.25 7.875 0 9 C0 6.03 0 3.06 0 0 Z " fill="#234C55" transform="translate(44,48)"/>
<path d="M0 0 C0.66 0.33 1.32 0.66 2 1 C2 1.99 2 2.98 2 4 C-3.75 7 -3.75 7 -6 7 C-5 4 -5 4 -3 2.9375 C-2.34 2.628125 -1.68 2.31875 -1 2 C-0.67 1.34 -0.34 0.68 0 0 Z " fill="#38585F" transform="translate(108,36)"/>
<path d="M0 0 C6.57142857 4 6.57142857 4 8 8 C6.68 8 5.36 8 4 8 C3.67 6.35 3.34 4.7 3 3 C2.01 2.67 1.02 2.34 0 2 C0 1.34 0 0.68 0 0 Z " fill="#325862" transform="translate(42,26)"/>
<path d="M0 0 C1.32 0.33 2.64 0.66 4 1 C4 2.32 4 3.64 4 5 C2.68 5.33 1.36 5.66 0 6 C0 4.02 0 2.04 0 0 Z " fill="#D3E8E9" transform="translate(110,168)"/>
<path d="M0 0 C1.32 0 2.64 0 4 0 C4 2.31 4 4.62 4 7 C2.68 7.33 1.36 7.66 0 8 C0.185625 7.05125 0.37125 6.1025 0.5625 5.125 C1.28686632 2.10131207 1.28686632 2.10131207 0 0 Z " fill="#E3F4F5" transform="translate(66,135)"/>
<path d="M0 0 C2.64 0 5.28 0 8 0 C7 2 7 2 5.15234375 2.6328125 C4.42144531 2.79523437 3.69054687 2.95765625 2.9375 3.125 C1.83728516 3.37636719 1.83728516 3.37636719 0.71484375 3.6328125 C0.14894531 3.75398438 -0.41695313 3.87515625 -1 4 C-0.67 2.68 -0.34 1.36 0 0 Z " fill="#DEF1F1" transform="translate(90,46)"/>
<path d="M0 0 C0 0.66 0 1.32 0 2 C0.66 2 1.32 2 2 2 C2 2.66 2 3.32 2 4 C-1.3 3.01 -4.6 2.02 -8 1 C-8 0.67 -8 0.34 -8 0 C-4.71303767 -0.79953138 -3.28976808 -1.09658936 0 0 Z " fill="#D3E4E7" transform="translate(102,28)"/>
<path d="M0 0 C1.32 0 2.64 0 4 0 C3.67 2.64 3.34 5.28 3 8 C2.34 8 1.68 8 1 8 C0.67 5.36 0.34 2.72 0 0 Z " fill="#859495" transform="translate(112,156)"/>
<path d="M0 0 C2 3 2 3 2 5 C0.68 5 -0.64 5 -2 5 C-2 4.34 -2 3.68 -2 3 C-3.98 3 -5.96 3 -8 3 C-8 2.67 -8 2.34 -8 2 C-6.865625 1.855625 -5.73125 1.71125 -4.5625 1.5625 C-1.19222799 1.38828522 -1.19222799 1.38828522 0 0 Z " fill="#456466" transform="translate(181,145)"/>
<path d="M0 0 C2.64 0 5.28 0 8 0 C8 0.66 8 1.32 8 2 C6.02 2 4.04 2 2 2 C1.67 3.32 1.34 4.64 1 6 C0.67 4.02 0.34 2.04 0 0 Z " fill="#557272" transform="translate(51,114)"/>
<path d="M0 0 C0.66 0 1.32 0 2 0 C3.0625 1.8125 3.0625 1.8125 4 4 C3.67 4.99 3.34 5.98 3 7 C3 6.34 3 5.68 3 5 C1.68 5 0.36 5 -1 5 C-0.67 3.35 -0.34 1.7 0 0 Z " fill="#638281" transform="translate(128,168)"/>
<path d="M0 0 C0 0.66 0 1.32 0 2 C0.66 2.33 1.32 2.66 2 3 C-1.28696233 3.79953138 -2.71023192 4.09658936 -6 3 C-6 2.34 -6 1.68 -6 1 C-3.92446352 0.4465236 -2.15634036 0 0 0 Z " fill="#385B62" transform="translate(156,146)"/>
<path d="M0 0 C1.32 0.33 2.64 0.66 4 1 C4 2.32 4 3.64 4 5 C2.68 5 1.36 5 0 5 C0 3.35 0 1.7 0 0 Z " fill="#D1E8EB" transform="translate(84,136)"/>
<path d="M0 0 C5.75 0.875 5.75 0.875 8 2 C7.67 2.99 7.34 3.98 7 5 C1.125 2.25 1.125 2.25 0 0 Z " fill="#DCF3F7" transform="translate(101,70)"/>
<path d="M0 0 C0.99 0.33 1.98 0.66 3 1 C3.625 2.875 3.625 2.875 4 5 C4.33 5.99 4.66 6.98 5 8 C3.68 8 2.36 8 1 8 C0.67 5.36 0.34 2.72 0 0 Z " fill="#D9F0F2" transform="translate(155,166)"/>
<path d="M0 0 C0.66 0 1.32 0 2 0 C2 2.64 2 5.28 2 8 C1.34 8 0.68 8 0 8 C-0.98120464 4.94736336 -0.98120464 3.05263664 0 0 Z " fill="#7F9999" transform="translate(106,167)"/>
<path d="M0 0 C1.32 1.32 2.64 2.64 4 4 C3.67 4.66 3.34 5.32 3 6 C2.34 6 1.68 6 1 6 C1 5.34 1 4.68 1 4 C0.01 3.67 -0.98 3.34 -2 3 C-1 1 -1 1 0 0 Z " fill="#EAF3F5" transform="translate(161,167)"/>
<path d="M0 0 C3.875 2.75 3.875 2.75 5 5 C3.35 5.66 1.7 6.32 0 7 C0 4.69 0 2.38 0 0 Z " fill="#D6E8E9" transform="translate(119,162)"/>
<path d="M0 0 C1.32 0.33 2.64 0.66 4 1 C3.67 2.32 3.34 3.64 3 5 C2.01 5 1.02 5 0 5 C0 3.35 0 1.7 0 0 Z " fill="#CCE3E6" transform="translate(65,158)"/>
<path d="M0 0 C0.33 0.66 0.66 1.32 1 2 C1.66 2 2.32 2 3 2 C2 4 2 4 0 6 C-2.125 5.625 -2.125 5.625 -4 5 C-2.68 3.35 -1.36 1.7 0 0 Z " fill="#E0EFEF" transform="translate(56,144)"/>
<path d="M0 0 C0.66 0.99 1.32 1.98 2 3 C1 4 1 4 -0.84765625 4.09765625 C-2.8984375 4.06510417 -4.94921875 4.03255208 -7 4 C-7 3.34 -7 2.68 -7 2 C-4.69 2 -2.38 2 0 2 C0 1.34 0 0.68 0 0 Z " fill="#DDEDEE" transform="translate(51,144)"/>
<path d="M0 0 C0 0.66 0 1.32 0 2 C-3.21451269 3.60725635 -6.43612536 3.05748185 -10 3 C-6.41600853 0.61067235 -4.26804999 0 0 0 Z " fill="#D4E9EA" transform="translate(99,86)"/>
<path d="M0 0 C2.475 0.495 2.475 0.495 5 1 C5.33 2.32 5.66 3.64 6 5 C5.01 5.495 5.01 5.495 4 6 C3.34 5.67 2.68 5.34 2 5 C2 4.01 2 3.02 2 2 C1.34 1.34 0.68 0.68 0 0 Z " fill="#2F5965" transform="translate(44,47)"/>
<path d="M0 0 C1.65 1.65 3.3 3.3 5 5 C4.01 5.33 3.02 5.66 2 6 C0.35 4.35 -1.3 2.7 -3 1 C-2.01 0.67 -1.02 0.34 0 0 Z " fill="#DEEBED" transform="translate(46,25)"/>
<path d="M0 0 C0.66 0.33 1.32 0.66 2 1 C2 3.31 2 5.62 2 8 C1.34 8 0.68 8 0 8 C-0.79953138 4.71303767 -1.09658936 3.28976808 0 0 Z " fill="#EBF8F9" transform="translate(84,162)"/>
<path d="M0 0 C0.99 0.33 1.98 0.66 3 1 C3 2.65 3 4.3 3 6 C2.01 6 1.02 6 0 6 C0 4.02 0 2.04 0 0 Z " fill="#224B50" transform="translate(163,144)"/>
<path d="M0 0 C1.5 1.3125 1.5 1.3125 3 3 C3 3.99 3 4.98 3 6 C1.68 6 0.36 6 -1 6 C-0.67 4.02 -0.34 2.04 0 0 Z " fill="#AED7DB" transform="translate(175,139)"/>
<path d="M0 0 C0.99 0.66 1.98 1.32 3 2 C2.01 2.495 2.01 2.495 1 3 C0.34444881 5.52733235 0.34444881 5.52733235 0 8 C-0.99 6.68 -1.98 5.36 -3 4 C-2.34 3.67 -1.68 3.34 -1 3 C-0.67 2.01 -0.34 1.02 0 0 Z " fill="#C7DBE2" transform="translate(29,23)"/>
</svg>
