<?xml version="1.0" encoding="UTF-8"?>
<svg version="1.1" xmlns="http://www.w3.org/2000/svg" width="203" height="83">
<path d="M0 0 C66.99 0 133.98 0 203 0 C203 27.39 203 54.78 203 83 C136.01 83 69.02 83 0 83 C0 55.61 0 28.22 0 0 Z " fill="#FDF6F3" transform="translate(0,0)"/>
<path d="M0 0 C6.765 -0.0825 13.53 -0.165 20.5 -0.25 C22.61986328 -0.28641602 24.73972656 -0.32283203 26.92382812 -0.36035156 C28.62629182 -0.37204691 30.3287668 -0.38223673 32.03125 -0.390625 C32.89717773 -0.41108887 33.76310547 -0.43155273 34.65527344 -0.45263672 C42.03718201 -0.45682622 47.11015328 1.56990163 52.75 6.3125 C57.79453217 12.33791343 59.70074246 16.33567199 59.38671875 24.21875 C58.43420088 31.06918156 55.492875 36.72776389 50 41 C43.46651627 44.76859658 37.88618049 45.53417563 30.4375 45.25 C29.52419922 45.23195312 28.61089844 45.21390625 27.66992188 45.1953125 C25.44546486 45.14872701 23.22333033 45.08335485 21 45 C21 44.01 21 43.02 21 42 C21.56920166 41.98541748 22.13840332 41.97083496 22.72485352 41.95581055 C25.33803828 41.88070835 27.95003099 41.78425811 30.5625 41.6875 C31.90538086 41.65366211 31.90538086 41.65366211 33.27539062 41.61914062 C40.29872648 41.33614907 45.25339332 40.25832105 50.8125 35.6875 C55.03069597 30.50514496 55.51679131 25.26744433 55.375 18.75390625 C54.67422652 13.60760103 52.36378749 9.81505111 48.25 6.65625 C42.48677753 3.17844334 37.31254657 2.82679538 30.734375 2.68359375 C30.03070801 2.66494263 29.32704102 2.6462915 28.60205078 2.6270752 C25.98482274 2.55900923 23.36739729 2.49871295 20.75 2.4375 C11.96375 2.2209375 11.96375 2.2209375 3 2 C3 21.47 3 40.94 3 61 C2.01 61 1.02 61 0 61 C0 40.87 0 20.74 0 0 Z " fill="#E57340" transform="translate(138,14)"/>
<path d="M0 0 C5.445 -0.0825 10.89 -0.165 16.5 -0.25 C18.20220703 -0.28641602 19.90441406 -0.32283203 21.65820312 -0.36035156 C29.26942792 -0.45562259 35.54040014 -0.51841576 42 4 C45.43030836 7.52057963 47.94948717 11.02535544 48.03515625 16.0703125 C47.64552691 21.67717367 46.36427481 25.48478906 43 30 C38.65423157 33.25685151 34.20546804 35.13620899 28.76953125 35.09765625 C27.96708984 35.09443359 27.16464844 35.09121094 26.33789062 35.08789062 C25.50451172 35.07951172 24.67113281 35.07113281 23.8125 35.0625 C22.5450293 35.05573242 22.5450293 35.05573242 21.25195312 35.04882812 C19.16793845 35.03705403 17.08396023 35.0191189 15 35 C15 34.01 15 33.02 15 32 C15.57443848 31.9906543 16.14887695 31.98130859 16.74072266 31.97167969 C19.36965304 31.91764969 21.99686567 31.83407106 24.625 31.75 C25.52863281 31.73582031 26.43226563 31.72164062 27.36328125 31.70703125 C33.18700993 31.49448641 36.51899446 30.79325627 41 27 C44.16165267 23.31140522 44.53140417 19.91792958 44.34375 15.2109375 C43.59415172 10.38965765 41.03463325 7.82618508 37.34375 4.87890625 C31.26361932 1.51956464 23.8053849 2.31848761 17.0625 2.25 C9.6065625 2.12625 9.6065625 2.12625 2 2 C2 19.49 2 36.98 2 55 C1.34 55 0.68 55 0 55 C0 36.85 0 18.7 0 0 Z " fill="#E2652C" transform="translate(144,19)"/>
<path d="M0 0 C4.516875 -0.061875 9.03375 -0.12375 13.6875 -0.1875 C15.81191528 -0.22846802 15.81191528 -0.22846802 17.97924805 -0.27026367 C19.10371338 -0.27775635 20.22817871 -0.28524902 21.38671875 -0.29296875 C22.53358154 -0.3086792 23.68044434 -0.32438965 24.86206055 -0.34057617 C29.44176423 0.15648184 31.98220423 2.06472821 35.3125 5.125 C37.65931898 9.12328419 37.94718129 12.47104074 37 17 C35.27267979 20.06583403 33.19544885 22.40227558 30 24 C28.47851674 24.08372659 26.95344222 24.10730027 25.4296875 24.09765625 C24.53378906 24.09443359 23.63789063 24.09121094 22.71484375 24.08789062 C21.77769531 24.07951172 20.84054688 24.07113281 19.875 24.0625 C18.93011719 24.05798828 17.98523438 24.05347656 17.01171875 24.04882812 C14.67441613 24.03702357 12.33723939 24.02055759 10 24 C10 23.34 10 22.68 10 22 C11.25296875 21.95101562 12.5059375 21.90203125 13.796875 21.8515625 C15.44793821 21.77651417 17.09897881 21.70096723 18.75 21.625 C19.575 21.5940625 20.4 21.563125 21.25 21.53125 C22.44882813 21.47324219 22.44882813 21.47324219 23.671875 21.4140625 C24.77160645 21.36693115 24.77160645 21.36693115 25.89355469 21.31884766 C29.07796273 20.83683132 31.3230971 19.87030373 33.3125 17.3125 C34.31858949 13.92838082 33.80442399 11.40333226 33 8 C31.42114034 5.94061784 30.30857577 5.15428789 28 4 C26.11527141 3.84655791 24.22572126 3.75040429 22.3359375 3.68359375 C21.3257959 3.64548584 20.3156543 3.60737793 19.27490234 3.56811523 C17.98793457 3.52501221 16.7009668 3.48190918 15.375 3.4375 C9.249375 3.2209375 9.249375 3.2209375 3 3 C3 18.84 3 34.68 3 51 C2.01 51 1.02 51 0 51 C0 34.17 0 17.34 0 0 Z " fill="#E57542" transform="translate(149,24)"/>
<path d="M0 0 C0.94875 0.598125 1.8975 1.19625 2.875 1.8125 C2.545 2.8025 2.215 3.7925 1.875 4.8125 C1.37871094 4.54695313 0.88242187 4.28140625 0.37109375 4.0078125 C-0.64791016 3.47800781 -0.64791016 3.47800781 -1.6875 2.9375 C-2.34878906 2.58945312 -3.01007812 2.24140625 -3.69140625 1.8828125 C-11.88832786 -1.72225415 -22.11048239 -3.28537815 -30.734375 -0.27734375 C-35.02520432 2.231017 -38.12098187 5.21995846 -40.125 9.8125 C-40.9233861 16.48407117 -40.79372462 22.00368601 -37.125 27.8125 C-37.125 28.4725 -37.125 29.1325 -37.125 29.8125 C-36.01125 30.245625 -36.01125 30.245625 -34.875 30.6875 C-32.125 31.8125 -32.125 31.8125 -30.3671875 32.85546875 C-26.44724054 34.52861684 -22.23580034 34.224371 -18.0234375 34.37109375 C-17.06695312 34.51675781 -16.11046875 34.66242187 -15.125 34.8125 C-13.125 37.8125 -13.125 37.8125 -13.3125 40.375 C-14.125 42.8125 -14.125 42.8125 -17.125 44.8125 C-19.68359375 45.04296875 -19.68359375 45.04296875 -22.5625 45 C-23.50996094 44.99355469 -24.45742188 44.98710938 -25.43359375 44.98046875 C-27.8110594 44.83209281 -29.84879037 44.48513878 -32.125 43.8125 C-32.125 43.1525 -32.125 42.4925 -32.125 41.8125 C-26.845 41.8125 -21.565 41.8125 -16.125 41.8125 C-16.455 40.4925 -16.785 39.1725 -17.125 37.8125 C-17.98222656 37.78671875 -18.83945312 37.7609375 -19.72265625 37.734375 C-27.43132943 37.35198309 -32.93291393 37.00458607 -38.58203125 31.35546875 C-43.83728264 25.37326616 -44.63569516 20.91517197 -44.50390625 13.078125 C-43.78844933 6.911919 -40.66555749 3.02564748 -36.1875 -1.0625 C-25.41501349 -8.53728656 -10.87988722 -6.11449662 0 0 Z " fill="#E57644" transform="translate(52.125,16.1875)"/>
<path d="M0 0 C1.56041016 0.00580078 1.56041016 0.00580078 3.15234375 0.01171875 C5.97383812 0.30333629 7.6598251 0.8593159 10.0625 2.3125 C9.7325 2.9725 9.4025 3.6325 9.0625 4.3125 C4.1125 3.9825 -0.8375 3.6525 -5.9375 3.3125 C-5.9375 4.9625 -5.9375 6.6125 -5.9375 8.3125 C-5.1640625 8.27769531 -4.390625 8.24289063 -3.59375 8.20703125 C10.22989146 7.84775344 10.22989146 7.84775344 15.8125 12.89453125 C21.03311531 18.65477747 22.54130673 23.8044749 22.375 31.52734375 C21.72293089 37.33890965 19.34448101 41.00138306 15.3125 45.125 C6.92565427 50.76999232 -0.95731204 51.40677442 -10.9375 50.3125 C-21.70017409 47.34186049 -21.70017409 47.34186049 -24.26171875 43.140625 C-24.48472656 42.53734375 -24.70773438 41.9340625 -24.9375 41.3125 C-22.01614268 41.92379724 -19.88535026 42.89799337 -17.3125 44.375 C-9.68198979 47.82840895 0.92264216 47.9971117 8.86328125 45.39453125 C10.91005945 44.20346823 12.42193535 43.01197995 14.0625 41.3125 C14.8875 40.466875 15.7125 39.62125 16.5625 38.75 C19.07863248 32.98386307 19.37390297 26.81143473 17.14453125 20.86328125 C14.52653211 16.27966463 12.00821351 14.35452491 7.0625 12.3125 C3.48176181 11.60669701 3.48176181 11.60669701 -0.1875 11.25 C-6.72397687 10.52602313 -6.72397687 10.52602313 -8.9375 8.3125 C-9.29050069 5.55909463 -9.40616857 3.98202653 -7.7890625 1.671875 C-5.16303956 -0.25609121 -3.22402976 -0.05180765 0 0 Z " fill="#E4713D" transform="translate(32.9375,26.6875)"/>
<path d="M0 0 C1.04027344 -0.00515625 2.08054687 -0.0103125 3.15234375 -0.015625 C5.99348495 0.24370064 7.64957634 0.78480298 10.0625 2.25 C10.0625 2.58 10.0625 2.91 10.0625 3.25 C4.7825 3.25 -0.4975 3.25 -5.9375 3.25 C-5.9375 4.9 -5.9375 6.55 -5.9375 8.25 C-5.17566406 8.20359375 -4.41382812 8.1571875 -3.62890625 8.109375 C3.3108584 7.86678647 9.33089232 7.96828517 15.0625 12.25 C20.23242385 18.29248484 22.44374302 23.69775435 22.33984375 31.6171875 C21.74275633 37.28531315 19.24865192 41.00867822 15.375 45.0625 C7.39278237 50.33377579 -0.48316093 51.11801624 -9.9375 50.25 C-15.86167196 49.01505177 -20.82112777 46.40691052 -25.9375 43.25 C-25.9375 42.59 -25.9375 41.93 -25.9375 41.25 C-23.49664046 41.56494962 -21.39194464 41.99463547 -19.234375 43.20703125 C-11.52877368 47.4997186 -2.51683346 47.42038925 6.0625 46.25 C10.79861845 44.75716489 13.72174782 42.13490529 16.5625 38.125 C18.87233471 33.37067654 18.91093352 28.39224488 18.0625 23.25 C16.35043457 18.81320065 14.42498331 16.07568831 10.3359375 13.59765625 C6.75779519 12.1245547 3.65185794 11.6081956 -0.1875 11.1875 C-6.72397687 10.46352313 -6.72397687 10.46352313 -8.9375 8.25 C-9.25 5.25 -9.25 5.25 -8.9375 2.25 C-5.48666005 -0.05055997 -4.06574272 -0.02010256 0 0 Z " fill="#E4713C" transform="translate(84.9375,26.75)"/>
<path d="M0 0 C1.2684375 0.7425 1.2684375 0.7425 2.5625 1.5 C2.5625 2.16 2.5625 2.82 2.5625 3.5 C-3.11491935 2.59677419 -3.11491935 2.59677419 -5.3125 1.9375 C-10.63740317 0.84119641 -15.6074418 0.94291037 -20.4375 3.5 C-22.72737808 5.37217348 -22.72737808 5.37217348 -22.75 8.375 C-22.39588492 11.91615079 -21.95136166 13.03327324 -19.4375 15.5 C-16.45010794 16.09116616 -16.45010794 16.09116616 -13.125 16.0625 C-8.17618395 16.3099408 -4.57385698 16.53030781 -0.4375 19.5 C4.27958471 24.72703981 4.85835013 27.91014447 4.77734375 34.8046875 C4.40198027 39.513793 2.5615714 41.57980266 -0.8125 44.6875 C-7.09715104 49.02690191 -12.99754895 49.13178292 -20.4375 48.5 C-24.95105637 47.47868433 -28.58551299 46.06799134 -32.4375 43.5 C-32.4375 42.51 -32.4375 41.52 -32.4375 40.5 C-31.4165625 40.933125 -31.4165625 40.933125 -30.375 41.375 C-21.67982579 44.70506672 -12.93939698 46.20748527 -3.8125 43.375 C0.23403922 40.18036378 1.36971804 37.04225568 2 32 C1.47430972 27.79447778 0.26858664 25.73227016 -2.4375 22.5 C-6.68733739 19.70179246 -11.31673919 20.16472391 -16.24609375 20.0390625 C-20.03811181 19.39855027 -21.7030034 18.15012919 -24.4375 15.5 C-26.32093493 11.73313015 -26.05445758 7.59377062 -25.4375 3.5 C-20.32293978 -4.24933366 -7.873235 -3.35580508 0 0 Z " fill="#E36A33" transform="translate(44.4375,23.5)"/>
<path d="M0 0 C0.8353125 0.4846875 1.670625 0.969375 2.53125 1.46875 C2.53125 2.12875 2.53125 2.78875 2.53125 3.46875 C1.974375 3.324375 1.4175 3.18 0.84375 3.03125 C-6.08194916 1.34662047 -12.85670985 -0.03174185 -19.46875 3.46875 C-21.75862808 5.34092348 -21.75862808 5.34092348 -21.78125 8.34375 C-21.4276741 11.87950897 -20.97876608 13.00599364 -18.46875 15.46875 C-15.54560256 15.98515018 -15.54560256 15.98515018 -12.28125 15.90625 C-4.82406117 16.26372951 -0.54488576 18.20035575 4.53125 23.59375 C6.56865031 29.4512759 6.55833606 35.29606794 3.90625 40.90625 C-0.44977453 45.6061712 -4.59961031 48.15190707 -10.94921875 48.671875 C-18.42269026 48.80128576 -25.16916081 48.28547248 -31.03125 43.28125 C-31.505625 42.683125 -31.98 42.085 -32.46875 41.46875 C-28.46875 41.46875 -28.46875 41.46875 -25.59375 42.96875 C-19.11768681 45.91241508 -9.93941839 45.72876554 -3.28125 43.34375 C0.19084397 41.02902069 1.23783872 39.42506687 2.53125 35.46875 C3.0739423 31.12721157 2.83545953 29.04457518 0.78125 25.15625 C-2.1619727 21.640734 -3.94541722 20.60493556 -8.52734375 20.1953125 C-10.77719553 20.1276869 -13.02720689 20.06517404 -15.27734375 20.0078125 C-19.06936181 19.36730027 -20.7342534 18.11887919 -23.46875 15.46875 C-25.35218493 11.70188015 -25.08570758 7.56252062 -24.46875 3.46875 C-19.4269257 -4.17037773 -7.68141345 -3.39089422 0 0 Z " fill="#E36C36" transform="translate(95.46875,23.53125)"/>
<path d="M0 0 C-0.33 0.99 -0.66 1.98 -1 3 C-1.74765625 2.65066406 -2.4953125 2.30132812 -3.265625 1.94140625 C-4.25046875 1.48636719 -5.2353125 1.03132813 -6.25 0.5625 C-7.22453125 0.11003906 -8.1990625 -0.34242187 -9.203125 -0.80859375 C-14.06090311 -2.87789867 -18.06629572 -3.1864227 -23.375 -3.25 C-25.30472656 -3.28867188 -25.30472656 -3.28867188 -27.2734375 -3.328125 C-32.08719172 -2.90427243 -35.30677008 -1.56188924 -38.86328125 1.71875 C-39.34152344 2.3065625 -39.81976563 2.894375 -40.3125 3.5 C-41.04919922 4.38171875 -41.04919922 4.38171875 -41.80078125 5.28125 C-44.6969083 9.43205098 -44.55691998 14.15244295 -44 19 C-42.20256807 24.85449256 -39.47757862 28.08639435 -34 31 C-29.94138383 32.35287206 -25.96679819 32.43013249 -21.71484375 32.71875 C-19 33 -19 33 -17 34 C-16.8125 37.375 -16.8125 37.375 -17 41 C-20.59610969 43.39740646 -22.30092327 43.23987692 -26.5625 43.1875 C-27.71878906 43.18105469 -28.87507813 43.17460938 -30.06640625 43.16796875 C-33 43 -33 43 -35 42 C-35 41.34 -35 40.68 -35 40 C-30.05 39.67 -25.1 39.34 -20 39 C-20 38.01 -20 37.02 -20 36 C-20.86882812 35.96261719 -21.73765625 35.92523438 -22.6328125 35.88671875 C-30.42092392 35.44243051 -35.63547232 34.89505871 -41.6875 29.6875 C-47.00384653 23.50904323 -47.54357416 18.20760833 -47.34375 10.28125 C-46.72593562 4.38393094 -43.75724598 1.59821134 -39.625 -2.25 C-28.22458537 -11.41833345 -11.39337891 -7.34239974 0 0 Z " fill="#E4713C" transform="translate(107,18)"/>
<path d="M0 0 C0.75990234 -0.01546875 1.51980469 -0.0309375 2.30273438 -0.046875 C8.17622643 -0.00674867 11.98068627 1.58619554 17.0625 4.5 C17.0625 5.49 17.0625 6.48 17.0625 7.5 C16.010625 7.066875 16.010625 7.066875 14.9375 6.625 C7.1271364 3.56877077 -0.98638719 1.56289281 -9.265625 4.2578125 C-11.72063233 5.56783742 -13.60959539 7.10081178 -15.375 9.25 C-16.6219068 14.23762719 -16.45977943 18.15699575 -14.625 22.875 C-13.04529753 25.71698375 -13.04529753 25.71698375 -9.9375 27.5 C-7.83992102 27.72123997 -5.73268805 27.85727658 -3.625 27.9375 C1.25187681 28.25248759 5.00322184 28.53782405 9.0625 31.5 C11.46679585 34.45072672 11.47742653 37.79129861 11.38671875 41.53125 C10.86845067 44.67832363 9.33474598 46.35759665 7.0625 48.5 C0.63575709 50.64224764 -8.03842687 50.73683849 -14.3125 48 C-15.17875 47.505 -16.045 47.01 -16.9375 46.5 C-16.9375 45.84 -16.9375 45.18 -16.9375 44.5 C-15.679375 44.83 -14.42125 45.16 -13.125 45.5 C-7.27608051 46.7863921 -0.08334151 48.23877295 5.359375 45.23046875 C7.19594238 43.65444697 7.19594238 43.65444697 7.55859375 41.5625 C7.52958984 40.5415625 7.52958984 40.5415625 7.5 39.5 C7.49806641 38.4790625 7.49806641 38.4790625 7.49609375 37.4375 C6.91640041 34.84715857 6.25710163 34.00447533 4.0625 32.5 C1.10205802 32.06719855 1.10205802 32.06719855 -2.1875 32.0625 C-8.0491415 31.7104103 -11.39180576 31.27195905 -15.9375 27.5 C-19.70855578 22.40794564 -20.72766145 17.72252143 -19.9375 11.5 C-18.20446214 6.464961 -15.72076679 3.88780446 -10.96850586 1.31152344 C-7.35244068 -0.1333378 -3.84801251 -0.07793443 0 0 Z " fill="#E4703C" transform="translate(32.9375,16.5)"/>
<path d="M0 0 C0.45246094 0.3609375 0.90492187 0.721875 1.37109375 1.09375 C1.04109375 1.75375 0.71109375 2.41375 0.37109375 3.09375 C-0.28890625 2.805 -0.94890625 2.51625 -1.62890625 2.21875 C-9.90080048 -0.88321034 -18.58604542 -2.70727173 -27.12890625 0.34375 C-30.34942573 2.59811363 -32.3385736 4.50869066 -33.0625 8.4609375 C-33.07164979 14.33510499 -32.52971077 17.61929776 -28.62890625 22.09375 C-25.05563326 23.8803865 -20.83512243 23.44627427 -16.890625 23.6171875 C-12.5774931 24.24736965 -9.92205497 25.84519261 -6.81640625 28.84375 C-5.10022299 32.09546564 -5.24728537 34.46835162 -5.62890625 38.09375 C-6.85894091 40.861328 -7.78117088 42.53121562 -10.3125 44.2109375 C-16.39840174 46.53035368 -25.03195331 46.18118751 -31.00390625 43.59375 C-31.87015625 43.09875 -32.73640625 42.60375 -33.62890625 42.09375 C-33.62890625 41.43375 -33.62890625 40.77375 -33.62890625 40.09375 C-28.87890625 40.96875 -28.87890625 40.96875 -26.62890625 42.09375 C-24.50747603 42.24242166 -22.38034633 42.3150789 -20.25390625 42.34375 C-19.11179687 42.36953125 -17.9696875 42.3953125 -16.79296875 42.421875 C-13.3550539 42.0653505 -11.96197854 41.61982584 -9.62890625 39.09375 C-8.90169932 35.72458028 -9.0743032 32.20295609 -10.62890625 29.09375 C-15.27210316 27.5460177 -20.10713249 27.37057362 -24.96484375 26.88671875 C-28.96688731 26.02060484 -30.75703157 24.96037445 -33.62890625 22.09375 C-36.26007944 17.28505417 -37.21358082 13.55071262 -36.62890625 8.09375 C-34.96898675 2.93926313 -33.22771426 0.01006728 -28.62890625 -2.90625 C-19.76684887 -6.01427013 -7.71425288 -5.24977512 0 0 Z " fill="#E67847" transform="translate(101.62890625,20.90625)"/>
<path d="M0 0 C22 0 22 0 27 4 C27.540164 7.24098402 27.35872928 9.15842413 26.07421875 12.171875 C22.63905178 15.19947978 18.71356952 14.4174145 14.3125 14.25 C13.41982422 14.23195313 12.52714844 14.21390625 11.60742188 14.1953125 C9.40386496 14.14817759 7.20247399 14.08240657 5 14 C5 13.01 5 12.02 5 11 C10.94 10.67 16.88 10.34 23 10 C23 8.35 23 6.7 23 5 C18.2624432 0.2624432 9.69065665 3.35213982 3 3 C3 17.19 3 31.38 3 46 C2.01 46 1.02 46 0 46 C0 30.82 0 15.64 0 0 Z " fill="#E67948" transform="translate(154,29)"/>
<path d="M0 0 C0 0.66 0 1.32 0 2 C2.64 2 5.28 2 8 2 C8 2.33 8 2.66 8 3 C6.78763672 3.05607422 6.78763672 3.05607422 5.55078125 3.11328125 C4.48214844 3.17902344 3.41351562 3.24476562 2.3125 3.3125 C1.25675781 3.37050781 0.20101563 3.42851562 -0.88671875 3.48828125 C-4.24294101 4.03993133 -6.18132333 5.15872785 -9 7 C-9.66 7 -10.32 7 -11 7 C-11.309375 7.78375 -11.61875 8.5675 -11.9375 9.375 C-13 12 -13 12 -14 14 C-14.54085818 20.27395494 -13.77029443 24.8381458 -10 30 C-5.27419397 33.75640992 0.17054338 33.39458992 5.9765625 33.49609375 C9.64361075 34.10726846 10.81085816 35.0376052 13 38 C13.78456586 40.77032912 13.63108638 43.20027133 13 46 C11.1875 48.5 11.1875 48.5 8 50 C2.04432101 50.70599234 -3.44150907 50.40367175 -9 48 C-8.67 47.34 -8.34 46.68 -8 46 C-6.42798828 46.03480469 -6.42798828 46.03480469 -4.82421875 46.0703125 C-3.44531963 46.08907303 -2.0664128 46.10727293 -0.6875 46.125 C0.00279297 46.14175781 0.69308594 46.15851562 1.40429688 46.17578125 C5.17135396 46.21217794 6.78431704 46.14378864 10 44 C9.67 42.02 9.34 40.04 9 38 C8.16597656 37.98582031 7.33195312 37.97164062 6.47265625 37.95703125 C-0.99030489 37.64073164 -7.1873354 37.01091776 -13 32 C-17.2947545 26.95833168 -17.62121809 21.19386782 -17.38671875 14.7734375 C-16.67440971 9.66495853 -14.21098521 7.08988669 -10.5 3.75 C-6.60178562 1.02124993 -4.85986012 0 0 0 Z " fill="#FBEEE8" transform="translate(28,14)"/>
<path d="M0 0 C1.58025005 0.21192095 3.16398461 0.39923371 4.75 0.5625 C5.54921875 0.64628906 6.3484375 0.73007813 7.171875 0.81640625 C8.07679687 0.90728516 8.07679687 0.90728516 9 1 C9 1.33 9 1.66 9 2 C7.90300781 2.08636719 6.80601563 2.17273438 5.67578125 2.26171875 C4.22124094 2.40248072 2.76681933 2.54447295 1.3125 2.6875 C0.2306543 2.76774414 0.2306543 2.76774414 -0.87304688 2.84960938 C-4.95423013 3.27822679 -6.67111639 3.72753392 -9.9375 6.43359375 C-13.72527994 11.1467972 -14.61394166 14.962907 -14 21 C-12.58726928 25.59348972 -11.04354554 28.33979772 -6.9375 30.9375 C-2.92493476 32.30976257 1.2384053 32.49486192 5.44921875 32.69140625 C8.09520114 33.01151744 9.75859536 33.57825123 12 35 C13.58791315 38.17582631 13.41019741 41.54161153 13 45 C11.625 47 11.625 47 10 48 C9.34 48 8.68 48 8 48 C7.67 47.01 7.34 46.02 7 45 C7.99 44.505 7.99 44.505 9 44 C9.40729228 41.67843403 9.74438677 39.3431213 10 37 C9.0821875 36.97421875 8.164375 36.9484375 7.21875 36.921875 C-1.51346195 36.51828537 -8.11899845 35.98313317 -14.375 29.5625 C-17.87264823 24.0469778 -18.70046361 19.4649346 -18 13 C-16.13316319 7.16613498 -11.83439971 3.53807882 -7 0 C-3.74072115 -1.08642628 -3.13602589 -0.88854067 0 0 Z " fill="#FCF0EA" transform="translate(80,15)"/>
<path d="M0 0 C0.99 0 1.98 0 3 0 C3 20.13 3 40.26 3 61 C2.01 61 1.02 61 0 61 C0 40.87 0 20.74 0 0 Z " fill="#E67A49" transform="translate(123,14)"/>
<path d="M0 0 C0.99 0 1.98 0 3 0 C3 20.13 3 40.26 3 61 C2.01 61 1.02 61 0 61 C0 40.87 0 20.74 0 0 Z " fill="#E67947" transform="translate(118,14)"/>
<path d="M0 0 C3.91111871 2.04868123 5.74910948 4.8734734 7.9375 8.625 C9.27469886 13.97379543 8.45627419 19.26436422 6 24.1875 C2.60047459 28.75002095 -0.95865159 30.56955053 -6.375 32.375 C-7.78324893 32.45521999 -9.19497231 32.48265977 -10.60546875 32.47265625 C-11.40791016 32.46943359 -12.21035156 32.46621094 -13.03710938 32.46289062 C-13.87048828 32.45451172 -14.70386719 32.44613281 -15.5625 32.4375 C-16.8299707 32.43073242 -16.8299707 32.43073242 -18.12304688 32.42382812 C-20.20706155 32.41205403 -22.29103977 32.3941189 -24.375 32.375 C-24.375 31.385 -24.375 30.395 -24.375 29.375 C-23.80056152 29.3656543 -23.22612305 29.35630859 -22.63427734 29.34667969 C-20.00534696 29.29264969 -17.37813433 29.20907106 -14.75 29.125 C-13.84636719 29.11082031 -12.94273437 29.09664062 -12.01171875 29.08203125 C-6.18799007 28.86948641 -2.85600554 28.16825627 1.625 24.375 C4.78821034 20.68458793 5.1486067 17.29369244 4.9765625 12.5859375 C4.21552052 7.79982904 1.41589265 5.05804365 -2.125 2 C-2.8675 1.46375 -3.61 0.9275 -4.375 0.375 C-2.375 -0.625 -2.375 -0.625 0 0 Z " fill="#E57441" transform="translate(183.375,21.625)"/>
<path d="M0 0 C11.36969722 -0.89892189 11.36969722 -0.89892189 14.9765625 1.08984375 C17.37320397 3.73175555 18.01167129 6.08315795 18.5 9.5625 C17.96980455 13.20759371 17.29088372 15.13639535 15 18 C9.78631451 21.45966137 2.97124525 20.46766847 -3 20 C-5.68478651 19.26624318 -7.5710392 18.3879776 -10 17 C-10 16.34 -10 15.68 -10 15 C-5.25 15.875 -5.25 15.875 -3 17 C-0.87856978 17.14867166 1.24855992 17.2213289 3.375 17.25 C4.51710938 17.27578125 5.65921875 17.3015625 6.8359375 17.328125 C10.27385235 16.9716005 11.66692771 16.52607584 14 14 C14.72720693 10.63083028 14.55460305 7.10920609 13 4 C10.22111592 3.38333662 10.22111592 3.38333662 7 3 C3.6875 2.5625 3.6875 2.5625 1 2 C0.67 1.34 0.34 0.68 0 0 Z " fill="#E36A33" transform="translate(78,46)"/>
<path d="M0 0 C3.39527689 1.40494216 5.30647023 2.69761694 7 6 C7.67476521 9.85056235 7.8974577 13.3978718 5.9453125 16.8828125 C4.1806644 19.04424538 2.50939153 20.74530423 0 22 C-1.52148326 22.08372659 -3.04655778 22.10730027 -4.5703125 22.09765625 C-5.46621094 22.09443359 -6.36210937 22.09121094 -7.28515625 22.08789062 C-8.22230469 22.07951172 -9.15945312 22.07113281 -10.125 22.0625 C-11.06988281 22.05798828 -12.01476562 22.05347656 -12.98828125 22.04882812 C-15.32558387 22.03702357 -17.66276061 22.02055759 -20 22 C-20 21.34 -20 20.68 -20 20 C-18.74703125 19.95101562 -17.4940625 19.90203125 -16.203125 19.8515625 C-14.55206179 19.77651417 -12.90102119 19.70096723 -11.25 19.625 C-10.425 19.5940625 -9.6 19.563125 -8.75 19.53125 C-7.55117187 19.47324219 -7.55117187 19.47324219 -6.328125 19.4140625 C-5.22839355 19.36693115 -5.22839355 19.36693115 -4.10644531 19.31884766 C-0.92203727 18.83683132 1.3230971 17.87030373 3.3125 15.3125 C4.31858949 11.92838082 3.80442399 9.40333226 3 6 C1.52109931 4.26973898 1.52109931 4.26973898 0 3 C0 2.01 0 1.02 0 0 Z " fill="#E36932" transform="translate(179,26)"/>
<path d="M0 0 C3.70635331 1.94142316 5.76880975 4.6626195 7.625 8.375 C8.2969938 12.47501281 8.36028616 15.98354076 6.390625 19.7109375 C2.46412957 25.09529014 2.46412957 25.09529014 -1.375 26.375 C-1.705 25.385 -2.035 24.395 -2.375 23.375 C-1.570625 22.75625 -0.76625 22.1375 0.0625 21.5 C2.61813576 19.38069229 3.44932534 18.629819 3.8984375 15.421875 C4.08583117 11.18389514 4.0805608 8.30406044 1.3125 4.9375 C-1.29496138 2.30361684 -1.29496138 2.30361684 -4.375 0.375 C-2.375 -0.625 -2.375 -0.625 0 0 Z " fill="#FBEDE6" transform="translate(181.375,23.625)"/>
<path d="M0 0 C1.58025005 0.21192095 3.16398461 0.39923371 4.75 0.5625 C5.54921875 0.64628906 6.3484375 0.73007813 7.171875 0.81640625 C8.07679687 0.90728516 8.07679687 0.90728516 9 1 C9 1.33 9 1.66 9 2 C7.90300781 2.08636719 6.80601563 2.17273438 5.67578125 2.26171875 C4.22124094 2.40248072 2.76681933 2.54447295 1.3125 2.6875 C0.2306543 2.76774414 0.2306543 2.76774414 -0.87304688 2.84960938 C-4.93519412 3.27622758 -6.67452375 3.73338647 -9.9375 6.40625 C-11.92475514 8.90537389 -13.04740423 10.96901346 -14 14 C-14.66 14 -15.32 14 -16 14 C-16.33 16.64 -16.66 19.28 -17 22 C-17.33 22 -17.66 22 -18 22 C-18.34549588 16.24173534 -18.41066128 11.90282559 -15 7 C-6.27625202 -1.77827141 -6.27625202 -1.77827141 0 0 Z " fill="#F8D8CA" transform="translate(80,15)"/>
<path d="M0 0 C0.33 0 0.66 0 1 0 C1.08636719 0.59167969 1.17273438 1.18335937 1.26171875 1.79296875 C1.95049437 5.66654172 2.76320778 8.60806805 4.8125 12 C9.83486372 15.15128704 15.17930798 14.90625533 21 15 C21 15.66 21 16.32 21 17 C18.60293877 17.10854617 16.21084162 17.18753157 13.8125 17.25 C13.13896484 17.28351562 12.46542969 17.31703125 11.77148438 17.3515625 C8.10414249 17.42312039 6.18988004 17.12454497 3.09375 15.09375 C-0.27830759 11.72169241 -1.10347282 9.52642478 -1.1875 4.8125 C-1 1 -1 1 0 0 Z " fill="#FCF3EF" transform="translate(69,28)"/>
<path d="M0 0 C1.14263306 0.0009668 1.14263306 0.0009668 2.30834961 0.00195312 C8.46907009 0.16488996 12.99157028 1.60438655 17.875 5.5 C17.545 6.16 17.215 6.82 16.875 7.5 C16.215 7.21125 15.555 6.9225 14.875 6.625 C6.11778288 3.34104358 -1.9065592 3.28394279 -11.125 3.5 C-8.40584661 -0.52520344 -4.40360206 -0.03408141 0 0 Z " fill="#E2672E" transform="translate(85.125,16.5)"/>
<path d="M0 0 C0.33 0 0.66 0 1 0 C1 2.31 1 4.62 1 7 C1.66 7 2.32 7 3 7 C2.67918358 12.29347089 -0.27492862 15.51581083 -4 19 C-9.03225806 22 -9.03225806 22 -12 22 C-12.33 21.01 -12.66 20.02 -13 19 C-12.45730469 18.74605469 -11.91460937 18.49210937 -11.35546875 18.23046875 C-10.64003906 17.88628906 -9.92460938 17.54210937 -9.1875 17.1875 C-8.47980469 16.85105469 -7.77210937 16.51460937 -7.04296875 16.16796875 C-4.86039825 14.92018944 -3.51120533 14.01494044 -2 12 C-1.20531949 9.04478923 -1.20531949 9.04478923 -0.8125 5.8125 C-0.57466797 4.18248047 -0.57466797 4.18248047 -0.33203125 2.51953125 C-0.22246094 1.68808594 -0.11289062 0.85664062 0 0 Z " fill="#FBEAE3" transform="translate(49,52)"/>
<path d="M0 0 C0 0.66 0 1.32 0 2 C2.64 2 5.28 2 8 2 C8 2.33 8 2.66 8 3 C6.78763672 3.05607422 6.78763672 3.05607422 5.55078125 3.11328125 C4.48214844 3.17902344 3.41351562 3.24476562 2.3125 3.3125 C1.25675781 3.37050781 0.20101563 3.42851562 -0.88671875 3.48828125 C-4.24294101 4.03993133 -6.18132333 5.15872785 -9 7 C-9.66 7 -10.32 7 -11 7 C-11.28875 7.78375 -11.5775 8.5675 -11.875 9.375 C-13 12 -13 12 -15 14 C-15.66 14 -16.32 14 -17 14 C-15.7377001 8.10926715 -12.761472 5.33503946 -8 2 C-4.87265257 0.14584144 -3.85874854 0 0 0 Z " fill="#FBEEE7" transform="translate(28,14)"/>
<path d="M0 0 C0.33 0 0.66 0 1 0 C1.12117187 0.80824219 1.24234375 1.61648437 1.3671875 2.44921875 C1.53476563 3.51785156 1.70234375 4.58648437 1.875 5.6875 C2.03742187 6.74324219 2.19984375 7.79898438 2.3671875 8.88671875 C2.96567718 11.8311402 3.66111533 14.31259839 5 17 C7.45704762 18.23290201 7.45704762 18.23290201 10 19 C10.66 19.66 11.32 20.32 12 21 C11.67 21.66 11.34 22.32 11 23 C5.77204763 21.61613025 3.05057385 18.24038711 0 14 C-1.99987011 10.48507677 -2.33927137 8.07125645 -2 4 C-1 1.625 -1 1.625 0 0 Z " fill="#E57340" transform="translate(10,29)"/>
<path d="M0 0 C1.0209375 0.433125 1.0209375 0.433125 2.0625 0.875 C9.03113492 3.5438389 15.60356472 4.49174586 23 5 C23.33 5.99 23.66 6.98 24 8 C15.06586643 8.40815839 7.5889368 8.0592912 0 3 C0 2.01 0 1.02 0 0 Z " fill="#E67C4C" transform="translate(12,64)"/>
<path d="M0 0 C0.66 0 1.32 0 2 0 C2.1875 3.375 2.1875 3.375 2 7 C-1.59610969 9.39740646 -3.30092327 9.23987692 -7.5625 9.1875 C-8.71878906 9.18105469 -9.87507813 9.17460938 -11.06640625 9.16796875 C-14 9 -14 9 -16 8 C-16 7.34 -16 6.68 -16 6 C-11.05 5.67 -6.1 5.34 -1 5 C-0.67 3.35 -0.34 1.7 0 0 Z " fill="#E36932" transform="translate(88,52)"/>
<path d="M0 0 C1.56041016 0.00580078 1.56041016 0.00580078 3.15234375 0.01171875 C5.97383812 0.30333629 7.6598251 0.8593159 10.0625 2.3125 C9.7325 2.9725 9.4025 3.6325 9.0625 4.3125 C4.1125 3.9825 -0.8375 3.6525 -5.9375 3.3125 C-5.9375 4.6325 -5.9375 5.9525 -5.9375 7.3125 C-6.9275 7.6425 -7.9175 7.9725 -8.9375 8.3125 C-9.30038318 3.83694076 -9.30038318 3.83694076 -7.796875 1.6640625 C-5.1639784 -0.2497657 -3.222275 -0.05177945 0 0 Z " fill="#E4713D" transform="translate(32.9375,26.6875)"/>
<path d="M0 0 C3.93265896 -0.04947698 7.86519714 -0.08575578 11.7980957 -0.10986328 C13.79319618 -0.12485495 15.78820946 -0.15026731 17.78320312 -0.17578125 C19.66362305 -0.18544922 19.66362305 -0.18544922 21.58203125 -0.1953125 C22.73936768 -0.20578613 23.8967041 -0.21625977 25.08911133 -0.22705078 C28 0 28 0 31 2 C30.67 2.66 30.34 3.32 30 4 C25.56174401 3.91932065 21.12488202 3.80645865 16.6875 3.6875 C15.42486328 3.66494141 14.16222656 3.64238281 12.86132812 3.61914062 C11.04858398 3.5659668 11.04858398 3.5659668 9.19921875 3.51171875 C8.08377686 3.48553467 6.96833496 3.45935059 5.8190918 3.43237305 C2.76261175 2.96359101 1.83540117 2.42182734 0 0 Z " fill="#E78254" transform="translate(149,24)"/>
<path d="M0 0 C0.64324219 0.20496094 1.28648438 0.40992187 1.94921875 0.62109375 C9.29976664 2.81262657 16.35057967 3.64732402 24 4 C24 4.66 24 5.32 24 6 C6.65957447 6.76595745 6.65957447 6.76595745 -1 2 C-0.67 1.34 -0.34 0.68 0 0 Z " fill="#FDF4F0" transform="translate(65,68)"/>
<path d="M0 0 C5 2 5 2 7.28125 3.03125 C10.3565115 4.12703283 13.0599012 4.41054294 16.3125 4.625 C17.38113281 4.69976562 18.44976562 4.77453125 19.55078125 4.8515625 C20.35902344 4.90054688 21.16726562 4.94953125 22 5 C22.33 5.99 22.66 6.98 23 8 C14.75510588 8.41609746 6.97964865 8.39726105 0.4375 2.8125 C-0.036875 2.214375 -0.51125 1.61625 -1 1 C-0.67 0.67 -0.34 0.34 0 0 Z " fill="#E67A49" transform="translate(64,64)"/>
<path d="M0 0 C1.58791315 3.17582631 1.41019741 6.54161153 1 10 C-0.375 12 -0.375 12 -2 13 C-2.66 13 -3.32 13 -4 13 C-4.33 12.01 -4.66 11.02 -5 10 C-4.34 9.67 -3.68 9.34 -3 9 C-2.59270772 6.67843403 -2.25561323 4.3431213 -2 2 C-8.93 1.505 -8.93 1.505 -16 1 C-16 0.67 -16 0.34 -16 0 C-14.08416353 -0.1958009 -12.16727461 -0.38132214 -10.25 -0.5625 C-8.64898437 -0.71912109 -8.64898437 -0.71912109 -7.015625 -0.87890625 C-4.34340208 -0.98621054 -2.47599264 -0.96609993 0 0 Z " fill="#F9E2D8" transform="translate(92,50)"/>
<path d="M0 0 C2.93732486 0.62802492 5.28313814 1.61422951 7.9375 3 C13.74798351 5.68176162 19.68351928 5.80474557 26 6 C26 6.33 26 6.66 26 7 C24.046875 7.22786458 22.09375 7.45572917 20.140625 7.68359375 C18.01006622 7.9275091 18.01006622 7.9275091 16.1171875 8.671875 C12.9363048 9.16485313 10.81190926 8.04282685 7.875 6.8125 C6.82054687 6.38582031 5.76609375 5.95914063 4.6796875 5.51953125 C1.84692101 3.91319573 1.04811008 3.02140374 0 0 Z " fill="#E4713D" transform="translate(8,68)"/>
<path d="M0 0 C3.78860919 1.07445143 7.38844848 2.43522719 11 4 C11 4.99 11 5.98 11 7 C10.154375 6.71125 9.30875 6.4225 8.4375 6.125 C6.7359375 5.568125 6.7359375 5.568125 5 5 C3.96875 4.649375 2.9375 4.29875 1.875 3.9375 C-3.37963687 2.66621689 -8.61483028 2.33602044 -14 2 C-9.49320018 -1.00453321 -5.2865554 -0.5776922 0 0 Z " fill="#FDF5F1" transform="translate(91,14)"/>
<path d="M0 0 C1 2 1 2 0.875 4.875 C1.02043904 8.51097599 1.46403076 9.45875847 4 12 C6.94515652 12.91343896 6.94515652 12.91343896 10.1875 13.25 C11.27417969 13.39953125 12.36085938 13.5490625 13.48046875 13.703125 C14.31191406 13.80109375 15.14335938 13.8990625 16 14 C16 14.33 16 14.66 16 15 C13.75165504 15.13526139 11.50097486 15.23210804 9.25 15.3125 C7.99703125 15.37050781 6.7440625 15.42851563 5.453125 15.48828125 C2 15 2 15 -0.4296875 12.7421875 C-2.7323522 8.7211163 -2.44945632 6.56947257 -2 2 C-1.34 1.34 -0.68 0.68 0 0 Z " fill="#E2652C" transform="translate(21,27)"/>
<path d="M0 0 C7.87055731 0.32057045 14.790975 0.6838485 22 4 C21.01 4.99 20.02 5.98 19 7 C17.88625 6.525625 16.7725 6.05125 15.625 5.5625 C10.82316641 3.73814745 6.09727034 3.30291156 1 3 C0.67 2.01 0.34 1.02 0 0 Z " fill="#E67745" transform="translate(25,34)"/>
<path d="M0 0 C1.56041016 -0.00773437 1.56041016 -0.00773437 3.15234375 -0.015625 C5.99348495 0.24370064 7.64957634 0.78480298 10.0625 2.25 C10.0625 2.58 10.0625 2.91 10.0625 3.25 C4.7825 3.25 -0.4975 3.25 -5.9375 3.25 C-6.2675 4.57 -6.5975 5.89 -6.9375 7.25 C-7.5975 5.6 -8.2575 3.95 -8.9375 2.25 C-5.48666005 -0.05055997 -4.06574272 -0.02010256 0 0 Z " fill="#E77D4D" transform="translate(84.9375,26.75)"/>
<path d="M0 0 C1.216875 0.33 2.43375 0.66 3.6875 1 C9.7662494 2.37888565 15.80124915 2.17245366 22 2 C21.67 2.99 21.34 3.98 21 5 C6.21867882 5.55353075 6.21867882 5.55353075 0 2 C0 1.34 0 0.68 0 0 Z " fill="#E36C36" transform="translate(16,61)"/>
<path d="M0 0 C7.59762024 -0.38999191 13.84466021 0.39241413 21 3 C20.01 4.485 20.01 4.485 19 6 C18.32582031 5.69320313 17.65164062 5.38640625 16.95703125 5.0703125 C13.53053816 3.8300759 10.29840679 3.34745509 6.6875 2.875 C5.43324219 2.70742188 4.17898437 2.53984375 2.88671875 2.3671875 C1.93410156 2.24601562 0.98148438 2.12484375 0 2 C0 1.34 0 0.68 0 0 Z " fill="#FDF4F0" transform="translate(28,14)"/>
<path d="M0 0 C3 1 3 1 4.25 2.625 C5.34310183 6.08648912 4.87385941 8.50456238 4 12 C1.9375 14.4375 1.9375 14.4375 0 16 C-0.33 15.01 -0.66 14.02 -1 13 C-0.34 12.01 0.32 11.02 1 10 C1.33957563 5.92509248 1.31332486 4.46998729 -1 1 C-0.67 0.67 -0.34 0.34 0 0 Z " fill="#FBEAE2" transform="translate(179,29)"/>
<path d="M0 0 C2.86227157 0.32881086 5.40791408 1.17175938 8.07421875 2.23828125 C7.74421875 3.22828125 7.41421875 4.21828125 7.07421875 5.23828125 C6.08421875 4.90828125 5.09421875 4.57828125 4.07421875 4.23828125 C1.8484754 4.01376667 -0.38159644 3.83045247 -2.61328125 3.67578125 C-3.79277344 3.59199219 -4.97226562 3.50820313 -6.1875 3.421875 C-7.09113281 3.36128906 -7.99476562 3.30070312 -8.92578125 3.23828125 C-6.18449162 0.02172159 -4.23474901 -0.14872501 0 0 Z " fill="#FBEEE7" transform="translate(34.92578125,23.76171875)"/>
<path d="M0 0 C4.73489199 -0.86863127 9.08036087 -0.33881442 13.5625 1.3125 C16 3 16 3 17 6 C16.01 6.33 15.02 6.66 14 7 C13.46439453 6.27876953 13.46439453 6.27876953 12.91796875 5.54296875 C10.14945328 3.31575162 7.81840977 3.48605989 4.3125 3.3125 C2.54326172 3.21388672 2.54326172 3.21388672 0.73828125 3.11328125 C-0.16535156 3.07589844 -1.06898437 3.03851563 -2 3 C-1.34 2.01 -0.68 1.02 0 0 Z " fill="#E67C4C" transform="translate(26,45)"/>
<path d="M0 0 C2.04136395 -0.05451714 4.08315856 -0.09302485 6.125 -0.125 C7.83042969 -0.15980469 7.83042969 -0.15980469 9.5703125 -0.1953125 C13.05757767 0.00327891 15.7553862 0.7475199 19 2 C18.01 3.485 18.01 3.485 17 5 C16.01 4.67 15.02 4.34 14 4 C10.90620122 3.77082972 7.81377243 3.61930103 4.71484375 3.4765625 C3.81894531 3.31929687 2.92304688 3.16203125 2 3 C1.34 2.01 0.68 1.02 0 0 Z " fill="#FAE3D9" transform="translate(26,19)"/>
<path d="M0 0 C0.33 0 0.66 0 1 0 C1.47676175 4.76761753 1.83824 8.63232515 -1.3125 12.5 C-4 15 -4 15 -7 16 C-7.33 15.01 -7.66 14.02 -8 13 C-7.236875 12.525625 -6.47375 12.05125 -5.6875 11.5625 C-2.11391885 8.15513193 -1.23150936 4.68574293 0 0 Z " fill="#FCF0EA" transform="translate(187,34)"/>
<path d="M0 0 C0.99 0.33 1.98 0.66 3 1 C1 3 -1 5 -3 7 C-3.23075082 8.34747084 -3.41153063 9.70377565 -3.5625 11.0625 C-3.7790625 13.0115625 -3.7790625 13.0115625 -4 15 C-4.33 15 -4.66 15 -5 15 C-5.144375 14.05125 -5.28875 13.1025 -5.4375 12.125 C-5.82935399 9.1065506 -5.82935399 9.1065506 -7 7 C-2.25 1.125 -2.25 1.125 0 0 Z " fill="#F9E1D6" transform="translate(75,20)"/>
<path d="M0 0 C0.33 0 0.66 0 1 0 C1.32712342 6.13053511 1.39366878 10.62669111 -2 16 C-2.99 16 -3.98 16 -5 16 C-3.41078475 10.63904723 -1.81027062 5.29156027 0 0 Z " fill="#E77F50" transform="translate(106,51)"/>
<path d="M0 0 C0.20367187 0.64453125 0.40734375 1.2890625 0.6171875 1.953125 C1.8667935 4.31153872 1.8667935 4.31153872 4.8203125 4.609375 C5.91085938 4.65578125 7.00140625 4.7021875 8.125 4.75 C9.76855469 4.83507813 9.76855469 4.83507813 11.4453125 4.921875 C12.28835937 4.94765625 13.13140625 4.9734375 14 5 C14 5.66 14 6.32 14 7 C11.87527424 7.05386629 9.75016348 7.09273071 7.625 7.125 C5.84996094 7.15980469 5.84996094 7.15980469 4.0390625 7.1953125 C1 7 1 7 -1 5 C-0.625 2.375 -0.625 2.375 0 0 Z " fill="#E2652C" transform="translate(77,30)"/>
<path d="M0 0 C2.10304477 -0.1080023 4.20766909 -0.18558987 6.3125 -0.25 C8.07013672 -0.31960937 8.07013672 -0.31960937 9.86328125 -0.390625 C13 0 13 0 14.91796875 2.015625 C15.27503906 2.67046875 15.63210937 3.3253125 16 4 C13.51911645 3.71937057 11.04090815 3.42609401 8.5625 3.125 C7.50192383 3.00705078 7.50192383 3.00705078 6.41992188 2.88671875 C4.60326568 2.66072324 2.79937478 2.33699273 1 2 C0.67 1.34 0.34 0.68 0 0 Z " fill="#E36932" transform="translate(78,46)"/>
<path d="M0 0 C4.54805635 -0.17835515 7.8794254 0.00214565 12 2 C11.01 3.485 11.01 3.485 10 5 C9.01 4.67 8.02 4.34 7 4 C4.77425665 3.77548542 2.54418481 3.59217122 0.3125 3.4375 C-0.86699219 3.35371094 -2.04648437 3.26992188 -3.26171875 3.18359375 C-4.16535156 3.12300781 -5.06898437 3.06242187 -6 3 C-6 2.67 -6 2.34 -6 2 C-4.02 1.67 -2.04 1.34 0 1 C0 0.67 0 0.34 0 0 Z " fill="#E78152" transform="translate(31,40)"/>
<path d="M0 0 C5.28 0.33 10.56 0.66 16 1 C15.67 1.66 15.34 2.32 15 3 C10.38 3 5.76 3 1 3 C0.67 2.01 0.34 1.02 0 0 Z " fill="#E36932" transform="translate(21,50)"/>
<path d="M0 0 C1.12921875 0.00580078 1.12921875 0.00580078 2.28125 0.01171875 C4.71060894 0.34105086 6.38222715 1.10440685 8.5 2.3125 C8.5 2.9725 8.5 3.6325 8.5 4.3125 C2.89 3.9825 -2.72 3.6525 -8.5 3.3125 C-3.96563193 -0.08827605 -3.96563193 -0.08827605 0 0 Z " fill="#E77E4E" transform="translate(85.5,39.6875)"/>
<path d="M0 0 C1.46224799 0.42423244 2.91973412 0.86490245 4.375 1.3125 C5.18710937 1.55613281 5.99921875 1.79976562 6.8359375 2.05078125 C9 3 9 3 11 6 C7.44953334 6 5.89760758 5.75904303 2.75 4.5 C2.04359375 4.2215625 1.3371875 3.943125 0.609375 3.65625 C0.07828125 3.4396875 -0.4528125 3.223125 -1 3 C-0.67 2.01 -0.34 1.02 0 0 Z " fill="#E57542" transform="translate(40,17)"/>
<path d="M0 0 C4.05281712 1.22527029 7.44360764 2.69880494 11 5 C10.67 5.66 10.34 6.32 10 7 C9.34 6.71125 8.68 6.4225 8 6.125 C4.37500535 4.76562701 0.76653307 3.89375361 -3 3 C-2.01 2.01 -1.02 1.02 0 0 Z " fill="#E57543" transform="translate(92,17)"/>
<path d="M0 0 C0 0.66 0 1.32 0 2 C2.64 2 5.28 2 8 2 C8 2.33 8 2.66 8 3 C6.77023438 3.09087891 6.77023438 3.09087891 5.515625 3.18359375 C3.89914063 3.30927734 3.89914063 3.30927734 2.25 3.4375 C0.64898438 3.55931641 0.64898438 3.55931641 -0.984375 3.68359375 C-3.43679962 3.94090773 -5.63921291 4.31812218 -8 5 C-8 4.01 -8 3.02 -8 2 C-4.91190305 0.23537317 -3.76687864 0 0 0 Z " fill="#F8D8CA" transform="translate(28,14)"/>
<path d="M0 0 C5.21979128 -0.1799928 9.07262981 0.02905192 14 2 C13.67 2.99 13.34 3.98 13 5 C7.06 4.01 7.06 4.01 1 3 C0.67 2.01 0.34 1.02 0 0 Z " fill="#FAE8E0" transform="translate(81,24)"/>
<path d="M0 0 C3.82524236 1.450954 5.19090966 3.38181932 7 7 C7 7.66 7 8.32 7 9 C6.01 9 5.02 9 4 9 C0 3.85714286 0 3.85714286 0 0 Z " fill="#E57340" transform="translate(94,43)"/>
<path d="M0 0 C0.309375 0.639375 0.61875 1.27875 0.9375 1.9375 C1.8345163 3.93610821 1.8345163 3.93610821 3 5 C4.68183948 5.23287008 6.3712416 5.41264166 8.0625 5.5625 C8.98160156 5.64628906 9.90070313 5.73007812 10.84765625 5.81640625 C11.91306641 5.90728516 11.91306641 5.90728516 13 6 C13 6.33 13 6.66 13 7 C10.03 7 7.06 7 4 7 C4 7.66 4 8.32 4 9 C2.0625 8.1875 2.0625 8.1875 0 7 C-1.04449911 3.86650268 -0.93423645 3.01031744 0 0 Z " fill="#F8DCCF" transform="translate(75,31)"/>
<path d="M0 0 C0.80050781 0.03480469 1.60101563 0.06960937 2.42578125 0.10546875 C3.63814453 0.14607422 3.63814453 0.14607422 4.875 0.1875 C5.48988281 0.22230469 6.10476562 0.25710937 6.73828125 0.29296875 C6.73828125 1.28296875 6.73828125 2.27296875 6.73828125 3.29296875 C2.77828125 3.29296875 -1.18171875 3.29296875 -5.26171875 3.29296875 C-2.26171875 0.29296875 -2.26171875 0.29296875 0 0 Z " fill="#F8DED2" transform="translate(79.26171875,65.70703125)"/>
<path d="M0 0 C3.80666984 1.44390925 5.26602582 3.34952803 7 7 C6.67 7.66 6.34 8.32 6 9 C5.34 9 4.68 9 4 9 C0 3.70588235 0 3.70588235 0 0 Z " fill="#E5733F" transform="translate(42,43)"/>
<path d="M0 0 C0.99 0 1.98 0 3 0 C2.34 4.29 1.68 8.58 1 13 C-1.12087964 8.75824072 -1.25765477 6.6377859 -1 2 C-0.67 1.34 -0.34 0.68 0 0 Z " fill="#E46D37" transform="translate(9,24)"/>
<path d="M0 0 C1.97986082 0.11347619 3.95891598 0.2410935 5.9375 0.375 C7.03964844 0.44460937 8.14179687 0.51421875 9.27734375 0.5859375 C10.62505859 0.79089844 10.62505859 0.79089844 12 1 C12.33 1.66 12.66 2.32 13 3 C9.04 3 5.08 3 1 3 C0.67 2.01 0.34 1.02 0 0 Z " fill="#E26329" transform="translate(25,34)"/>
<path d="M0 0 C1.58025005 0.21192095 3.16398461 0.39923371 4.75 0.5625 C5.54921875 0.64628906 6.3484375 0.73007813 7.171875 0.81640625 C8.07679687 0.90728516 8.07679687 0.90728516 9 1 C9 1.33 9 1.66 9 2 C4.05 2.33 -0.9 2.66 -6 3 C-6.33 2.01 -6.66 1.02 -7 0 C-3.74072115 -1.08642628 -3.13602589 -0.88854067 0 0 Z " fill="#F5CAB7" transform="translate(80,15)"/>
<path d="M0 0 C0 0.66 0 1.32 0 2 C-2.88211302 2.96070434 -4.69850044 3.10581883 -7.6875 3.0625 C-8.89986328 3.04896484 -8.89986328 3.04896484 -10.13671875 3.03515625 C-11.05904297 3.01775391 -11.05904297 3.01775391 -12 3 C-12 2.34 -12 1.68 -12 1 C-7.915021 0.45533613 -4.1274515 0 0 0 Z " fill="#E2662D" transform="translate(91,74)"/>
<path d="M0 0 C-0.33 0.99 -0.66 1.98 -1 3 C-2.65 3.33 -4.3 3.66 -6 4 C-6 3.67 -6 3.34 -6 3 C-8.97 2.67 -11.94 2.34 -15 2 C-15 1.67 -15 1.34 -15 1 C-13.06263299 0.83179449 -11.12510094 0.66548905 -9.1875 0.5 C-7.56908203 0.36078125 -7.56908203 0.36078125 -5.91796875 0.21875 C-3 0 -3 0 0 0 Z " fill="#F8DBCE" transform="translate(40,65)"/>
<path d="M0 0 C0.66 0 1.32 0 2 0 C2.33 1.98 2.66 3.96 3 6 C0.525 7.485 0.525 7.485 -2 9 C-2 8.01 -2 7.02 -2 6 C-1.34 6 -0.68 6 0 6 C-0.2784375 4.7934375 -0.2784375 4.7934375 -0.5625 3.5625 C-0.706875 2.716875 -0.85125 1.87125 -1 1 C-0.67 0.67 -0.34 0.34 0 0 Z " fill="#E5733F" transform="translate(36,52)"/>
<path d="M0 0 C0.33 0 0.66 0 1 0 C1.33 3.96 1.66 7.92 2 12 C1.01 12 0.02 12 -1 12 C-2.3899408 9.2201184 -2.18488204 7.0813674 -2 4 C-1 1.625 -1 1.625 0 0 Z " fill="#E88659" transform="translate(10,29)"/>
<path d="M0 0 C0 0.66 0 1.32 0 2 C0.66 2.33 1.32 2.66 2 3 C-1.33333333 4.33333333 -4.66666667 5.66666667 -8 7 C-6.47663111 3.31852519 -4.31953005 0 0 0 Z " fill="#E67B4B" transform="translate(27,22)"/>
<path d="M0 0 C3.63 0 7.26 0 11 0 C11 0.66 11 1.32 11 2 C5.06 2.495 5.06 2.495 -1 3 C-0.67 2.01 -0.34 1.02 0 0 Z " fill="#FCF0EB" transform="translate(78,19)"/>
<path d="M0 0 C4.95 0 9.9 0 15 0 C15 0.33 15 0.66 15 1 C12.36 1 9.72 1 7 1 C7 1.66 7 2.32 7 3 C2.25 2.25 2.25 2.25 0 0 Z " fill="#E78152" transform="translate(72,74)"/>
<path d="M0 0 C3.4375 0.8125 3.4375 0.8125 7 2 C7.33 2.99 7.66 3.98 8 5 C3.545 4.01 3.545 4.01 -1 3 C-0.67 2.01 -0.34 1.02 0 0 Z " fill="#E67948" transform="translate(90,22)"/>
<path d="M0 0 C4.62 0 9.24 0 14 0 C14 0.33 14 0.66 14 1 C12.7625 1.144375 11.525 1.28875 10.25 1.4375 C7.96452146 1.71611841 5.85490762 2.03818221 3.625 2.625 C2 3 2 3 0 2 C0 1.34 0 0.68 0 0 Z " fill="#E88659" transform="translate(20,74)"/>
<path d="M0 0 C0.33 0 0.66 0 1 0 C1 2.31 1 4.62 1 7 C1.66 7 2.32 7 3 7 C2.67 8.65 2.34 10.3 2 12 C1.01 12 0.02 12 -1 12 C-0.67 8.04 -0.34 4.08 0 0 Z " fill="#F8D9CB" transform="translate(49,52)"/>
<path d="M0 0 C0.66 0.33 1.32 0.66 2 1 C1.67 1.99 1.34 2.98 1 4 C-2.5625 5.1875 -2.5625 5.1875 -6 6 C-6.33 5.01 -6.66 4.02 -7 3 C-4.69631264 1.93347808 -2.35981813 0.93578995 0 0 Z " fill="#FBEBE4" transform="translate(184,50)"/>
<path d="M0 0 C0.33 0 0.66 0 1 0 C1.33 3.63 1.66 7.26 2 11 C1.34 11 0.68 11 0 11 C-1.62651522 7.74696956 -1.11453156 4.60774398 -1 1 C-0.67 0.67 -0.34 0.34 0 0 Z " fill="#FEF9F7" transform="translate(69,28)"/>
<path d="M0 0 C4.62 0 9.24 0 14 0 C14 0.33 14 0.66 14 1 C12.7625 1.144375 11.525 1.28875 10.25 1.4375 C7.96452146 1.71611841 5.85490762 2.03818221 3.625 2.625 C2 3 2 3 0 2 C0 1.34 0 0.68 0 0 Z " fill="#EB946C" transform="translate(72,58)"/>
<path d="M0 0 C0.66 0 1.32 0 2 0 C2 2.97 2 5.94 2 9 C1.01 9.33 0.02 9.66 -1 10 C-0.67 6.7 -0.34 3.4 0 0 Z " fill="#E3672F" transform="translate(99,52)"/>
<path d="M0 0 C0.33 0.99 0.66 1.98 1 3 C-5.625 2.25 -5.625 2.25 -9 0 C-5.93109813 -1.53445094 -3.29905734 -0.54984289 0 0 Z " fill="#FBE9E1" transform="translate(24,71)"/>
<path d="M0 0 C0.99 0 1.98 0 3 0 C4.4783226 2.95664519 4.06032783 5.74229737 4 9 C3.01 8.67 2.02 8.34 1 8 C0.67 5.36 0.34 2.72 0 0 Z " fill="#E67847" transform="translate(92,50)"/>
<path d="M0 0 C1.5 1.0625 1.5 1.0625 3 3 C3.1875 6.6875 3.1875 6.6875 3 10 C0.3144406 7.3144406 -0.06049974 4.62378672 -1 1 C-0.67 0.67 -0.34 0.34 0 0 Z " fill="#E36C36" transform="translate(193,25)"/>
<path d="M0 0 C0.66 0.33 1.32 0.66 2 1 C2 1.66 2 2.32 2 3 C-1.71888239 2.49287967 -4.73454239 1.88391785 -8 0 C-4.67803635 -1.10732122 -3.31749961 -0.85064093 0 0 Z " fill="#E67948" transform="translate(45,24)"/>
<path d="M0 0 C0.99 0.33 1.98 0.66 3 1 C3 3.97 3 6.94 3 10 C2.01 9.34 1.02 8.68 0 8 C-0.40843923 5.28796348 -0.13336867 2.7562858 0 0 Z " fill="#F9E0D5" transform="translate(186,31)"/>
<path d="M0 0 C1.2380014 3.57644848 0.74926071 6.33694766 0 10 C-0.66 10 -1.32 10 -2 10 C-2.25 3.375 -2.25 3.375 0 0 Z " fill="#E36C35" transform="translate(67,26)"/>
<path d="M0 0 C-1.04874998 2.62187494 -1.64931313 3.79371361 -4.125 5.25 C-4.74375 5.4975 -5.3625 5.745 -6 6 C-6 3 -6 3 -4.6875 1.3125 C-3 0 -3 0 0 0 Z " fill="#FCF3EF" transform="translate(74,16)"/>
<path d="M0 0 C1.5 1.125 1.5 1.125 3 3 C3.1875 6.1875 3.1875 6.1875 3 9 C0.86928411 6.40608501 -0.53582673 4.36525621 -1 1 C-0.67 0.67 -0.34 0.34 0 0 Z " fill="#FDF6F3" transform="translate(100,45)"/>
<path d="M0 0 C-0.33 0.66 -0.66 1.32 -1 2 C-5.29 1.67 -9.58 1.34 -14 1 C-14 0.67 -14 0.34 -14 0 C-12.41773035 -0.19627391 -10.83410729 -0.38165538 -9.25 -0.5625 C-8.36828125 -0.66691406 -7.4865625 -0.77132813 -6.578125 -0.87890625 C-4.11567549 -0.99456676 -2.33461936 -0.73638695 0 0 Z " fill="#E98B61" transform="translate(43,29)"/>
<path d="M0 0 C2 1.8125 2 1.8125 4 4 C4 4.99 4 5.98 4 7 C2.0625 6.1875 2.0625 6.1875 0 5 C-0.33 4.01 -0.66 3.02 -1 2 C-0.67 1.34 -0.34 0.68 0 0 Z " fill="#E57441" transform="translate(21,35)"/>
<path d="M0 0 C0.99 0.33 1.98 0.66 3 1 C3 3.31 3 5.62 3 8 C2.01 7.67 1.02 7.34 0 7 C0 4.69 0 2.38 0 0 Z " fill="#FAE5DB" transform="translate(44,51)"/>
<path d="M0 0 C1.32 1.32 2.64 2.64 4 4 C3.67 4.99 3.34 5.98 3 7 C1.68 6.01 0.36 5.02 -1 4 C-0.67 2.68 -0.34 1.36 0 0 Z " fill="#E67846" transform="translate(73,35)"/>
</svg>
